<?xml version="1.0" encoding="UTF-8"?>
<svg width="197.05" height="160.86" viewBox="11.77 29.93 197.05 160.86" version="1.1" xmlns="http://www.w3.org/2000/svg">
<path d="M0 0 C25.62045699 -0.87591306 46.98452766 7.33864344 67.8046875 21.21875 C67.8046875 21.87875 67.8046875 22.53875 67.8046875 23.21875 C68.67673828 23.61900391 68.67673828 23.61900391 69.56640625 24.02734375 C79.91252321 29.53443916 87.59907575 40.52358005 91.8046875 51.21875 C93.70766157 57.5325461 94.24046505 63.52150554 94.4921875 70.09375 C94.53923828 71.0425 94.58628906 71.99125 94.63476562 72.96875 C94.93816043 79.95180414 94.93816043 79.95180414 93.8046875 82.21875 C93.1446875 82.21875 92.4846875 82.21875 91.8046875 82.21875 C91.50906383 87.54045494 91.50906383 87.54045494 93.8046875 92.21875 C94.45782063 99.40321443 93.71324417 108.56132356 89.10546875 114.35546875 C86.31810467 116.61280775 83.43820012 118.15597396 80.2421875 119.78125 C74.04972182 122.93722853 71.24264829 125.14932216 67.92578125 131.25390625 C66.72004845 133.36708952 65.36322582 135.33466614 63.9921875 137.34375 C62.22565617 140.11203385 61.78084103 140.83720647 61.9921875 144.21875 C62.394375 145.20875 62.394375 145.20875 62.8046875 146.21875 C57.94153592 147.78750857 53.55198263 146.73895125 48.8046875 145.21875 C47.8146875 144.55875 46.8246875 143.89875 45.8046875 143.21875 C45.8046875 142.55875 45.8046875 141.89875 45.8046875 141.21875 C42.47657374 140.50947985 39.14815508 139.85067686 35.8046875 139.21875 C34.80671143 139.02611572 34.80671143 139.02611572 33.78857422 138.82958984 C10.31067947 134.38697138 -21.29542712 132.45414342 -42.0703125 146.28125 C-42.78445312 146.79171875 -43.49859375 147.3021875 -44.234375 147.828125 C-48.31439278 150.72152406 -52.25302777 152.49194342 -57.1953125 153.21875 C-58.21625 151.8884375 -58.21625 151.8884375 -59.2578125 150.53125 C-61.24604736 148.10118517 -63.16086187 146.49814285 -65.8203125 144.84375 C-69.35574996 142.48167898 -70.42400996 140.10767285 -71.58984375 136.0859375 C-72.19920122 133.91933218 -72.19920122 133.91933218 -74.1953125 131.21875 C-74.1953125 130.22875 -74.1953125 129.23875 -74.1953125 128.21875 C-75.8453125 127.88875 -77.4953125 127.55875 -79.1953125 127.21875 C-79.845 128.394375 -79.845 128.394375 -80.5078125 129.59375 C-82.1953125 132.21875 -82.1953125 132.21875 -85.1953125 134.21875 C-91.64814269 133.76591981 -91.64814269 133.76591981 -94.1953125 131.21875 C-95.76629312 120.89516309 -88.48681093 110.61111132 -83.6484375 101.93359375 C-82.10888913 99.24095633 -82.10888913 99.24095633 -81.1953125 96.21875 C-82.31517618 93.67621527 -82.31517618 93.67621527 -83.9453125 90.90625 C-89.84074933 79.51390237 -91.68632608 67.88657569 -88.47265625 55.4140625 C-85.53976869 46.45034555 -80.39114453 38.30332843 -74.1953125 31.21875 C-73.5353125 31.21875 -72.8753125 31.21875 -72.1953125 31.21875 C-72.1953125 30.55875 -72.1953125 29.89875 -72.1953125 29.21875 C-67.72472426 25.21875 -67.72472426 25.21875 -65.1953125 25.21875 C-65.1953125 24.55875 -65.1953125 23.89875 -65.1953125 23.21875 C-47.4447682 5.4319801 -23.90482914 1.63651642 0 0 Z " fill="#F7FAFC" transform="translate(110.1953125,33.78125)"/>
<path d="M0 0 C-3.18537329 2.12358219 -5.49257324 2.71508708 -9.1875 3.625 C-25.70064703 8.25549071 -45.16102212 18.22915095 -53.9453125 33.66064453 C-60.56030449 45.94981518 -64.0669033 58.72532037 -59.91796875 72.625 C-58.6279281 75.4572278 -58.6279281 75.4572278 -57.19140625 77.90625 C-56.02496236 79.95613171 -55.45504804 81.69860759 -55 84 C-53.1746875 83.5978125 -53.1746875 83.5978125 -51.3125 83.1875 C-47.68333962 82.73144622 -47.2569495 82.81008081 -44.125 85.125 C-41.03869007 89.30059579 -40 91.78578351 -40 97 C-38.5459375 95.824375 -38.5459375 95.824375 -37.0625 94.625 C-34.1691081 92.52391622 -31.89168837 91.60084123 -28.375 91 C-23.94128083 90.22069441 -21.89121752 88.52367136 -19 85 C-18 84 -18 84 -15.125 83.75 C-12 84 -12 84 -10.125 85.375 C-9 87 -9 87 -9 89 C-6.70839681 89.02692484 -4.41670454 89.04636124 -2.125 89.0625 C-0.21074219 89.07990234 -0.21074219 89.07990234 1.7421875 89.09765625 C4.88664652 89.23176569 4.88664652 89.23176569 7 88 C8.81041793 87.90367103 10.62452753 87.87018467 12.4375 87.875 C13.40558594 87.87242187 14.37367187 87.86984375 15.37109375 87.8671875 C18 88 18 88 21 89 C21.18175781 88.38511719 21.36351563 87.77023438 21.55078125 87.13671875 C21.80214844 86.32847656 22.05351563 85.52023438 22.3125 84.6875 C22.55613281 83.88699219 22.79976563 83.08648437 23.05078125 82.26171875 C24.06755454 79.83903672 24.94167861 78.613684 27 77 C32.90502409 75.49690296 32.90502409 75.49690296 36.3125 77.0625 C39.48906286 80.70966476 40 84.26292511 40 89 C40.66 89 41.32 89 42 89 C42.20625 88.34 42.4125 87.68 42.625 87 C44.87061287 82.10048102 48.19285794 77.80714206 52 74 C55.04360748 73.67621197 57.12921967 73.48954256 59.8125 75.0625 C61.55729603 77.90927247 61.69042148 80.71846765 62 84 C62.556875 83.83886719 63.11375 83.67773438 63.6875 83.51171875 C66.18409961 82.95926174 68.44450442 82.83197786 71 82.8125 C71.845625 82.79832031 72.69125 82.78414063 73.5625 82.76953125 C76.15408616 83.01456904 77.77024992 83.69415099 80 85 C79.84660156 84.41992188 79.69320312 83.83984375 79.53515625 83.2421875 C78.30755256 77.09402355 78.30755256 77.09402355 80.24609375 74.03125 C83.55822247 70.90353824 85.21559985 69.98734838 89.875 70.0625 C93 71 93 71 94 72 C94.23880597 79.52238806 94.23880597 79.52238806 93 82 C94.11375 81.505 94.11375 81.505 95.25 81 C98 80 98 80 102 80 C102.30744141 78.73542969 102.30744141 78.73542969 102.62109375 77.4453125 C103.02521484 75.80175781 103.02521484 75.80175781 103.4375 74.125 C103.70433594 73.03445312 103.97117188 71.94390625 104.24609375 70.8203125 C105 68 105 68 106 66 C107.42181475 50.38334618 101.8875617 37.85655942 92.0625 26 C81.26668458 14.53955035 67.45181845 8.56916147 53 3 C60.03837156 0.65387615 68.92655648 5.79491209 75.33056641 8.94458008 C86.69231844 14.79934742 95.89059099 22.1145065 104 32 C104.845625 32.721875 105.69125 33.44375 106.5625 34.1875 C113.30910556 41.97204487 114.17438958 52.76458365 114.625 62.625 C114.6765625 63.59179688 114.728125 64.55859375 114.78125 65.5546875 C114.82507813 66.47765625 114.86890625 67.400625 114.9140625 68.3515625 C114.9752124 69.61734131 114.9752124 69.61734131 115.03759766 70.90869141 C115 73 115 73 114 75 C113.34 75 112.68 75 112 75 C111.70437633 80.32170494 111.70437633 80.32170494 114 85 C114.65313313 92.18446443 113.90855667 101.34257356 109.30078125 107.13671875 C106.51341717 109.39405775 103.63351262 110.93722396 100.4375 112.5625 C94.24503432 115.71847853 91.43796079 117.93057216 88.12109375 124.03515625 C86.91536095 126.14833952 85.55853832 128.11591614 84.1875 130.125 C82.42096867 132.89328385 81.97615353 133.61845647 82.1875 137 C82.5896875 137.99 82.5896875 137.99 83 139 C78.13684842 140.56875857 73.74729513 139.52020125 69 138 C68.01 137.34 67.02 136.68 66 136 C66 135.34 66 134.68 66 134 C62.67188624 133.29072985 59.34346758 132.63192686 56 132 C55.00202393 131.80736572 55.00202393 131.80736572 53.98388672 131.61083984 C30.50599197 127.16822138 -1.10011462 125.23539342 -21.875 139.0625 C-22.58914062 139.57296875 -23.30328125 140.0834375 -24.0390625 140.609375 C-28.11908028 143.50277406 -32.05771527 145.27319342 -37 146 C-38.0209375 144.6696875 -38.0209375 144.6696875 -39.0625 143.3125 C-41.05073486 140.88243517 -42.96554937 139.27939285 -45.625 137.625 C-49.16043746 135.26292898 -50.22869746 132.88892285 -51.39453125 128.8671875 C-52.00388872 126.70058218 -52.00388872 126.70058218 -54 124 C-54 123.01 -54 122.02 -54 121 C-55.65 120.67 -57.3 120.34 -59 120 C-59.6496875 121.175625 -59.6496875 121.175625 -60.3125 122.375 C-62 125 -62 125 -65 127 C-71.45283019 126.54716981 -71.45283019 126.54716981 -74 124 C-75.57098062 113.67641309 -68.29149843 103.39236132 -63.453125 94.71484375 C-61.91357663 92.02220633 -61.91357663 92.02220633 -61 89 C-62.11986368 86.45746527 -62.11986368 86.45746527 -63.75 83.6875 C-69.64543683 72.29515237 -71.49101358 60.66782569 -68.27734375 48.1953125 C-65.34445619 39.23159555 -60.19583203 31.08457843 -54 24 C-53.34 24 -52.68 24 -52 24 C-52 23.34 -52 22.68 -52 22 C-49.65448985 19.85553358 -47.58883416 18.23437149 -44.625 17.0546875 C-41.93292481 15.97305015 -39.64683772 14.65860963 -37.1875 13.125 C-30.06060454 8.68376987 -22.83948724 5.38244435 -14.875 2.75 C-14.10285156 2.481875 -13.33070312 2.21375 -12.53515625 1.9375 C-8.21574045 0.49524191 -4.61645353 -0.32447916 0 0 Z " fill="#104180" transform="translate(90,41)"/>
<path d="M0 0 C-3.18537329 2.12358219 -5.49257324 2.71508708 -9.1875 3.625 C-25.70064703 8.25549071 -45.16102212 18.22915095 -53.9453125 33.66064453 C-60.56030449 45.94981518 -64.0669033 58.72532037 -59.91796875 72.625 C-58.6279281 75.4572278 -58.6279281 75.4572278 -57.19140625 77.90625 C-56.02496236 79.95613171 -55.45504804 81.69860759 -55 84 C-53.1746875 83.5978125 -53.1746875 83.5978125 -51.3125 83.1875 C-47.68333962 82.73144622 -47.2569495 82.81008081 -44.125 85.125 C-41.03869007 89.30059579 -40 91.78578351 -40 97 C-38.5459375 95.824375 -38.5459375 95.824375 -37.0625 94.625 C-34.1691081 92.52391622 -31.89168837 91.60084123 -28.375 91 C-23.94128083 90.22069441 -21.89121752 88.52367136 -19 85 C-18 84 -18 84 -15.125 83.75 C-12 84 -12 84 -10.125 85.375 C-9 87 -9 87 -9 89 C-6.70839681 89.02692484 -4.41670454 89.04636124 -2.125 89.0625 C-0.21074219 89.07990234 -0.21074219 89.07990234 1.7421875 89.09765625 C4.88664652 89.23176569 4.88664652 89.23176569 7 88 C8.81041793 87.90367103 10.62452753 87.87018467 12.4375 87.875 C13.40558594 87.87242187 14.37367187 87.86984375 15.37109375 87.8671875 C18 88 18 88 21 89 C21.18175781 88.38511719 21.36351563 87.77023438 21.55078125 87.13671875 C21.80214844 86.32847656 22.05351563 85.52023438 22.3125 84.6875 C22.55613281 83.88699219 22.79976563 83.08648437 23.05078125 82.26171875 C24.06755454 79.83903672 24.94167861 78.613684 27 77 C32.90502409 75.49690296 32.90502409 75.49690296 36.3125 77.0625 C39.48906286 80.70966476 40 84.26292511 40 89 C40.66 89 41.32 89 42 89 C42.20625 88.34 42.4125 87.68 42.625 87 C44.87061287 82.10048102 48.19285794 77.80714206 52 74 C57.33333333 73.66666667 57.33333333 73.66666667 60 75 C60.08096803 76.45742463 60.13917774 77.91612807 60.1875 79.375 C60.22230469 80.18710938 60.25710937 80.99921875 60.29296875 81.8359375 C60.19628906 82.55007812 60.09960938 83.26421875 60 84 C59.01 84.66 58.02 85.32 57 86 C56.67 84.02 56.34 82.04 56 80 C55.01 80 54.02 80 53 80 C51.59959438 81.63981099 51.59959438 81.63981099 50.40625 83.83203125 C49.93316406 84.63060547 49.46007812 85.42917969 48.97265625 86.25195312 C48.48667969 87.09693359 48.00070313 87.94191406 47.5 88.8125 C46.5351295 90.46711214 45.56651218 92.11954635 44.59375 93.76953125 C44.16771484 94.50792236 43.74167969 95.24631348 43.30273438 96.00708008 C42.03546378 97.9457476 40.69668806 99.43304046 39 101 C36.62311735 94.72318367 34.48291827 88.54955571 33 82 C31.68 82.33 30.36 82.66 29 83 C28.01691341 86.87401627 27.03922869 90.74937631 26.0625 94.625 C25.78470703 95.71941406 25.50691406 96.81382812 25.22070312 97.94140625 C24.95322266 99.00488281 24.68574219 100.06835938 24.41015625 101.1640625 C24.16402588 102.13811035 23.91789551 103.1121582 23.66430664 104.11572266 C22.98519654 107.06427348 22.46712457 110.01117809 22 113 C25.465 112.01 25.465 112.01 29 111 C28.61502006 113.23288365 28.10506663 114.83656302 26.875 116.75 C23.96346487 118.69102342 21.40784132 118.24341724 18 118 C16.515 117.505 16.515 117.505 15 117 C14.1028125 117.45052734 14.1028125 117.45052734 13.1875 117.91015625 C8.83577861 120.07824601 3.72265732 119.66711663 -1 119 C-3.61182885 116.69187218 -4.4843437 115.03131259 -6 112 C-6.433125 112.928125 -6.86625 113.85625 -7.3125 114.8125 C-9.79672131 119.50491803 -9.79672131 119.50491803 -12 121 C-15.6875 121.6875 -15.6875 121.6875 -19 122 C-19.20625 122.886875 -19.4125 123.77375 -19.625 124.6875 C-21.62668323 129.50973687 -24.53743838 131.89867548 -29.18359375 133.9765625 C-33.49492294 135.5324216 -37.37784275 136.55025682 -42 136 C-43.485 135.01 -43.485 135.01 -45 134 C-45.49907638 130.1499822 -45.60014678 127.91222311 -43.4375 124.625 C-40.3214771 122.5476514 -37.69536586 122.28425891 -34 122 C-35.32 121.01 -36.64 120.02 -38 119 C-38.845625 119.825 -39.69125 120.65 -40.5625 121.5 C-43.19940217 123.69325276 -44.09205652 124.01404252 -47.6875 124.5625 C-51 124 -51 124 -52.9375 122.3125 C-54.14820847 119.67742863 -54.2389871 117.86784522 -54 115 C-55.65 115 -57.3 115 -59 115 C-59.061875 116.2375 -59.12375 117.475 -59.1875 118.75 C-59.61118714 122.01761454 -59.93021674 122.9158496 -62.125 125.5625 C-65.88379405 127.44189703 -67.98944096 127.05939295 -72 126 C-74 124 -74 124 -74.4375 121.125 C-74.13025148 111.83073226 -67.86792633 102.63269396 -63.453125 94.71484375 C-61.91357663 92.02220633 -61.91357663 92.02220633 -61 89 C-62.11986368 86.45746527 -62.11986368 86.45746527 -63.75 83.6875 C-69.64543683 72.29515237 -71.49101358 60.66782569 -68.27734375 48.1953125 C-65.34445619 39.23159555 -60.19583203 31.08457843 -54 24 C-53.34 24 -52.68 24 -52 24 C-52 23.34 -52 22.68 -52 22 C-49.65448985 19.85553358 -47.58883416 18.23437149 -44.625 17.0546875 C-41.93292481 15.97305015 -39.64683772 14.65860963 -37.1875 13.125 C-30.06060454 8.68376987 -22.83948724 5.38244435 -14.875 2.75 C-14.10285156 2.481875 -13.33070312 2.21375 -12.53515625 1.9375 C-8.21574045 0.49524191 -4.61645353 -0.32447916 0 0 Z " fill="#0C3D7E" transform="translate(90,41)"/>
<path d="M0 0 C-1.95080173 1.46634542 -3.89799399 2.92828031 -5.89453125 4.33203125 C-15.441467 11.70125457 -19.2085652 23.43082442 -22.31518555 34.66967773 C-24.23227412 41.47538518 -24.23227412 41.47538518 -27 44 C-29.8125 44.57421875 -29.8125 44.57421875 -33 44.6875 C-36.31825361 44.82982705 -38.83857157 44.94619052 -42 46 C-42.73323796 48.01508358 -42.73323796 48.01508358 -43 50 C-43.825 49.67 -44.65 49.34 -45.5 49 C-50.31706685 47.62369519 -54.68848485 46.99241647 -59.4375 49.0625 C-61.31758415 51.04597168 -61.31758415 51.04597168 -61.4375 54.5 C-62 58 -62 58 -64 59.9375 C-69.94316791 62.04237197 -75.07227707 61.39182647 -81 59.5 C-88.53147165 57.21154998 -96.21585523 57.75360855 -104 58 C-104.27634893 41.01989378 -99.88857781 29.48589695 -88 17 C-67.03914837 -2.54969413 -27.04730731 -14.88248967 0 0 Z " fill="#03AEEF" transform="translate(142,47)"/>
<path d="M0 0 C10.10443918 4.73754847 17.85351744 16.51231782 22.0390625 26.47265625 C24.14123423 32.67111588 24.33369545 38.49911818 24 45 C23.43152344 44.84144531 22.86304688 44.68289062 22.27734375 44.51953125 C13.33283877 42.47901811 5.44360017 45.05125324 -3 48 C-5.75078884 48.91692961 -7.35948913 49.10886083 -10.1875 49.0625 C-11.445625 49.041875 -12.70375 49.02125 -14 49 C-14.33 48.34 -14.66 47.68 -15 47 C-16.98 47 -18.96 47 -21 47 C-21.33 47.66 -21.66 48.32 -22 49 C-23.98 48.67 -25.96 48.34 -28 48 C-27.938125 47.0925 -27.87625 46.185 -27.8125 45.25 C-27.79790769 42.06957099 -27.79790769 42.06957099 -29.0625 39.6875 C-31.83526416 37.27251186 -34.41202448 37.27079061 -38 37 C-36.98926617 25.12387753 -30.29190686 14.63277635 -21.8046875 6.50390625 C-15.11546767 0.92955639 -8.64121943 -1.20602385 0 0 Z " fill="#02AEEF" transform="translate(163,59)"/>
<path d="M0 0 C2 3 2 3 3.375 6.1875 C5.6811892 9.22961141 5.6811892 9.22961141 8.71875 9.45703125 C14.12114551 9.53057871 18.99722918 9.2234537 24 7 C24.495 7.495 24.495 7.495 25 8 C29.7029691 8.48118161 29.7029691 8.48118161 33.875 6.6875 C35.18546123 4.88214533 35.18546123 4.88214533 36 2 C36.99 2.33 37.98 2.66 39 3 C43.24674388 3.23164058 46.35602463 3.33214424 50 1 C50.37125 1.825 50.7425 2.65 51.125 3.5 C52.77590411 6.30939113 52.77590411 6.30939113 55.875 6.4375 C58.94217024 6.16076096 58.94217024 6.16076096 61.3125 4.9375 C64.19328112 3.93257635 65.42127272 4.06518736 68.375 4.5 C72.83868329 5.15048651 75.78148641 4.52584534 80 3 C78.99939416 5.23212073 78.22320243 6.80255169 76.375 8.4375 C74.74255602 9.98459369 74.74255602 9.98459369 74.75 12.625 C74.74323161 14.95296435 74.74323161 14.95296435 76 16 C81.09217676 15.95868416 85.14702797 15.54473427 89 12 C89.66 12 90.32 12 91 12 C91.28875 11.278125 91.5775 10.55625 91.875 9.8125 C92.91666667 7.20833333 93.95833333 4.60416667 95 2 C100.445 2.495 100.445 2.495 106 3 C104.8553125 3.8971875 104.8553125 3.8971875 103.6875 4.8125 C99.79462819 7.98111659 97.5475006 10.5694347 95.12109375 15.03515625 C93.91536095 17.14833952 92.55853832 19.11591614 91.1875 21.125 C89.42096867 23.89328385 88.97615353 24.61845647 89.1875 28 C89.5896875 28.99 89.5896875 28.99 90 30 C85.13684842 31.56875857 80.74729513 30.52020125 76 29 C75.01 28.34 74.02 27.68 73 27 C73 26.34 73 25.68 73 25 C69.67188624 24.29072985 66.34346758 23.63192686 63 23 C62.33468262 22.87157715 61.66936523 22.7431543 60.98388672 22.61083984 C37.50599197 18.16822138 5.89988538 16.23539342 -14.875 30.0625 C-15.58914062 30.57296875 -16.30328125 31.0834375 -17.0390625 31.609375 C-21.11908028 34.50277406 -25.05771527 36.27319342 -30 37 C-30.680625 36.113125 -31.36125 35.22625 -32.0625 34.3125 C-34.05073486 31.88243517 -35.96554937 30.27939285 -38.625 28.625 C-42.16043746 26.26292898 -43.22869746 23.88892285 -44.39453125 19.8671875 C-45.00388872 17.70058218 -45.00388872 17.70058218 -47 15 C-47 14.01 -47 13.02 -47 12 C-49.97 11.505 -49.97 11.505 -53 11 C-52.67 9.35 -52.34 7.7 -52 6 C-50.35 6 -48.7 6 -47 6 C-46.690625 7.134375 -46.38125 8.26875 -46.0625 9.4375 C-45.37075469 12.78775099 -45.37075469 12.78775099 -44 14 C-40.69896327 14.38835726 -38.10935494 14.68972938 -35.203125 12.8828125 C-33.74469787 11.65356678 -32.36525997 10.33196095 -31 9 C-29.35 9.99 -27.7 10.98 -26 12 C-26.33 12.66 -26.66 13.32 -27 14 C-28.670625 14.2165625 -28.670625 14.2165625 -30.375 14.4375 C-33.84025979 14.75025275 -33.84025979 14.75025275 -35.9375 16.125 C-37.58420065 19.03094231 -37.18462917 21.73821805 -37 25 C-32.89341994 27.05329003 -27.83563111 25.51599324 -23.58203125 24.3203125 C-18.07151046 22.2342527 -16.032697 19.95003232 -13.31640625 14.8203125 C-11.32634344 12.0684749 -8.95688764 11.63238015 -5.80078125 10.69921875 C-3.72731648 10.06457294 -3.72731648 10.06457294 -2.0625 7.625 C-1.02762338 5.06824601 -0.38957691 2.7270384 0 0 Z " fill="#F2F4F7" transform="translate(83,150)"/>
<path d="M0 0 C-3.18537329 2.12358219 -5.49257324 2.71508708 -9.1875 3.625 C-25.70064703 8.25549071 -45.16102212 18.22915095 -53.9453125 33.66064453 C-60.56030449 45.94981518 -64.0669033 58.72532037 -59.91796875 72.625 C-58.6279281 75.4572278 -58.6279281 75.4572278 -57.19140625 77.90625 C-56.02496236 79.95613171 -55.45504804 81.69860759 -55 84 C-53.1746875 83.5978125 -53.1746875 83.5978125 -51.3125 83.1875 C-47.68333962 82.73144622 -47.2569495 82.81008081 -44.125 85.125 C-41.03869007 89.30059579 -40 91.78578351 -40 97 C-38.5459375 95.824375 -38.5459375 95.824375 -37.0625 94.625 C-34.1691081 92.52391622 -31.89168837 91.60084123 -28.375 91 C-23.88459508 90.21608185 -22.10002038 88.35835541 -19 85 C-16.1875 84.1875 -16.1875 84.1875 -14 84 C-14.66 85.32 -15.32 86.64 -16 88 C-15.34 88 -14.68 88 -14 88 C-14.3358407 91.10652645 -14.59049279 92.60414303 -16.875 94.8125 C-19 96 -19 96 -22 96 C-21.01 96.99 -21.01 96.99 -20 98 C-19.54773811 102.59799589 -19.37607219 104.91390344 -21.6875 108.9375 C-24.21195277 111.18903896 -25.67042093 111.72253508 -29 112 C-29 111.34 -29 110.68 -29 110 C-28.525625 109.608125 -28.05125 109.21625 -27.5625 108.8125 C-25.25334174 106.13387641 -25.32445657 103.43923968 -25 100 C-27.41619823 99.74969023 -27.41619823 99.74969023 -30 100 C-32.46324069 103.69486103 -32.38991688 105.63293092 -32 110 C-30.04181465 112.88574684 -26.98342353 114.2727548 -24 116 C-23 117 -23 117 -22.5 119.6875 C-23.1526675 124.0114222 -24.86700646 125.1579234 -28.17578125 127.80078125 C-32.02790604 130.33312025 -35.52668055 130.08440225 -40 130 C-40 129.34 -40 128.68 -40 128 C-38.3603125 127.7834375 -38.3603125 127.7834375 -36.6875 127.5625 C-33.06877013 127.11711896 -33.06877013 127.11711896 -30 126 C-28.77651046 122.0094807 -28.77651046 122.0094807 -29 118 C-32.33695769 114.25748455 -36.25057 111.58314333 -41 110 C-41.33 112.31 -41.66 114.62 -42 117 C-44.475 117.99 -44.475 117.99 -47 119 C-48.96822886 117.03177114 -48.66248381 113.65191291 -49 111 C-52.0534135 110.70640255 -54.95743422 110.5548742 -58 111 C-60.60910963 113.3183856 -60.60910963 113.3183856 -62 116 C-61.01 116 -60.02 116 -59 116 C-59.23416555 120.05886955 -59.45312161 122.35661366 -62.125 125.5 C-65.8863456 127.46244118 -67.95519749 127.0684384 -72 126 C-74 124 -74 124 -74.4375 121.125 C-74.13025148 111.83073226 -67.86792633 102.63269396 -63.453125 94.71484375 C-61.91357663 92.02220633 -61.91357663 92.02220633 -61 89 C-62.11986368 86.45746527 -62.11986368 86.45746527 -63.75 83.6875 C-69.64543683 72.29515237 -71.49101358 60.66782569 -68.27734375 48.1953125 C-65.34445619 39.23159555 -60.19583203 31.08457843 -54 24 C-53.34 24 -52.68 24 -52 24 C-52 23.34 -52 22.68 -52 22 C-49.65448985 19.85553358 -47.58883416 18.23437149 -44.625 17.0546875 C-41.93292481 15.97305015 -39.64683772 14.65860963 -37.1875 13.125 C-30.06060454 8.68376987 -22.83948724 5.38244435 -14.875 2.75 C-14.10285156 2.481875 -13.33070312 2.21375 -12.53515625 1.9375 C-8.21574045 0.49524191 -4.61645353 -0.32447916 0 0 Z " fill="#214E89" transform="translate(90,41)"/>
<path d="M0 0 C0.53625 0.825 1.0725 1.65 1.625 2.5 C3.77247655 5.27420103 3.77247655 5.27420103 6.9375 5.4375 C9.95137599 5.15527846 9.95137599 5.15527846 12.3125 3.9375 C15.19328112 2.93257635 16.42127272 3.06518736 19.375 3.5 C23.83868329 4.15048651 26.78148641 3.52584534 31 2 C29.99939416 4.23212073 29.22320243 5.80255169 27.375 7.4375 C25.74255602 8.98459369 25.74255602 8.98459369 25.75 11.625 C25.74323161 13.95296435 25.74323161 13.95296435 27 15 C32.09217676 14.95868416 36.14702797 14.54473427 40 11 C40.66 11 41.32 11 42 11 C42.28875 10.278125 42.5775 9.55625 42.875 8.8125 C43.91666667 6.20833333 44.95833333 3.60416667 46 1 C49.63 1.33 53.26 1.66 57 2 C55.8553125 2.8971875 55.8553125 2.8971875 54.6875 3.8125 C50.79462819 6.98111659 48.5475006 9.5694347 46.12109375 14.03515625 C44.91536095 16.14833952 43.55853832 18.11591614 42.1875 20.125 C40.42096867 22.89328385 39.97615353 23.61845647 40.1875 27 C40.5896875 27.99 40.5896875 27.99 41 29 C36.13684842 30.56875857 31.74729513 29.52020125 27 28 C26.01 27.34 25.02 26.68 24 26 C24 25.34 24 24.68 24 24 C19.05 23.01 19.05 23.01 14 22 C17.86790003 21.03302499 19.08162002 21.020405 22.75 21.9375 C23.54921875 22.13214844 24.3484375 22.32679688 25.171875 22.52734375 C25.77515625 22.68332031 26.3784375 22.83929688 27 23 C7.48155196 13.92165207 -14.68464873 11.54445342 -36 11 C-33.0567344 9.03782293 -30.24021262 7.41759302 -27 6 C-26.01 6.33 -25.02 6.66 -24 7 C-19.29114683 7.48135261 -19.29114683 7.48135261 -15.125 5.6875 C-13.81453877 3.88214533 -13.81453877 3.88214533 -13 1 C-12.01 1.33 -11.02 1.66 -10 2 C-4.66704568 2.343491 -4.66704568 2.343491 0 0 Z " fill="#F6F8FA" transform="translate(132,151)"/>
<path d="M0 0 C25.62045699 -0.87591306 46.98452766 7.33864344 67.8046875 21.21875 C67.8046875 21.87875 67.8046875 22.53875 67.8046875 23.21875 C68.67287109 23.61320312 68.67287109 23.61320312 69.55859375 24.015625 C75.72410288 27.31819337 80.54974632 32.76710662 84.8046875 38.21875 C84.4746875 38.87875 84.1446875 39.53875 83.8046875 40.21875 C83.02158203 39.27515625 83.02158203 39.27515625 82.22265625 38.3125 C70.93223348 25.18318175 53.40449813 12.82280361 35.8046875 10.21875 C34.13838646 10.18384146 32.47076503 10.17443943 30.8046875 10.21875 C30.8046875 10.87875 30.8046875 11.53875 30.8046875 12.21875 C28.90868381 11.90728528 27.01289163 11.59453283 25.1171875 11.28125 C24.06144531 11.10722656 23.00570312 10.93320312 21.91796875 10.75390625 C20.0770572 10.43746349 18.23976726 10.0951232 16.41503906 9.69580078 C12.04388185 8.89695667 7.67463179 9.02827296 3.2421875 9.03125 C1.76697632 9.0302832 1.76697632 9.0302832 0.26196289 9.02929688 C-5.91494049 9.0741716 -11.79944725 9.46987091 -17.85546875 10.78125 C-20.34995781 11.24766532 -22.66342129 11.2909608 -25.1953125 11.21875 C-24.5353125 10.22875 -23.8753125 9.23875 -23.1953125 8.21875 C-36.3725266 10.61460711 -48.51209603 15.17610614 -59.65625 22.58203125 C-62.1953125 24.21875 -62.1953125 24.21875 -65.1953125 25.21875 C-65.1953125 23.21875 -65.1953125 23.21875 -63.28125 21.30078125 C-44.48614239 5.56597214 -23.76255302 1.62677625 0 0 Z " fill="#F7F8FA" transform="translate(110.1953125,33.78125)"/>
<path d="M0 0 C18.85948556 3.04961894 37.78330086 13.35819649 49.734375 28.46875 C51.11571353 30.22867223 51.11571353 30.22867223 53.625 32.25 C60.32666405 40.00982153 61.17661079 50.81318916 61.625 60.625 C61.6765625 61.59179688 61.728125 62.55859375 61.78125 63.5546875 C61.82507813 64.47765625 61.86890625 65.400625 61.9140625 66.3515625 C61.9548291 67.19541504 61.9955957 68.03926758 62.03759766 68.90869141 C62 71 62 71 61 73 C60.34 73 59.68 73 59 73 C58.70437633 78.32170494 58.70437633 78.32170494 61 83 C61.41278309 88.98535478 60.49971882 94.21537027 59 100 C58.17361624 97.10765685 58 95.11257569 58 92 C57.01 92 56.02 92 55 92 C55.020625 91.05125 55.04125 90.1025 55.0625 89.125 C55.22551826 86.09333717 55.22551826 86.09333717 54 84 C51.67493341 83.60843772 51.67493341 83.60843772 49 83.5 C46.25 83.34375 46.25 83.34375 44 83 C43.67 82.34 43.34 81.68 43 81 C43.99 79.515 43.99 79.515 45 78 C46.32 78 47.64 78 49 78 C49.20496094 77.15695313 49.40992188 76.31390625 49.62109375 75.4453125 C49.89050781 74.34960938 50.15992188 73.25390625 50.4375 72.125 C50.70433594 71.03445312 50.97117188 69.94390625 51.24609375 68.8203125 C52 66 52 66 53 64 C54.42181475 48.38334618 48.8875617 35.85655942 39.0625 24 C28.26668458 12.53955035 14.45181845 6.56916147 0 1 C0 0.67 0 0.34 0 0 Z " fill="#184784" transform="translate(143,43)"/>
<path d="M0 0 C-3.35578361 1.34231345 -5.56615458 0.64318421 -8.92041016 -0.41699219 C-32.18246854 -6.93845209 -63.25897231 -6.88504991 -85.7578125 2.328125 C-88.27979571 3.08384122 -89.55351309 2.87938239 -92 2 C-91.59007813 1.52949219 -91.18015625 1.05898437 -90.7578125 0.57421875 C-90.21898438 -0.04839844 -89.68015625 -0.67101562 -89.125 -1.3125 C-88.59132813 -1.92738281 -88.05765625 -2.54226562 -87.5078125 -3.17578125 C-85.8359553 -5.13498212 -85.8359553 -5.13498212 -84 -8 C-58.87834157 -17.22836432 -23.53396839 -11.43252211 0 0 Z " fill="#1B4986" transform="translate(161,174)"/>
<path d="M0 0 C0.99 0 1.98 0 3 0 C3.22433152 7.27831164 2.99577871 14.40100659 2.125 21.625 C2.04652832 22.31142578 1.96805664 22.99785156 1.88720703 23.70507812 C1.4384278 27.16093664 0.97029591 29.04455614 -1 32 C-1.99 32 -2.98 32 -4 32 C-4 25.73 -4 19.46 -4 13 C-7.12697051 18.25614726 -7.12697051 18.25614726 -10.22167969 23.53125 C-10.61774414 24.1809375 -11.01380859 24.830625 -11.421875 25.5 C-11.81987305 26.1703125 -12.21787109 26.840625 -12.62792969 27.53125 C-13.08071289 28.0159375 -13.53349609 28.500625 -14 29 C-15.32 29 -16.64 29 -18 29 C-18.65043719 27.27255984 -19.29514844 25.5429631 -19.9375 23.8125 C-20.29714844 22.84957031 -20.65679687 21.88664062 -21.02734375 20.89453125 C-22 18 -22 18 -23 13 C-24.65 19.93 -26.3 26.86 -28 34 C-28.99 34 -29.98 34 -31 34 C-30.48520008 26.96471602 -29.31539091 20.32758674 -27.5625 13.5 C-27.34529297 12.60796875 -27.12808594 11.7159375 -26.90429688 10.796875 C-26.68966797 9.94609375 -26.47503906 9.0953125 -26.25390625 8.21875 C-26.06127197 7.45498047 -25.8686377 6.69121094 -25.67016602 5.90429688 C-25 4 -25 4 -23 2 C-20.96557617 2.15454102 -20.96557617 2.15454102 -19 3 C-17.89519599 5.68905127 -17.06145076 8.15121051 -16.3125 10.9375 C-15.89296234 12.40524423 -15.4724338 13.87270569 -15.05078125 15.33984375 C-14.70402344 16.54769531 -14.35726562 17.75554687 -14 19 C-13.67 19.66 -13.34 20.32 -13 21 C-12.48050781 20.07058594 -11.96101563 19.14117187 -11.42578125 18.18359375 C-3.68964617 4.4275754 -3.68964617 4.4275754 0 0 Z " fill="#EDF0F5" transform="translate(143,120)"/>
<path d="M0 0 C2.375 1.5 2.375 1.5 4 4 C4.77155388 10.83376298 3.20768906 14.64431263 -0.5625 20.375 C-4.33745832 22.89163888 -8.5913359 22.85254654 -13 22 C-15.84000604 17.73999095 -15.63091437 14.00058053 -15 9 C-11.82171171 2.52570903 -7.40872332 -1.10342688 0 0 Z " fill="#E5E9EF" transform="translate(105,133)"/>
<path d="M0 0 C1.17755859 -0.03867188 1.17755859 -0.03867188 2.37890625 -0.078125 C3.05824219 0.03015625 3.73757812 0.1384375 4.4375 0.25 C7.1149431 4.26616464 6.63729171 6.76847186 6.09765625 11.4453125 C5.06427466 15.83565559 3.16626614 18.69747554 -0.5625 21.25 C-3.48763425 22.25999918 -5.3776487 22.30221068 -8.5625 22.25 C-9.5525 21.59 -10.5425 20.93 -11.5625 20.25 C-12.07238232 16.3166221 -12.24897376 14.15712604 -9.8125 10.9375 C-6.5801339 8.51322542 -4.65306536 7.25 -0.5625 7.25 C-0.2325 5.93 0.0975 4.61 0.4375 3.25 C-4.0175 3.745 -4.0175 3.745 -8.5625 4.25 C-8.2325 3.26 -7.9025 2.27 -7.5625 1.25 C-4.78580178 0.32443393 -2.88553105 0.05704509 0 0 Z " fill="#EBEEF3" transform="translate(192.5625,125.75)"/>
<path d="M0 0 C2 2 2 2 2.375 5.8125 C2.28855565 8.98212627 1.95958219 10.07035692 0.3125 12.9375 C-2.21195277 15.18903896 -3.67042093 15.72253508 -7 16 C-7 15.34 -7 14.68 -7 14 C-6.525625 13.608125 -6.05125 13.21625 -5.5625 12.8125 C-3.25334174 10.13387641 -3.32445657 7.43923968 -3 4 C-5.41619823 3.74969023 -5.41619823 3.74969023 -8 4 C-10.46324069 7.69486103 -10.38991688 9.63293092 -10 14 C-8.04181465 16.88574684 -4.98342353 18.2727548 -2 20 C-1 21 -1 21 -0.5 23.6875 C-1.1526675 28.0114222 -2.86700646 29.1579234 -6.17578125 31.80078125 C-10.02790604 34.33312025 -13.52668055 34.08440225 -18 34 C-18 33.34 -18 32.68 -18 32 C-16.906875 31.855625 -15.81375 31.71125 -14.6875 31.5625 C-11.06877013 31.11711896 -11.06877013 31.11711896 -8 30 C-6.76787506 26.00980869 -6.76787506 26.00980869 -7 22 C-8.9393747 20.09566171 -8.9393747 20.09566171 -11.4375 18.5 C-15.80174953 15.51106779 -15.80174953 15.51106779 -16.77734375 12.99609375 C-16.9611599 9.12124924 -16.06059068 6.61465971 -13.6875 3.5625 C-9.31848639 -0.60330368 -5.73384839 -0.2730404 0 0 Z " fill="#ECEFF4" transform="translate(68,137)"/>
<path d="M0 0 C1.79133978 -0.05391993 3.58313899 -0.09275571 5.375 -0.125 C6.37273437 -0.14820313 7.37046875 -0.17140625 8.3984375 -0.1953125 C11 0 11 0 13 2 C13.504316 7.85006556 12.9459228 12.83275638 10 18 C7.05631276 20.69137119 4.68274576 21.17928502 0.8125 21.3125 C-3 21 -3 21 -5 19 C-5.4375 16.1875 -5.4375 16.1875 -5 13 C-2.27332387 9.28180527 -0.72732031 8.15500269 3.8125 7.1875 C5.3903125 7.0946875 5.3903125 7.0946875 7 7 C6.67 5.68 6.34 4.36 6 3 C3.36 3.33 0.72 3.66 -2 4 C-1.34 2.68 -0.68 1.36 0 0 Z " fill="#E8ECF1" transform="translate(154,129)"/>
<path d="M0 0 C0.64757625 1.43671568 1.29299453 2.87440416 1.9375 4.3125 C2.29714844 5.11300781 2.65679687 5.91351563 3.02734375 6.73828125 C4.45476908 10.05747508 5.12308043 12.64565964 5.09765625 16.23046875 C5.09443359 17.03291016 5.09121094 17.83535156 5.08789062 18.66210938 C5.07951172 19.49548828 5.07113281 20.32886719 5.0625 21.1875 C5.05798828 22.03248047 5.05347656 22.87746094 5.04882812 23.74804688 C5.03705403 25.83206155 5.0191189 27.91603977 5 30 C3.0625 30.5625 3.0625 30.5625 1 31 C-0.96822886 29.03177114 -0.66248381 25.65191291 -1 23 C-4.63 22.67 -8.26 22.34 -12 22 C-11.67 21.34 -11.34 20.68 -11 20 C-8.71484375 19.5859375 -8.71484375 19.5859375 -5.9375 19.375 C-5.01839844 19.30023438 -4.09929688 19.22546875 -3.15234375 19.1484375 C-2.08693359 19.07496094 -2.08693359 19.07496094 -1 19 C-1.28211877 17.3733152 -1.57602375 15.74867104 -1.875 14.125 C-2.03742187 13.22007812 -2.19984375 12.31515625 -2.3671875 11.3828125 C-2.83044703 8.83494012 -2.83044703 8.83494012 -5 7 C-6.32 8.65 -7.64 10.3 -9 12 C-9.64453125 10.23046875 -9.64453125 10.23046875 -10 8 C-9.07421875 6.11328125 -9.07421875 6.11328125 -7.6875 4.3125 C-7.23761719 3.71050781 -6.78773437 3.10851562 -6.32421875 2.48828125 C-4.2248809 0.12884845 -3.19646821 0 0 0 Z " fill="#F1F4F7" transform="translate(42,129)"/>
<path d="M0 0 C2.2477975 2.05233685 3.0022242 3.00667261 4 6 C4.03954234 8.33299825 4.04401732 10.66708189 4 13 C0.7 13.66 -2.6 14.32 -6 15 C-5.67 15.66 -5.34 16.32 -5 17 C-6.32 17 -7.64 17 -9 17 C-9.66 19.97 -10.32 22.94 -11 26 C-12.32 26.33 -13.64 26.66 -15 27 C-14.41901081 22.66194736 -13.35116029 19.01724577 -11.625 15 C-11.18027344 13.96359375 -10.73554688 12.9271875 -10.27734375 11.859375 C-8.9344274 8.85321363 -7.53645616 5.91118009 -6 3 C-5.01 3.33 -4.02 3.66 -3 4 C-2.01 2.68 -1.02 1.36 0 0 Z " fill="#DFE5ED" transform="translate(37,135)"/>
<path d="M0 0 C1.32 0 2.64 0 4 0 C1.78229366 25.41230554 1.78229366 25.41230554 -3.375 32.0625 C-6.0495316 34.03655904 -7.71855319 34.71873313 -11 35 C-10 32 -10 32 -8.04296875 30.2578125 C-5.33045808 27.26004736 -5.01538405 24.83227782 -4.3125 20.875 C-4.12989624 19.88064941 -4.12989624 19.88064941 -3.94360352 18.86621094 C-3.12328444 14.24554677 -2.57147119 9.63712308 -2.30859375 4.953125 C-2 3 -2 3 0 0 Z " fill="#E8ECF2" transform="translate(174,127)"/>
<path d="M0 0 C0.99 0 1.98 0 3 0 C3.22433152 7.27831164 2.99577871 14.40100659 2.125 21.625 C2.04652832 22.31142578 1.96805664 22.99785156 1.88720703 23.70507812 C1.4384278 27.16093664 0.97029591 29.04455614 -1 32 C-1.99 32 -2.98 32 -4 32 C-4.05454409 29.64551325 -4.0939279 27.29232125 -4.125 24.9375 C-4.14820313 23.62652344 -4.17140625 22.31554687 -4.1953125 20.96484375 C-3.99417522 16.88175701 -3.27165462 13.85000947 -2 10 C-2.99 10 -3.98 10 -5 10 C-4.38390949 5.99541169 -2.44939347 3.16980331 0 0 Z " fill="#F0F2F6" transform="translate(143,120)"/>
<path d="M0 0 C1.21236328 0.02707031 1.21236328 0.02707031 2.44921875 0.0546875 C3.37154297 0.08949219 3.37154297 0.08949219 4.3125 0.125 C4.3125 1.115 4.3125 2.105 4.3125 3.125 C1.6725 3.455 -0.9675 3.785 -3.6875 4.125 C-3.88085938 5.00542969 -4.07421875 5.88585937 -4.2734375 6.79296875 C-4.53382812 7.95441406 -4.79421875 9.11585938 -5.0625 10.3125 C-5.31773438 11.46105469 -5.57296875 12.60960937 -5.8359375 13.79296875 C-6.58222452 16.71307348 -7.49181788 19.36453389 -8.6875 22.125 C-10.0075 22.125 -11.3275 22.125 -12.6875 22.125 C-12.41716451 14.89352565 -11.65238913 8.34577432 -7.6875 2.125 C-4.48369983 -0.01086678 -3.66810033 -0.10632175 0 0 Z " fill="#E8ECF1" transform="translate(85.6875,134.875)"/>
<path d="M0 0 C1.65 0.33 3.3 0.66 5 1 C5.20705288 6.07279555 4.77935998 10.22382322 3 15 C0 17 0 17 -2.1875 16.625 C-3.0846875 16.315625 -3.0846875 16.315625 -4 16 C-4.63019694 6.00437637 -4.63019694 6.00437637 -2 1.8125 C-1.34 1.214375 -0.68 0.61625 0 0 Z " fill="#0F4080" transform="translate(99,136)"/>
<path d="M0 0 C0.66 0.66 1.32 1.32 2 2 C0.83984375 2.51046875 0.83984375 2.51046875 -0.34375 3.03125 C-9.94320732 7.4983242 -16.54831878 12.91386464 -22 22 C-23 19 -23 19 -21.84765625 16.328125 C-10.92604607 -2.50388556 -10.92604607 -2.50388556 0 0 Z " fill="#10B1EF" transform="translate(151,50)"/>
<path d="M0 0 C24.34831461 1.1741573 24.34831461 1.1741573 30 4 C30 4.66 30 5.32 30 6 C29.34 6 28.68 6 28 6 C28 6.66 28 7.32 28 8 C26.10399631 7.68853528 24.20820413 7.37578283 22.3125 7.0625 C21.25675781 6.88847656 20.20101562 6.71445312 19.11328125 6.53515625 C17.27657696 6.21943669 15.44369837 5.87556411 13.625 5.46875 C9.99240223 4.82007183 6.36844414 4.63815915 2.6875 4.4375 C1.94693359 4.39431641 1.20636719 4.35113281 0.44335938 4.30664062 C-1.37091464 4.20129568 -3.1854355 4.10021684 -5 4 C-5 3.67 -5 3.34 -5 3 C-1.04 3 2.92 3 7 3 C7 2.34 7 1.68 7 1 C4.69 1 2.38 1 0 1 C0 0.67 0 0.34 0 0 Z " fill="#BDD1E2" transform="translate(113,38)"/>
<path d="M0 0 C10.08365772 -0.93801467 20.09180842 3.67250642 29 8 C25.65409507 9.33836197 23.50040204 8.63617305 20.16308594 7.57421875 C14.57596472 6.09104617 8.65540424 5.78081315 2.921875 5.14453125 C1.41753906 4.96470703 1.41753906 4.96470703 -0.1171875 4.78125 C-1.48786377 4.6275293 -1.48786377 4.6275293 -2.88623047 4.47070312 C-3.58377441 4.31537109 -4.28131836 4.16003906 -5 4 C-5.33 3.34 -5.66 2.68 -6 2 C-4.02 2 -2.04 2 0 2 C0 1.34 0 0.68 0 0 Z " fill="#385E92" transform="translate(132,166)"/>
<path d="M0 0 C5.33333333 -0.35555556 5.33333333 -0.35555556 7.875 1 C9.6869058 4.22116587 9.50476893 7.44642675 9 11 C7.60699189 14.51568714 6.17064922 17.80493515 3 20 C0.3125 20.1875 0.3125 20.1875 -2 20 C-1.360625 19.278125 -0.72125 18.55625 -0.0625 17.8125 C3.33623838 13.17785675 3.41964264 8.6651757 3 3 C1.64570159 1.05630262 1.64570159 1.05630262 0 0 Z " fill="#EFF2F5" transform="translate(100,134)"/>
<path d="M0 0 C1 1 1 1 1.09765625 3.72265625 C1.08605469 4.82480469 1.07445313 5.92695312 1.0625 7.0625 C1.05347656 8.16722656 1.04445313 9.27195312 1.03515625 10.41015625 C1.02355469 11.26480469 1.01195313 12.11945313 1 13 C-3 13 -3 13 -5.1875 10.9375 C-7.27590524 7.55284323 -7.69156996 4.93248307 -8 1 C-5.26752652 -0.36623674 -3.01801098 -0.128426 0 0 Z " fill="#F2FAFE" transform="translate(96,73)"/>
<path d="M0 0 C2.2477975 2.05233685 3.0022242 3.00667261 4 6 C4.03954234 8.33299825 4.04401732 10.66708189 4 13 C0.37 13 -3.26 13 -7 13 C-6.02325896 11.01963514 -5.04354018 9.04073867 -4.0625 7.0625 C-3.51722656 5.96035156 -2.97195312 4.85820312 -2.41015625 3.72265625 C-1 1 -1 1 0 0 Z " fill="#0E3E7E" transform="translate(37,135)"/>
<path d="M0 0 C12.24681203 1.98033556 22.25628296 7.00507325 33 13 C32.34 14.32 31.68 15.64 31 17 C30.18660156 16.43152344 29.37320313 15.86304688 28.53515625 15.27734375 C19.48251907 9.12138991 10.22848828 4.85116205 0 1 C0 0.67 0 0.34 0 0 Z " fill="#154282" transform="translate(143,43)"/>
<path d="M0 0 C0 0.33 0 0.66 0 1 C-3.63 1.66 -7.26 2.32 -11 3 C-10.01 3.66 -9.02 4.32 -8 5 C-9.89492006 5.33848652 -11.79098466 5.67056911 -13.6875 6 C-14.74324219 6.185625 -15.79898438 6.37125 -16.88671875 6.5625 C-19.64904062 6.95068074 -22.21742043 7.08259976 -25 7 C-24.34 6.01 -23.68 5.02 -23 4 C-22.01 4 -21.02 4 -20 4 C-20 3.34 -20 2.68 -20 2 C-14.2745894 -0.8627053 -6.27881973 -0.11627444 0 0 Z " fill="#C3D2E2" transform="translate(110,38)"/>
<path d="M0 0 C2.125 -0.375 2.125 -0.375 5 0 C7.29739641 1.74322351 9.26333339 3.69638037 11 6 C11 6.66 11 7.32 11 8 C9.56163249 7.88541307 8.12429034 7.75790884 6.6875 7.625 C5.88699219 7.55539063 5.08648437 7.48578125 4.26171875 7.4140625 C2 7 2 7 -1 5 C-0.67 3.35 -0.34 1.7 0 0 Z " fill="#EDF8FD" transform="translate(73,82)"/>
<path d="M0 0 C0 0.66 0 1.32 0 2 C-0.99 2.66 -1.98 3.32 -3 4 C-3.5 6.5 -3.5 6.5 -3 9 C-2.01 9.66 -1.02 10.32 0 11 C0 11.66 0 12.32 0 13 C-6.875 12.125 -6.875 12.125 -8 11 C-8.58368076 4.81298392 -8.58368076 4.81298392 -6.25 1.5625 C-4 0 -4 0 0 0 Z " fill="#ECF0F4" transform="translate(189,135)"/>
<path d="M0 0 C1.7544267 3.0558138 2.29257033 5.40634031 2.44921875 8.9140625 C2.49240234 9.83960937 2.53558594 10.76515625 2.58007812 11.71875 C2.61552734 12.6778125 2.65097656 13.636875 2.6875 14.625 C2.73455078 15.59179688 2.78160156 16.55859375 2.83007812 17.5546875 C3.13567306 24.72865388 3.13567306 24.72865388 2 27 C1.34 27 0.68 27 0 27 C-0.33 29.31 -0.66 31.62 -1 34 C-1.66 33.67 -2.32 33.34 -3 33 C-2.54176557 30.63451954 -2.07553361 28.28835095 -1.46484375 25.95703125 C0.63686999 17.41006204 0.17128485 8.73552757 0 0 Z " fill="#C7D1DF" transform="translate(202,89)"/>
<path d="M0 0 C0.36923077 5.41538462 0.36923077 5.41538462 -1.5 8.375 C-1.995 8.91125 -2.49 9.4475 -3 10 C-4.65 9.67 -6.3 9.34 -8 9 C-8.25 6.6875 -8.25 6.6875 -8 4 C-5.77212179 1.84894517 -3.26798101 0 0 0 Z " fill="#194683" transform="translate(193,135)"/>
<path d="M0 0 C0.66 0 1.32 0 2 0 C1.69052329 1.93798521 1.37731166 3.87537426 1.0625 5.8125 C0.88847656 6.89144531 0.71445313 7.97039062 0.53515625 9.08203125 C0 12 0 12 -1 15 C-1.99 15 -2.98 15 -4 15 C-3.38400666 4.060808 -3.38400666 4.060808 0 0 Z " fill="#E2E7EE" transform="translate(116,139)"/>
<path d="M0 0 C-3.24845373 2.16563582 -5.79624489 2.84096328 -9.5625 3.8125 C-15.15796024 5.3416941 -19.98628614 7.26440937 -25.01171875 10.14453125 C-27 11 -27 11 -30 10 C-28.64957586 7.29915172 -27.4569794 7.26816165 -24.6328125 6.30859375 C-23.74722656 6.00373047 -22.86164063 5.69886719 -21.94921875 5.38476562 C-21.01722656 5.07216797 -20.08523437 4.75957031 -19.125 4.4375 C-18.20074219 4.12103516 -17.27648437 3.80457031 -16.32421875 3.47851562 C-5.7718984 -0.12826441 -5.7718984 -0.12826441 0 0 Z " fill="#34578F" transform="translate(90,41)"/>
<path d="M0 0 C0.25 5.625 0.25 5.625 -2 9 C-4.625 9.1875 -4.625 9.1875 -7 9 C-7.3125 6.1875 -7.3125 6.1875 -7 3 C-4.61107499 1.11400657 -3.08148442 0 0 0 Z " fill="#0E3C7E" transform="translate(161,138)"/>
<path d="M0 0 C0.74056641 0.00451172 1.48113281 0.00902344 2.24414062 0.01367188 C4.05862899 0.02537825 5.87307534 0.04331102 7.6875 0.0625 C7.6875 0.7225 7.6875 1.3825 7.6875 2.0625 C-0.66998222 2.90577749 -8.91447746 3.18440678 -17.3125 3.0625 C-11.69404244 -0.05886531 -6.31020541 -0.07330891 0 0 Z " fill="#FCFDFE" transform="translate(112.3125,38.9375)"/>
<path d="M0 0 C1.32 0.33 2.64 0.66 4 1 C4 2.65 4 4.3 4 6 C3.34 5.34 2.68 4.68 2 4 C-0.97 8.95 -0.97 8.95 -4 14 C-4.66 12.68 -5.32 11.36 -6 10 C-4.8828125 7.421875 -4.8828125 7.421875 -3.125 4.75 C-2.26261719 3.41195312 -2.26261719 3.41195312 -1.3828125 2.046875 C-0.92648438 1.37140625 -0.47015625 0.6959375 0 0 Z " fill="#DFE5ED" transform="translate(137,129)"/>
<path d="M0 0 C0.99 0.33 1.98 0.66 3 1 C1.04312041 2.48112446 -0.91541437 3.95996347 -2.875 5.4375 C-3.43058594 5.85837891 -3.98617187 6.27925781 -4.55859375 6.71289062 C-8.7734375 9.88671875 -8.7734375 9.88671875 -11 11 C-11 10.34 -11 9.68 -11 9 C-11.66 8.67 -12.32 8.34 -13 8 C-11.20909242 6.8529806 -9.41725003 5.70742065 -7.625 4.5625 C-6.12839844 3.60537109 -6.12839844 3.60537109 -4.6015625 2.62890625 C-2 1 -2 1 0 0 Z " fill="#1C4885" transform="translate(58,51)"/>
<path d="M0 0 C-1.8125 3 -1.8125 3 -4 6 C-4.99 6 -5.98 6 -7 6 C-7.33 7.32 -7.66 8.64 -8 10 C-8.66 9.67 -9.32 9.34 -10 9 C-9.40377804 2.68004723 -9.40377804 2.68004723 -7.8125 0 C-5.05274248 -1.52262484 -2.96304212 -0.72429919 0 0 Z " fill="#DFF5FC" transform="translate(89,96)"/>
<path d="M0 0 C4.00660357 0.55647272 6.07665236 2.55838114 9 5.25 C10.2684375 6.40242188 10.2684375 6.40242188 11.5625 7.578125 C13.92414747 9.92463371 15.97729625 12.35924788 18 15 C17.67 15.66 17.34 16.32 17 17 C16.443125 16.34773438 15.88625 15.69546875 15.3125 15.0234375 C11.00988977 10.09578592 6.83195714 5.77325706 1.43359375 2.05859375 C0.96050781 1.70925781 0.48742187 1.35992187 0 1 C0 0.67 0 0.34 0 0 Z " fill="#E8ECF2" transform="translate(177,57)"/>
<path d="M0 0 C5.13373162 1.39038565 10.03739743 3.08460953 15 5 C10.76755936 6.30370189 8.24257983 5.2519088 4 4 C1.00824624 3.5617176 -1.98787653 3.25954805 -5 3 C-5 2.67 -5 2.34 -5 2 C-3.35 2 -1.7 2 0 2 C0 1.34 0 0.68 0 0 Z " fill="#3A5E94" transform="translate(146,169)"/>
<path d="M0 0 C1.98 0.99 3.96 1.98 6 3 C5.67 3.66 5.34 4.32 5 5 C1.61964088 5.62599243 -1.56169885 6 -5 6 C-3.35 4.02 -1.7 2.04 0 0 Z " fill="#D4DCE6" transform="translate(51,159)"/>
<path d="M0 0 C5.46864457 1.01591421 10.76390013 2.07091057 16 4 C16 4.99 16 5.98 16 7 C10.53262809 5.25192871 5.24175152 3.34205919 0 1 C0 0.67 0 0.34 0 0 Z " fill="#3C5C92" transform="translate(143,43)"/>
<path d="M0 0 C0.33 0 0.66 0 1 0 C1.08096803 1.45742463 1.13917774 2.91612807 1.1875 4.375 C1.22230469 5.18710938 1.25710937 5.99921875 1.29296875 6.8359375 C1.19628906 7.55007812 1.09960938 8.26421875 1 9 C0.01 9.66 -0.98 10.32 -2 11 C-2 10.34 -2 9.68 -2 9 C-3.32 9.33 -4.64 9.66 -6 10 C-5.75 8.125 -5.75 8.125 -5 6 C-3.66666667 5.33333333 -2.33333333 4.66666667 -1 4 C-0.19471111 1.94999129 -0.19471111 1.94999129 0 0 Z " fill="#26518B" transform="translate(84,144)"/>
<path d="M0 0 C0.33 0.99 0.66 1.98 1 3 C-0.258125 3.04125 -1.51625 3.0825 -2.8125 3.125 C-3.52019531 3.14820313 -4.22789062 3.17140625 -4.95703125 3.1953125 C-7 3 -7 3 -10 1 C-6.61981469 -0.04005702 -3.5219721 -0.08004482 0 0 Z " fill="#063379" transform="translate(145,168)"/>
<path d="M0 0 C0.99 0 1.98 0 3 0 C2.61402985 2.79828356 2.19863427 3.8205884 0.0625 5.75 C-2 7 -2 7 -4 7 C-2.92598892 4.08482708 -2.22189824 2.22189824 0 0 Z " fill="#E0E5ED" transform="translate(73,130)"/>
<path d="M0 0 C0.66 0 1.32 0 2 0 C1.67 1.32 1.34 2.64 1 4 C0.34 4 -0.32 4 -1 4 C-1.33 6.31 -1.66 8.62 -2 11 C-2.66 10.67 -3.32 10.34 -4 10 C-3.43697042 6.05879291 -2.3208055 3.2491277 0 0 Z " fill="#F0F3F6" transform="translate(203,112)"/>
<path d="M0 0 C1.32 0 2.64 0 4 0 C3.67 1.65 3.34 3.3 3 5 C1.68 5 0.36 5 -1 5 C-0.67 3.35 -0.34 1.7 0 0 Z " fill="#E6EAF1" transform="translate(176,116)"/>
<path d="M0 0 C0.99 0.33 1.98 0.66 3 1 C0.69 2.65 -1.62 4.3 -4 6 C-4.66 5.67 -5.32 5.34 -6 5 C-2.25 1.125 -2.25 1.125 0 0 Z " fill="#113D7F" transform="translate(58,51)"/>
<path d="M0 0 C1.98 0 3.96 0 6 0 C6 0.99 6 1.98 6 3 C3.69 3 1.38 3 -1 3 C-0.67 2.01 -0.34 1.02 0 0 Z " fill="#DFE5ED" transform="translate(84,135)"/>
<path d="M0 0 C0.99 0.33 1.98 0.66 3 1 C2.01 1.495 2.01 1.495 1 2 C-0.13350534 4.01669827 -0.13350534 4.01669827 -1 6 C-1.99 6 -2.98 6 -4 6 C-3.6875 4.125 -3.6875 4.125 -3 2 C-2.01 1.34 -1.02 0.68 0 0 Z " fill="#2AB8F1" transform="translate(86,96)"/>
<path d="M0 0 C0.99 0.33 1.98 0.66 3 1 C2.67 2.65 2.34 4.3 2 6 C1.01 6 0.02 6 -1 6 C-0.67 4.02 -0.34 2.04 0 0 Z " fill="#C8D1DF" transform="translate(23,156)"/>
<path d="M0 0 C0.66 0 1.32 0 2 0 C1.67 1.65 1.34 3.3 1 5 C-0.32 5.33 -1.64 5.66 -3 6 C-1.125 1.125 -1.125 1.125 0 0 Z " fill="#03387B" transform="translate(82,144)"/>
<path d="M0 0 C1.32 0.33 2.64 0.66 4 1 C4 2.65 4 4.3 4 6 C3.38125 5.649375 2.7625 5.29875 2.125 4.9375 C1.073125 4.4734375 1.073125 4.4734375 0 4 C-0.99 4.495 -0.99 4.495 -2 5 C-1.34 3.35 -0.68 1.7 0 0 Z " fill="#CBD4E1" transform="translate(137,129)"/>
<path d="M0 0 C0.99 0 1.98 0 3 0 C3 1.65 3 3.3 3 5 C1.68 4.67 0.36 4.34 -1 4 C-0.67 2.68 -0.34 1.36 0 0 Z " fill="#29B7F0" transform="translate(144,107)"/>
<path d="M0 0 C3.87132028 0.57352893 6.08172796 2.48704352 9 5 C8.67 5.66 8.34 6.32 8 7 C6.66382648 6.02471263 5.3311249 5.04466681 4 4.0625 C3.2575 3.51722656 2.515 2.97195312 1.75 2.41015625 C1.1725 1.94480469 0.595 1.47945312 0 1 C0 0.67 0 0.34 0 0 Z " fill="#DEE4EC" transform="translate(177,57)"/>
<path d="M0 0 C0 0.66 0 1.32 0 2 C-1.98 2.66 -3.96 3.32 -6 4 C-6.33 3.01 -6.66 2.02 -7 1 C-4.53721199 -0.231394 -2.7204945 -0.07159196 0 0 Z " fill="#C8D1DE" transform="translate(161,136)"/>
<path d="M0 0 C2.7972908 2.06756277 3.02692273 3.14440371 3.6875 6.6875 C3.790625 7.780625 3.89375 8.87375 4 10 C0 4 0 4 -1 1 C-0.67 0.67 -0.34 0.34 0 0 Z " fill="#325990" transform="translate(37,135)"/>
<path d="M0 0 C0.33 0 0.66 0 1 0 C1 1.65 1 3.3 1 5 C-1.375 5.625 -1.375 5.625 -4 6 C-4.66 5.34 -5.32 4.68 -6 4 C-4.35 3.67 -2.7 3.34 -1 3 C-0.67 2.01 -0.34 1.02 0 0 Z " fill="#ADB9CE" transform="translate(193,130)"/>
<path d="M0 0 C0.99 0.33 1.98 0.66 3 1 C3 1.66 3 2.32 3 3 C4.65 3 6.3 3 8 3 C8 3.33 8 3.66 8 4 C6.02 4 4.04 4 2 4 C1.67 4.66 1.34 5.32 1 6 C1 4.68 1 3.36 1 2 C0.34 1.67 -0.32 1.34 -1 1 C-0.67 0.67 -0.34 0.34 0 0 Z " fill="#D6F1FC" transform="translate(146,105)"/>
<path d="M0 0 C0.33 0 0.66 0 1 0 C0.67 2.31 0.34 4.62 0 7 C-0.66 7 -1.32 7 -2 7 C-2.33 7.99 -2.66 8.98 -3 10 C-2.49287967 6.28111761 -1.88391785 3.26545761 0 0 Z " fill="#869CBC" transform="translate(26,79)"/>
</svg>
