<?xml version="1.0" encoding="UTF-8"?>
<svg version="1.1" xmlns="http://www.w3.org/2000/svg" width="400" height="172">
<path d="M0 0 C29.72840106 -0.83590534 56.43228988 10.08042419 77.96484375 30.40625 C85.73367065 38.53079241 100.27734375 55.21711961 100.27734375 67.15625 C99.5503125 67.01960938 98.82328125 66.88296875 98.07421875 66.7421875 C94.18093897 66.47265275 91.92800421 66.6639192 88.27734375 68.15625 C83.28359994 73.34410187 79.76123199 79.89888052 76.27734375 86.15625 C72.53886866 82.88714293 70.86790503 79.36796118 68.65234375 74.96875 C66.87859375 72.720625 65.10484375 70.4725 63.27734375 68.15625 C57.33734375 67.82625 51.39734375 67.49625 45.27734375 67.15625 C45.27734375 84.97625 45.27734375 102.79625 45.27734375 121.15625 C36.9856129 123.92016028 26.38886438 125.06791885 18.11328125 121.2734375 C12.58089327 117.90692056 7.78860571 113.77927746 3.27734375 109.15625 C2.78234375 110.001875 2.28734375 110.8475 1.77734375 111.71875 C-3.02402268 118.87838475 -9.65147339 123.685076 -18.01171875 125.7109375 C-27.2120158 127.22222549 -36.04603984 126.51494022 -44.72265625 123.15625 C-43.37880206 120.24349428 -41.82054511 117.9391838 -39.78515625 115.46875 C-34.48740294 108.46120834 -32.56175348 100.88258655 -33.72265625 92.15625 C-35.42661451 85.17675996 -37.9858892 78.71158383 -43.72265625 74.15625 C-53.46746433 68.32523187 -61.81050486 65.649189 -73.09765625 68.21875 C-81.19090144 70.56768361 -86.70319014 75.53055474 -91.72265625 82.15625 C-92.38265625 82.15625 -93.04265625 82.15625 -93.72265625 82.15625 C-95.61339002 67.27547492 -85.93576673 51.85216697 -77.28515625 40.46875 C-76.10957881 39.02148355 -74.92192278 37.58394825 -73.72265625 36.15625 C-73.10648438 35.40601563 -72.4903125 34.65578125 -71.85546875 33.8828125 C-55.91542141 15.12604997 -32.47070257 3.8146378 -8.28515625 0.40625 C-5.52606687 0.19683145 -2.76487508 0.11604932 0 0 Z M10.27734375 78.15625 C4.93116666 85.49565496 2.95963887 92.10166089 3.27734375 101.15625 C4.26734375 100.455 5.25734375 99.75375 6.27734375 99.03125 C11.07010819 95.99382478 16.2047469 94.19544316 21.55273438 92.38818359 C26.45773185 90.67523312 30.51443559 88.67469023 33.58984375 84.28125 C34.5502348 81.31276857 34.72103141 79.26206362 34.27734375 76.15625 C31.2972983 72.62724881 29.19413025 70.33050332 24.52734375 69.90625 C18.22264999 70.39122644 14.32384105 73.48721466 10.27734375 78.15625 Z " fill="#0178BC" transform="translate(158.72265625,14.84375)"/>
<path d="M0 0 C0.66 0 1.32 0 2 0 C2.33 0.99 2.66 1.98 3 3 C4.74991143 4.10680998 4.74991143 4.10680998 6.9375 4.9375 C7.74703125 5.2778125 8.5565625 5.618125 9.390625 5.96875 C11.12318078 6.65347264 12.86289808 7.32035737 14.609375 7.96875 C21.34042969 10.49799479 26.09920841 12.7686543 29.875 19.1875 C31 22 31 22 31 24 C31.66 24 32.32 24 33 24 C33.12375 25.134375 33.2475 26.26875 33.375 27.4375 C33.58125 28.613125 33.7875 29.78875 34 31 C34.66 31.33 35.32 31.66 36 32 C36.99 31.01 37.98 30.02 39 29 C38.855625 29.56847656 38.71125 30.13695313 38.5625 30.72265625 C37.38454495 35.62262205 36.78572473 39.9645312 37 45 C38.03125 44.195625 39.0625 43.39125 40.125 42.5625 C43.37127696 40.22200704 45.94902383 39.29641289 50 39 C49.21625 39.61875 48.4325 40.2375 47.625 40.875 C45.03162353 42.89858661 45.03162353 42.89858661 43 45 C40.875 45.625 40.875 45.625 39 46 C39 47.32 39 48.64 39 50 C39.66 50 40.32 50 41 50 C41.33 50.99 41.66 51.98 42 53 C41.34 53 40.68 53 40 53 C41.32 55.31 42.64 57.62 44 60 C40.63408134 58.55746343 38.48952921 56.66735273 36 54 C35.505 54.845625 35.01 55.69125 34.5 56.5625 C29.69863357 63.72213475 23.07118286 68.528826 14.7109375 70.5546875 C5.51064045 72.06597549 -3.32338359 71.35869022 -12 68 C-10.65614581 65.08724428 -9.09788886 62.7829338 -7.0625 60.3125 C-1.76474669 53.30495834 0.16090277 45.72633655 -1 37 C-2.70708883 30.00768699 -5.26051004 23.5632757 -11 19 C-15.23494394 16.44086224 -19.5515946 14.17140264 -24 12 C-22.1875 11.40234375 -22.1875 11.40234375 -20 11 C-19.01 11.515625 -18.02 12.03125 -17 12.5625 C-14.14730804 14.36024441 -14.14730804 14.36024441 -11.625 13.1875 C-11.08875 12.795625 -10.5525 12.40375 -10 12 C-10 11.34 -10 10.68 -10 10 C-9.01 10.33 -8.02 10.66 -7 11 C-7.33 12.65 -7.66 14.3 -8 16 C-7.01 16.33 -6.02 16.66 -5 17 C-4.67 17.99 -4.34 18.98 -4 20 C-2.00334686 21.68538601 -2.00334686 21.68538601 0 23 C0 22.01 0 21.02 0 20 C-0.66 20 -1.32 20 -2 20 C-1.125 15.125 -1.125 15.125 0 14 C0.07271741 11.64686445 0.08370868 9.29166332 0.0625 6.9375 C0.05347656 5.64714844 0.04445313 4.35679688 0.03515625 3.02734375 C0.02355469 2.02832031 0.01195313 1.02929688 0 0 Z " fill="#0271B2" transform="translate(126,70)"/>
<path d="M0 0 C4.29 0 8.58 0 13 0 C16.12177138 3.33541661 17.70211116 5.4549131 19.6875 9.375 C20.66981797 11.1332345 21.65285715 12.89106631 22.63671875 14.6484375 C23.04623779 15.43395996 23.45575684 16.21948242 23.87768555 17.02880859 C24.96592083 19.14233683 24.96592083 19.14233683 27 21 C27.32274902 20.47043701 27.64549805 19.94087402 27.97802734 19.39526367 C29.44304591 16.99228554 30.90901245 14.5898871 32.375 12.1875 C32.88289063 11.35412109 33.39078125 10.52074219 33.9140625 9.66210938 C34.40390625 8.85966797 34.89375 8.05722656 35.3984375 7.23046875 C35.84880371 6.49207764 36.29916992 5.75368652 36.76318359 4.99291992 C37.80907225 3.3076477 38.89978666 1.65032001 40 0 C44.29 0 48.58 0 53 0 C53 17.16 53 34.32 53 52 C48.71 52 44.42 52 40 52 C39.505 39.625 39.505 39.625 39 27 C33.555 35.415 33.555 35.415 28 44 C24 43 24 43 22.62792969 41.41772461 C22.22993164 40.75264893 21.83193359 40.08757324 21.421875 39.40234375 C21.02581055 38.75515381 20.62974609 38.10796387 20.22167969 37.44116211 C19.73602539 36.61495361 19.25037109 35.78874512 18.75 34.9375 C17.1825 32.318125 15.615 29.69875 14 27 C13.67 35.25 13.34 43.5 13 52 C8.71 52 4.42 52 0 52 C0 34.84 0 17.68 0 0 Z " fill="#057BBF" transform="translate(208,86)"/>
<path d="M0 0 C26 0 26 0 34 4 C37.37800302 7.54690317 38.24604201 10.22855445 38.375 15 C38.26873159 18.22669527 37.92749215 20.1885204 36.75 23.25 C36.5025 24.1575 36.255 25.065 36 26 C36.928125 27.36125 36.928125 27.36125 37.875 28.75 C40.7876417 33.20462849 40.81958672 36.81210058 40 42 C38.02143033 46.27371049 35.54656991 48.8947536 31.40991211 51.18408203 C25.89285809 53.05197733 19.81170342 52.39436087 14.0625 52.25 C7.1015625 52.12625 7.1015625 52.12625 0 52 C0 34.84 0 17.68 0 0 Z M13 12 C13 14.64 13 17.28 13 20 C14.62463842 20.05395478 16.24978541 20.09277195 17.875 20.125 C18.77992187 20.14820313 19.68484375 20.17140625 20.6171875 20.1953125 C23.18806994 20.24324836 23.18806994 20.24324836 25 18 C24.71016731 14.69316534 24.71016731 14.69316534 23 12 C21.31391034 11.92794489 19.62499341 11.91613932 17.9375 11.9375 C17.01839844 11.94652344 16.09929688 11.95554687 15.15234375 11.96484375 C14.44207031 11.97644531 13.73179688 11.98804687 13 12 Z M13 31 C13 33.97 13 36.94 13 40 C14.95803507 40.05389087 16.91648909 40.09274217 18.875 40.125 C19.96554688 40.14820313 21.05609375 40.17140625 22.1796875 40.1953125 C25.1371051 40.30060534 25.1371051 40.30060534 27 38 C26.90888062 35.46048456 26.90888062 35.46048456 26 33 C22.68629 30.79086 21.6553979 30.77518447 17.8125 30.875 C16.46091797 30.90207031 16.46091797 30.90207031 15.08203125 30.9296875 C14.05142578 30.96449219 14.05142578 30.96449219 13 31 Z " fill="#86C609" transform="translate(4,86)"/>
<path d="M0 0 C6.96032608 4.36726342 11.54266454 9.22160758 13.9921875 17.25 C15.2533026 26.19058837 14.43407934 33.88898689 8.9921875 41.25 C3.75503641 47.03497024 -1.60721252 50.80290708 -9.4296875 51.59765625 C-19.49205612 51.99166466 -26.20113038 50.32523049 -33.8828125 43.8125 C-34.5840625 42.966875 -35.2853125 42.12125 -36.0078125 41.25 C-36.7296875 40.404375 -37.4515625 39.55875 -38.1953125 38.6875 C-41.97614622 31.5169533 -42.88189854 23.42677017 -40.890625 15.5625 C-38.16072468 8.41161066 -32.56404927 3.03429843 -26.0078125 -0.75 C-17.60327155 -4.10721745 -8.09444828 -4.26959909 0 0 Z M-25.8828125 14.9375 C-28.38598464 18.83950363 -29.30275584 21.63815869 -29.0078125 26.25 C-27.31348599 32.13030966 -24.84745055 34.82192304 -20.0078125 38.25 C-15.28596171 39.82395026 -11.47184531 39.82413051 -6.8203125 38 C-2.90771685 35.56549604 -0.48163882 33.67147895 0.9921875 29.25 C1.50470973 24.36843577 1.50291644 20.39914011 -0.5078125 15.875 C-4.21972663 11.97749017 -8.24469704 9.72175142 -13.5703125 8.8125 C-18.62741668 9.72018536 -22.12665095 11.4263055 -25.8828125 14.9375 Z " fill="#84C609" transform="translate(108.0078125,87.75)"/>
<path d="M0 0 C1.20527344 0.00322266 2.41054688 0.00644531 3.65234375 0.00976562 C4.90660156 0.01814453 6.16085937 0.02652344 7.453125 0.03515625 C9.35771484 0.04192383 9.35771484 0.04192383 11.30078125 0.04882812 C14.43491595 0.06061059 17.56902642 0.07854589 20.703125 0.09765625 C20.703125 4.05765625 20.703125 8.01765625 20.703125 12.09765625 C19.04023438 12.13503906 17.37734375 12.17242187 15.6640625 12.2109375 C13.46872792 12.2766099 11.27341642 12.3430568 9.078125 12.41015625 C7.98371094 12.43271484 6.88929688 12.45527344 5.76171875 12.47851562 C-2.20749091 12.69672246 -2.20749091 12.69672246 -9.296875 16.09765625 C-10.286875 17.41765625 -11.276875 18.73765625 -12.296875 20.09765625 C-3.056875 20.09765625 6.183125 20.09765625 15.703125 20.09765625 C13.723125 24.05765625 11.743125 28.01765625 9.703125 32.09765625 C2.443125 32.09765625 -4.816875 32.09765625 -12.296875 32.09765625 C-8.1943771 38.09090811 -8.1943771 38.09090811 -4.296875 39.09765625 C-2.37921906 39.24705399 -0.45740978 39.34575908 1.46484375 39.4140625 C3.14223633 39.4769043 3.14223633 39.4769043 4.85351562 39.54101562 C6.02076172 39.58033203 7.18800781 39.61964844 8.390625 39.66015625 C9.56947266 39.70333984 10.74832031 39.74652344 11.96289062 39.79101562 C14.87618383 39.89716801 17.78956257 39.99921867 20.703125 40.09765625 C21.73472126 43.19244504 21.67795362 44.62397018 21.265625 47.78515625 C21.16378906 48.59339844 21.06195313 49.40164062 20.95703125 50.234375 C20.87324219 50.84925781 20.78945313 51.46414062 20.703125 52.09765625 C16.24514456 52.24433003 11.78779446 52.33219 7.328125 52.41015625 C6.07644531 52.45205078 4.82476562 52.49394531 3.53515625 52.53710938 C-5.38577098 52.65387544 -12.40209528 51.50094679 -19.19824219 45.38720703 C-24.59052492 39.76353264 -26.4400175 33.77793581 -26.671875 26.09765625 C-26.43061164 18.10580729 -24.3991018 12.54485859 -18.9765625 6.63671875 C-13.28525246 1.42189048 -7.5417932 -0.0355745 0 0 Z " fill="#047BBF" transform="translate(322.296875,85.90234375)"/>
<path d="M0 0 C4.29 0 8.58 0 13 0 C13.33 6.27 13.66 12.54 14 19 C15.95931542 16.39656713 17.91748882 13.7922889 19.875 11.1875 C20.43058594 10.44951172 20.98617188 9.71152344 21.55859375 8.95117188 C22.36103516 7.88286133 22.36103516 7.88286133 23.1796875 6.79296875 C23.91807861 5.81106567 23.91807861 5.81106567 24.67138672 4.80932617 C25.82532495 3.23787519 26.91854349 1.62218477 28 0 C30.62697064 -0.22137393 33.00893964 -0.28162025 35.625 -0.1875 C36.33140625 -0.17396484 37.0378125 -0.16042969 37.765625 -0.14648438 C39.51074128 -0.1111104 41.25546608 -0.05730221 43 0 C39.51449895 6.39572522 35.37942028 12.17276543 31.0703125 18.03515625 C30.54695313 18.76089844 30.02359375 19.48664063 29.484375 20.234375 C29.00709961 20.88631836 28.52982422 21.53826172 28.03808594 22.20996094 C26.74916568 24.08765225 26.74916568 24.08765225 27 27 C28.03896783 28.88087292 28.03896783 28.88087292 29.484375 30.80078125 C30.00773437 31.53103516 30.53109375 32.26128906 31.0703125 33.01367188 C31.90175781 34.1515918 31.90175781 34.1515918 32.75 35.3125 C33.82879905 36.80810778 34.90693656 38.30419298 35.984375 39.80078125 C36.49935547 40.51572754 37.01433594 41.23067383 37.54492188 41.96728516 C43 49.58791946 43 49.58791946 43 52 C38.1145345 52.82363035 33.85918543 53.07981898 29 52 C24.71462606 48.19202683 22.00148491 43.84855255 19 39 C17.35 36.69 15.7 34.38 14 32 C13.67 38.6 13.34 45.2 13 52 C8.71 52 4.42 52 0 52 C0 34.84 0 17.68 0 0 Z " fill="#037BC0" transform="translate(348,86)"/>
<path d="M0 0 C0.66 -0.33 1.32 -0.66 2 -1 C4 1 4 1 4.125 3.625 C4.08375 4.40875 4.0425 5.1925 4 6 C4.99 6 5.98 6 7 6 C7 6.66 7 7.32 7 8 C7.66 7.67 8.32 7.34 9 7 C9.33 6.01 9.66 5.02 10 4 C11.98 2.68 13.96 1.36 16 0 C16 17.82 16 35.64 16 54 C7.90382942 56.69872353 -1.36508258 57.63466581 -9.625 54.75 C-15.29507427 51.80996149 -18.97000048 48.7103837 -22 43 C-21.75 40.125 -21.75 40.125 -21 38 C-22.485 38.495 -22.485 38.495 -24 39 C-24 37.35 -24 35.7 -24 34 C-23.0925 33.566875 -22.185 33.13375 -21.25 32.6875 C-18.07225128 31.15019164 -18.07225128 31.15019164 -15.75 29.3125 C-14 28 -14 28 -12 28 C-12 27.34 -12 26.68 -12 26 C-11.33613281 25.76925781 -10.67226562 25.53851563 -9.98828125 25.30078125 C-3.89545185 23.05043696 0.96179123 21.07641755 4 15 C4.37572182 11.54335922 4.45386161 9.68079241 2.5 6.75 C-0.90803282 4.36437703 -3.92870669 3.81425866 -8 3 C-8 2.34 -8 1.68 -8 1 C-4.85351577 -0.91036543 -3.48067369 -1.04420211 0 0 Z " fill="#0171B4" transform="translate(188,82)"/>
<path d="M0 0 C11.24927229 6.0940188 21.50669719 13.33057236 30.6875 22.25 C31.37070313 22.87132812 32.05390625 23.49265625 32.7578125 24.1328125 C44.6171899 35.2480721 55.46298405 52.4784738 59.6875 68.25 C58.0375 68.25 56.3875 68.25 54.6875 68.25 C54.171875 67.05375 53.65625 65.8575 53.125 64.625 C47.95723148 53.1149701 42.73780068 43.0497718 34.6875 33.25 C34.00042969 32.39792969 33.31335938 31.54585937 32.60546875 30.66796875 C17.80661893 13.23333121 -2.31664001 2.57949636 -24.3125 -2.75 C-25.20582031 -2.98203125 -26.09914062 -3.2140625 -27.01953125 -3.453125 C-32.39421242 -4.77091023 -37.79527106 -5.39622349 -43.3125 -5.75 C-44.08464844 -5.80414062 -44.85679687 -5.85828125 -45.65234375 -5.9140625 C-74.23237417 -6.9073653 -102.70586278 4.17891976 -123.7578125 23.3203125 C-135.16159192 34.09437502 -142.78025449 46.37726505 -149.45996094 60.46435547 C-150.70774227 63.07783562 -152.00939408 65.66377444 -153.3125 68.25 C-154.6325 67.92 -155.9525 67.59 -157.3125 67.25 C-143.88610484 34.94273665 -123.76653584 11.50951635 -91.3125 -2.75 C-88.75706434 -3.66035155 -86.22357863 -4.4410102 -83.6015625 -5.1328125 C-81.29664712 -5.75427433 -79.11212118 -6.54497271 -76.875 -7.375 C-72.51597477 -8.8668589 -68.27825871 -9.26486914 -63.6953125 -9.5390625 C-41.49574235 -11.50427035 -20.65306432 -9.81090235 0 0 Z " fill="#8EC029" transform="translate(212.3125,13.75)"/>
<path d="M0 0 C4.29 0 8.58 0 13 0 C13 13.2 13 26.4 13 40 C18.61 40 24.22 40 30 40 C32 43 32 43 32 52 C21.44 52 10.88 52 0 52 C0 34.84 0 17.68 0 0 Z " fill="#087CBD" transform="translate(266,86)"/>
<path d="M0 0 C0.70511719 0.45632812 1.41023437 0.91265625 2.13671875 1.3828125 C5.01746552 3.00986456 7.64802872 3.93768609 10.8125 4.875 C18.30218088 7.2978611 24.59272864 10.21958253 29 17 C31.08735704 21.19707862 31.2120345 24.65615404 31.125 29.3125 C31.10695312 30.56675781 31.08890625 31.82101563 31.0703125 33.11328125 C31.04710937 34.06589844 31.02390625 35.01851562 31 36 C30.34 36 29.68 36 29 36 C28.79246094 35.3709375 28.58492187 34.741875 28.37109375 34.09375 C25.86893738 27.14215238 22.49683883 20.47009457 15.78125 16.78125 C15.1934375 16.5234375 14.605625 16.265625 14 16 C14.44730469 16.41507813 14.89460937 16.83015625 15.35546875 17.2578125 C22.92906625 24.97674556 26.35822915 35.30381923 27 46 C16.78591049 41.47982836 7.59004722 33.15771489 3 23 C2.49755859 20.86523438 2.49755859 20.86523438 2.1484375 18.59375 C2.01953125 17.76746094 1.890625 16.94117187 1.7578125 16.08984375 C1.63148438 15.23519531 1.50515625 14.38054687 1.375 13.5 C1.2409375 12.64535156 1.106875 11.79070312 0.96875 10.91015625 C0.40017904 7.19123802 0 3.77931608 0 0 Z " fill="#7DC510" transform="translate(127,72)"/>
<path d="M0 0 C4.29 0 8.58 0 13 0 C13 17.16 13 34.32 13 52 C8.71 52 4.42 52 0 52 C0 34.84 0 17.68 0 0 Z " fill="#86C70A" transform="translate(49,86)"/>
<path d="M0 0 C3.3 0 6.6 0 10 0 C10.04898437 1.29035156 10.09796875 2.58070312 10.1484375 3.91015625 C10.22351803 5.62762347 10.29906354 7.34507041 10.375 9.0625 C10.4059375 9.91005859 10.436875 10.75761719 10.46875 11.63085938 C10.70531783 16.73678171 11.38044506 21.14791873 13 26 C12.34 26.66 11.68 27.32 11 28 C10.62948007 30.3245339 10.62948007 30.3245339 10.5859375 33.0078125 C10.54726563 33.99394531 10.50859375 34.98007813 10.46875 35.99609375 C10.42234375 37.54490234 10.42234375 37.54490234 10.375 39.125 C10.31699219 40.68541016 10.31699219 40.68541016 10.2578125 42.27734375 C10.16335671 44.85126402 10.08058229 47.42560805 10 50 C6.7 50 3.4 50 0 50 C0 33.5 0 17 0 0 Z " fill="#017CC2" transform="translate(349,87)"/>
<path d="M0 0 C3.46620794 1.38648318 4.7385818 2.62530059 6.875 5.6875 C8.28408441 9.83647077 8.49727422 12.85697417 7 17 C4.26795538 20.36251645 2.77061836 21.65492741 -1.4453125 22.4765625 C-6.10697382 22.74095523 -8.29421734 22.54734165 -12.0625 19.625 C-14.74781439 15.98683212 -15.39279906 13.69292064 -15.359375 9.10546875 C-14.72418186 5.38406547 -12.66020984 3.59687151 -10 1 C-6.801457 -0.5992715 -3.47898371 -0.36127908 0 0 Z " fill="#0971AB" transform="translate(98,101)"/>
<path d="M0 0 C4.29 0 8.58 0 13 0 C13 6.27 13 12.54 13 19 C12.67 19 12.34 19 12 19 C12 13.06 12 7.12 12 1 C8.37 1 4.74 1 1 1 C1 17.5 1 34 1 51 C4.3 51 7.6 51 11 51 C11 43.74 11 36.48 11 29 C12.32 28.67 13.64 28.34 15 28 C15.33 29.32 15.66 30.64 16 32 C16.99 31.67 17.98 31.34 19 31 C19.28875 31.61875 19.5775 32.2375 19.875 32.875 C20.93720042 35.13325765 20.93720042 35.13325765 23 37 C23 37.99 23 38.98 23 40 C27.32371893 37.97366931 27.32371893 37.97366931 31 35 C29.68 34.67 28.36 34.34 27 34 C27 32.68 27 31.36 27 30 C26.34 30 25.68 30 25 30 C25.33 28.68 25.66 27.36 26 26 C43 48.95907473 43 48.95907473 43 52 C38.1145345 52.82363035 33.85918543 53.07981898 29 52 C24.71462606 48.19202683 22.00148491 43.84855255 19 39 C17.35 36.69 15.7 34.38 14 32 C13.67 38.6 13.34 45.2 13 52 C8.71 52 4.42 52 0 52 C0 34.84 0 17.68 0 0 Z " fill="#127AB5" transform="translate(348,86)"/>
<path d="M0 0 C7.41089894 3.81773582 13.35030917 10.01801208 16 18 C16 19.32 16 20.64 16 22 C16.66 22 17.32 22 18 22 C18 17.38 18 12.76 18 8 C18.33 8 18.66 8 19 8 C19.12375 9.134375 19.2475 10.26875 19.375 11.4375 C19.58125 12.613125 19.7875 13.78875 20 15 C20.66 15.33 21.32 15.66 22 16 C22.99 15.01 23.98 14.02 25 13 C24.855625 13.56847656 24.71125 14.13695313 24.5625 14.72265625 C23.38454495 19.62262205 22.78572473 23.9645312 23 29 C24.03125 28.195625 25.0625 27.39125 26.125 26.5625 C29.37127696 24.22200704 31.94902383 23.29641289 36 23 C35.21625 23.61875 34.4325 24.2375 33.625 24.875 C31.03162353 26.89858661 31.03162353 26.89858661 29 29 C26.875 29.625 26.875 29.625 25 30 C25 31.32 25 32.64 25 34 C25.66 34 26.32 34 27 34 C27.33 34.99 27.66 35.98 28 37 C27.34 37 26.68 37 26 37 C27.32 39.31 28.64 41.62 30 44 C26.15521125 42.54163185 24.8177085 40.63541701 23 37 C22.3125 34.6875 22.3125 34.6875 22 33 C21.01 33 20.02 33 19 33 C18.67 33.66 18.34 34.32 18 35 C15.9375 36.125 15.9375 36.125 14 37 C13.67 35.68 13.34 34.36 13 33 C10.69 32.67 8.38 32.34 6 32 C6 30.35 6 28.7 6 27 C8.71224618 28.61268692 11.37352812 30.24901874 14 32 C10.03376174 16.47126765 10.03376174 16.47126765 1.171875 3.41015625 C0 2 0 2 0 0 Z " fill="#0570AF" transform="translate(140,86)"/>
<path d="M0 0 C1.54010742 0.02030273 1.54010742 0.02030273 3.11132812 0.04101562 C5.63725909 0.07626117 8.1621066 0.125533 10.6875 0.1875 C10.213125 0.909375 9.73875 1.63125 9.25 2.375 C7.73403117 5.10374389 7.21322225 7.15056079 6.6875 10.1875 C3.08340081 10.24550828 -0.52057851 10.28109869 -4.125 10.3125 C-5.66124023 10.33763672 -5.66124023 10.33763672 -7.22851562 10.36328125 C-8.21142578 10.36972656 -9.19433594 10.37617187 -10.20703125 10.3828125 C-11.11300049 10.39328613 -12.01896973 10.40375977 -12.95239258 10.41455078 C-15.3125 10.1875 -15.3125 10.1875 -18.3125 8.1875 C-18.3125 7.5275 -18.3125 6.8675 -18.3125 6.1875 C-17.6525 6.1875 -16.9925 6.1875 -16.3125 6.1875 C-16.3125 5.1975 -16.3125 4.2075 -16.3125 3.1875 C-11.74732422 -1.07929828 -5.83085626 -0.14549161 0 0 Z " fill="#017CC1" transform="translate(325.3125,106.8125)"/>
<path d="M0 0 C0.66 0 1.32 0 2 0 C2.04898438 0.88300781 2.09796875 1.76601562 2.1484375 2.67578125 C2.59362645 17.04691538 2.59362645 17.04691538 8 30 C8 30.66 8 31.32 8 32 C7.01 32 6.02 32 5 32 C5 30.68 5 29.36 5 28 C3.35 28 1.7 28 0 28 C0 30.97 0 33.94 0 37 C-2 33 -2 33 -2.89453125 31.0703125 C-7.78353215 20.70979145 -13.95688504 16.97009203 -24 12 C-22.1875 11.40234375 -22.1875 11.40234375 -20 11 C-19.01 11.515625 -18.02 12.03125 -17 12.5625 C-14.14730804 14.36024441 -14.14730804 14.36024441 -11.625 13.1875 C-11.08875 12.795625 -10.5525 12.40375 -10 12 C-10 11.34 -10 10.68 -10 10 C-9.01 10.33 -8.02 10.66 -7 11 C-7.33 12.65 -7.66 14.3 -8 16 C-7.01 16.33 -6.02 16.66 -5 17 C-4.67 17.99 -4.34 18.98 -4 20 C-2.00334686 21.68538601 -2.00334686 21.68538601 0 23 C0 22.01 0 21.02 0 20 C-0.66 20 -1.32 20 -2 20 C-1.125 15.125 -1.125 15.125 0 14 C0.07271741 11.64686445 0.08370868 9.29166332 0.0625 6.9375 C0.05347656 5.64714844 0.04445313 4.35679688 0.03515625 3.02734375 C0.02355469 2.02832031 0.01195313 1.02929688 0 0 Z " fill="#0170B2" transform="translate(126,70)"/>
<path d="M0 0 C2.31808063 0.19146389 4.63472128 0.42233188 6.9375 0.75 C3.16872749 7.795966 -1.47094495 14.22567498 -6.0625 20.75 C-7.82712683 17.66190305 -8.0625 16.51687864 -8.0625 12.75 C-8.3925 11.76 -8.7225 10.77 -9.0625 9.75 C-9.7225 9.42 -10.3825 9.09 -11.0625 8.75 C-11.3925 9.74 -11.7225 10.73 -12.0625 11.75 C-16.39583333 16.41666667 -16.39583333 16.41666667 -19.0625 17.75 C-15.55414656 8.15100251 -11.06599206 -0.44263968 0 0 Z " fill="#0B7BBB" transform="translate(384.0625,85.25)"/>
<path d="M0 0 C4.88925715 1.39693061 7.05441957 3.93987562 10 8 C12.11835099 12.17846554 12.21190809 15.66291738 12.125 20.3125 C12.10695312 21.56675781 12.08890625 22.82101563 12.0703125 24.11328125 C12.04710937 25.06589844 12.02390625 26.01851562 12 27 C11.34 27 10.68 27 10 27 C9.79246094 26.3709375 9.58492187 25.741875 9.37109375 25.09375 C7.28320174 19.29307932 4.84870181 15.14962482 0.5859375 10.69140625 C-1 9 -1 9 -3 6 C-1.68 5.01 -0.36 4.02 1 3 C0.67 2.01 0.34 1.02 0 0 Z " fill="#79C41C" transform="translate(146,81)"/>
<path d="M0 0 C7.41089894 3.81773582 13.35030917 10.01801208 16 18 C16 19.32 16 20.64 16 22 C16.66 22 17.32 22 18 22 C18 22.99 18 23.98 18 25 C17.34 25 16.68 25 16 25 C15.67 28.63 15.34 32.26 15 36 C14.34 35.67 13.68 35.34 13 35 C13 34.34 13 33.68 13 33 C10.69 32.67 8.38 32.34 6 32 C6 30.35 6 28.7 6 27 C8.71224618 28.61268692 11.37352812 30.24901874 14 32 C10.03376174 16.47126765 10.03376174 16.47126765 1.171875 3.41015625 C0 2 0 2 0 0 Z " fill="#0F7890" transform="translate(140,86)"/>
<path d="M0 0 C1.05692047 0.00424484 1.05692047 0.00424484 2.13519287 0.00857544 C4.3767626 0.01973449 6.61792686 0.04483057 8.859375 0.0703125 C10.38280671 0.08034786 11.90624471 0.08947274 13.4296875 0.09765625 C17.15638086 0.11965959 20.88283833 0.15415978 24.609375 0.1953125 C24.609375 0.5253125 24.609375 0.8553125 24.609375 1.1953125 C23.91376465 1.20989502 23.2181543 1.22447754 22.50146484 1.23950195 C19.32856162 1.31429219 16.15667492 1.41085062 12.984375 1.5078125 C11.88996094 1.53037109 10.79554688 1.55292969 9.66796875 1.57617188 C1.69875909 1.79437871 1.69875909 1.79437871 -5.390625 5.1953125 C-6.380625 6.5153125 -7.370625 7.8353125 -8.390625 9.1953125 C0.849375 9.1953125 10.089375 9.1953125 19.609375 9.1953125 C17.959375 12.4953125 16.309375 15.7953125 14.609375 19.1953125 C14.279375 17.8753125 13.949375 16.5553125 13.609375 15.1953125 C15.046875 12.9453125 15.046875 12.9453125 16.609375 11.1953125 C15.83746826 11.22149658 15.06556152 11.24768066 14.27026367 11.2746582 C10.77934042 11.37846869 7.2887413 11.44359005 3.796875 11.5078125 C1.97446289 11.5706543 1.97446289 11.5706543 0.11523438 11.63476562 C-1.04814453 11.65087891 -2.21152344 11.66699219 -3.41015625 11.68359375 C-5.02047729 11.72286987 -5.02047729 11.72286987 -6.66333008 11.76293945 C-9.390625 11.1953125 -9.390625 11.1953125 -11.26831055 8.80151367 C-12.390625 6.1953125 -12.390625 6.1953125 -12.328125 4.0078125 C-9.87655171 -0.73189587 -4.70347365 -0.03732916 0 0 Z " fill="#127BB6" transform="translate(318.390625,96.8046875)"/>
<path d="M0 0 C1.32 0.33 2.64 0.66 4 1 C4 1.99 4 2.98 4 4 C4.66 4 5.32 4 6 4 C6.99 5.485 6.99 5.485 8 7 C9.32 7 10.64 7 12 7 C12 7.66 12 8.32 12 9 C12.66 9 13.32 9 14 9 C13.38545304 12.99455527 11.29353263 15.74466336 9 19 C5.36288796 15.84472759 3.89386751 12.87026732 2.25 8.375 C1.82203125 7.22773437 1.3940625 6.08046875 0.953125 4.8984375 C0 2 0 2 0 0 Z " fill="#0D83C6" transform="translate(226,82)"/>
<path d="M0 0 C0 0.66 0 1.32 0 2 C-0.59425781 1.80664062 -1.18851563 1.61328125 -1.80078125 1.4140625 C-21.02409868 -4.62498901 -39.18722084 -4.99948908 -57.87890625 3.1328125 C-59.90602343 3.96157864 -61.86525542 4.52561231 -64 5 C-64 4.34 -64 3.68 -64 3 C-45.27815044 -6.69524352 -19.6072966 -9.8036483 0 0 Z " fill="#1186C9" transform="translate(192,50)"/>
<path d="M0 0 C0.66 0 1.32 0 2 0 C2.04898438 0.88300781 2.09796875 1.76601562 2.1484375 2.67578125 C2.59362645 17.04691538 2.59362645 17.04691538 8 30 C8 30.66 8 31.32 8 32 C7.01 32 6.02 32 5 32 C5 30.68 5 29.36 5 28 C3.824375 28.0928125 3.824375 28.0928125 2.625 28.1875 C1.75875 28.125625 0.8925 28.06375 0 28 C-0.66 27.01 -1.32 26.02 -2 25 C-1.34 24.34 -0.68 23.68 0 23 C0 22.01 0 21.02 0 20 C-0.66 20 -1.32 20 -2 20 C-1.125 15.125 -1.125 15.125 0 14 C0.07271741 11.64686445 0.08370868 9.29166332 0.0625 6.9375 C0.04896484 5.00197266 0.04896484 5.00197266 0.03515625 3.02734375 C0.02355469 2.02832031 0.01195313 1.02929688 0 0 Z " fill="#0A759A" transform="translate(126,70)"/>
<path d="M0 0 C0.66 0.33 1.32 0.66 2 1 C2.66 1 3.32 1 4 1 C3.67 2.32 3.34 3.64 3 5 C6.465 4.505 6.465 4.505 10 4 C7 6 7 6 4.125 7.625 C0.26433074 10.55910864 -1.69555136 13.79896974 -4 18 C-6.57142857 10.28571429 -6.57142857 10.28571429 -4.75 6.1875 C-3 4 -3 4 0 3 C0 2.01 0 1.02 0 0 Z " fill="#076FB1" transform="translate(170,81)"/>
<path d="M0 0 C0.33 0 0.66 0 1 0 C1.12375 1.134375 1.2475 2.26875 1.375 3.4375 C1.58125 4.613125 1.7875 5.78875 2 7 C2.66 7.33 3.32 7.66 4 8 C4.99 7.01 5.98 6.02 7 5 C6.855625 5.56847656 6.71125 6.13695313 6.5625 6.72265625 C5.38454495 11.62262205 4.78572473 15.9645312 5 21 C6.03125 20.195625 7.0625 19.39125 8.125 18.5625 C11.37127696 16.22200704 13.94902383 15.29641289 18 15 C17.21625 15.61875 16.4325 16.2375 15.625 16.875 C13.03162353 18.89858661 13.03162353 18.89858661 11 21 C8.07658794 22.3492671 6.24792684 23 3 23 C2.67 20.69 2.34 18.38 2 16 C1.34 16 0.68 16 0 16 C0 10.72 0 5.44 0 0 Z " fill="#0E719D" transform="translate(158,94)"/>
<path d="M0 0 C0.33 0 0.66 0 1 0 C1.42691034 8.44333791 1.63421641 14.75903687 -3 22 C-3.66 22 -4.32 22 -5 22 C-5.28875 22.598125 -5.5775 23.19625 -5.875 23.8125 C-7 26 -7 26 -9 29 C-7.68 29 -6.36 29 -5 29 C-5 29.66 -5 30.32 -5 31 C0.61 31.33 6.22 31.66 12 32 C12 32.33 12 32.66 12 33 C3.43325085 33.33328851 -3.95073076 33.11584616 -12 30 C-10.65614581 27.08724428 -9.09788886 24.7829338 -7.0625 22.3125 C-1.89003536 15.4999856 -0.66464007 8.37446491 0 0 Z " fill="#21709A" transform="translate(126,108)"/>
<path d="M0 0 C0.33 0 0.66 0 1 0 C1 17.82 1 35.64 1 54 C-4.11069824 55.70356608 -7.67549951 56.25599517 -12.875 56.125 C-13.56335938 56.11597656 -14.25171875 56.10695312 -14.9609375 56.09765625 C-16.64077838 56.07432513 -18.32043746 56.03846326 -20 56 C-20 55.67 -20 55.34 -20 55 C-15.71 55 -11.42 55 -7 55 C-7 54.34 -7 53.68 -7 53 C-4.69 53 -2.38 53 0 53 C0 35.51 0 18.02 0 0 Z " fill="#1F72A5" transform="translate(203,82)"/>
<path d="M0 0 C0.66 -0.33 1.32 -0.66 2 -1 C4 1 4 1 4.125 3.625 C4.08375 4.40875 4.0425 5.1925 4 6 C4.99 6 5.98 6 7 6 C7 6.66 7 7.32 7 8 C7.66 8.33 8.32 8.66 9 9 C8.34 11.31 7.68 13.62 7 16 C6.34 15.67 5.68 15.34 5 15 C4.5978125 13.081875 4.5978125 13.081875 4.1875 11.125 C3.46991419 8.01546147 3.25515498 7.21971679 0.75 5.0625 C-2.17778275 3.93131121 -4.88680238 3.36199972 -8 3 C-8 2.34 -8 1.68 -8 1 C-4.85351577 -0.91036543 -3.48067369 -1.04420211 0 0 Z " fill="#0D70A8" transform="translate(188,82)"/>
<path d="M0 0 C0 0.99 0 1.98 0 3 C-0.33 3.33 -0.66 3.66 -1 4 C-1.07244053 6.01964199 -1.08377188 8.04167124 -1.0625 10.0625 C-1.04896484 11.71958984 -1.04896484 11.71958984 -1.03515625 13.41015625 C-1.02355469 14.26480469 -1.01195313 15.11945313 -1 16 C0.65 15.67 2.3 15.34 4 15 C4 15.99 4 16.98 4 18 C5.41750563 17.88490339 6.83401169 17.75746342 8.25 17.625 C9.03890625 17.55539063 9.8278125 17.48578125 10.640625 17.4140625 C13.085877 16.98492887 14.84836903 16.21399362 17 15 C14.73238447 18.02348737 13.37533971 19.70689482 9.6171875 20.5078125 C4.94344632 20.71708449 2.71802346 20.55683452 -1.0625 17.625 C-4.10710061 13.50005723 -4.74839073 10.08322535 -4 5 C-2 2 -2 2 0 0 Z " fill="#1F759C" transform="translate(87,103)"/>
<path d="M0 0 C3.66499939 3.16522675 4.83958674 6.4555561 5.3359375 11.234375 C5.41955479 18.75993073 4.873827 24.46291693 1 31 C0.67 31 0.34 31 0 31 C0.88305871 24.44013527 0.88305871 24.44013527 1.52905273 22.00878906 C2.3198717 18.63561205 2.10206825 15.19548155 2.0625 11.75 C2.05798828 11.00492188 2.05347656 10.25984375 2.04882812 9.4921875 C2.03709246 7.6614236 2.0191585 5.83070127 2 4 C1.34 4 0.68 4 0 4 C0 2.68 0 1.36 0 0 Z " fill="#85BD2B" transform="translate(117,97)"/>
<path d="M0 0 C5.65377064 2.91254851 10.62605603 7.19237536 13.4375 12.9375 C13.623125 13.618125 13.80875 14.29875 14 15 C13.01 14.67 12.02 14.34 11 14 C11 14.99 11 15.98 11 17 C11.66 17 12.32 17 13 17 C13 19.31 13 21.62 13 24 C11.88858019 21.84283518 10.86703602 19.68541493 9.921875 17.44921875 C7.31697755 11.31034376 4.48898299 6.9065628 0 2 C0 1.34 0 0.68 0 0 Z " fill="#1F8175" transform="translate(140,86)"/>
<path d="M0 0 C1.86955197 1.20994814 3.29800229 2.53494658 4.8046875 4.16796875 C2.99110596 3.69291197 1.17884571 3.21280833 -0.6328125 2.73046875 C-1.64214844 2.46363281 -2.65148437 2.19679688 -3.69140625 1.921875 C-6.1953125 1.16796875 -6.1953125 1.16796875 -7.1953125 0.16796875 C-9.56772722 0.04076946 -11.94451871 -0.00790799 -14.3203125 -0.01953125 C-15.62226562 -0.03371094 -16.92421875 -0.04789062 -18.265625 -0.0625 C-22.30872435 0.17462014 -25.37596298 0.91303962 -29.1953125 2.16796875 C-22.53462667 -5.97286949 -8.39789461 -4.13556697 0 0 Z " fill="#7FB82F" transform="translate(108.1953125,87.83203125)"/>
<path d="M0 0 C7.55146717 4.45342935 13.79581498 10.98566367 19 18 C18.67 18.66 18.34 19.32 18 20 C17.34 19.34 16.68 18.68 16 18 C14.824375 17.690625 14.824375 17.690625 13.625 17.375 C10.13355121 15.54614587 9.65198925 13.46343052 8.109375 9.9609375 C6.44205162 7.0137673 3.82399704 5.75715371 1 4 C0.125 1.75 0.125 1.75 0 0 Z " fill="#0E7CB2" transform="translate(226,37)"/>
<path d="M0 0 C0.66 0 1.32 0 2 0 C2 0.66 2 1.32 2 2 C2.66 2.33 3.32 2.66 4 3 C5.33333333 3.66666667 6.66666667 4.33333333 8 5 C8 5.99 8 6.98 8 8 C8.66 8.66 9.32 9.32 10 10 C10 10.99 10 11.98 10 13 C10.66 12.67 11.32 12.34 12 12 C12 13.65 12 15.3 12 17 C12.66 17 13.32 17 14 17 C14.33 16.01 14.66 15.02 15 14 C15.33 14.66 15.66 15.32 16 16 C15.34 16.99 14.68 17.98 14 19 C11.5335164 18.62504996 10.30801619 18.34808022 8.62792969 16.44946289 C8.22993164 15.7971167 7.83193359 15.14477051 7.421875 14.47265625 C6.98359375 13.76302734 6.5453125 13.05339844 6.09375 12.32226562 C5.6503125 11.57654297 5.206875 10.83082031 4.75 10.0625 C4.29109375 9.32064453 3.8321875 8.57878906 3.359375 7.81445312 C0 2.30047898 0 2.30047898 0 0 Z " fill="#1679B1" transform="translate(222,111)"/>
<path d="M0 0 C0.99 0.33 1.98 0.66 3 1 C1.68 2.65 0.36 4.3 -1 6 C8.24 6 17.48 6 27 6 C25.35 9.3 23.7 12.6 22 16 C21.67 14.68 21.34 13.36 21 12 C21.99 10.68 22.98 9.36 24 8 C15.42 8 6.84 8 -2 8 C-2.33 7.34 -2.66 6.68 -3 6 C-1.44444444 1.44444444 -1.44444444 1.44444444 0 0 Z " fill="#1F7AAD" transform="translate(311,100)"/>
<path d="M0 0 C3.41015625 0.3828125 3.41015625 0.3828125 5.9375 0.875 C5.9375 1.205 5.9375 1.535 5.9375 1.875 C1.9775 1.875 -1.9825 1.875 -6.0625 1.875 C-6.0625 3.195 -6.0625 4.515 -6.0625 5.875 C-6.7225 5.875 -7.3825 5.875 -8.0625 5.875 C-8.3925 7.525 -8.7225 9.175 -9.0625 10.875 C-9.7225 10.875 -10.3825 10.875 -11.0625 10.875 C-11.18625 11.514375 -11.31 12.15375 -11.4375 12.8125 C-11.64375 13.493125 -11.85 14.17375 -12.0625 14.875 C-13.0525 15.37 -13.0525 15.37 -14.0625 15.875 C-14.3925 16.865 -14.7225 17.855 -15.0625 18.875 C-16.0525 19.205 -17.0425 19.535 -18.0625 19.875 C-10.61324697 -0.10427863 -10.61324697 -0.10427863 0 0 Z " fill="#1977B0" transform="translate(255.0625,85.125)"/>
<path d="M0 0 C0.33 0 0.66 0 1 0 C0.67 6.27 0.34 12.54 0 19 C-0.66 18.34 -1.32 17.68 -2 17 C-2.99 17 -3.98 17 -5 17 C-5.22174933 15.54364629 -5.42698698 14.08477044 -5.625 12.625 C-5.74101563 11.81289062 -5.85703125 11.00078125 -5.9765625 10.1640625 C-5.98429687 9.44992188 -5.99203125 8.73578125 -6 8 C-5.34 7.34 -4.68 6.68 -4 6 C-4 7.32 -4 8.64 -4 10 C-3.01 10 -2.02 10 -1 10 C-0.67 6.7 -0.34 3.4 0 0 Z " fill="#0D85CA" transform="translate(92,102)"/>
<path d="M0 0 C1.32 0 2.64 0 4 0 C3.67 3.3 3.34 6.6 3 10 C1.66666667 10 0.33333333 10 -1 10 C-1 12.31 -1 14.62 -1 17 C-3.49005677 14.50994323 -3.29703766 13.62529268 -3.3125 10.1875 C-3.22251408 6.04214842 -2.94012287 3.15013164 0 0 Z " fill="#067BBB" transform="translate(88,102)"/>
<path d="M0 0 C0.66 0.33 1.32 0.66 2 1 C3.99960012 1.039992 6.00047242 1.04346799 8 1 C3.92931627 5.5795192 -0.77194172 9.49741949 -7.0703125 10.24609375 C-9 10.25 -9 10.25 -12 10 C-12 9.67 -12 9.34 -12 9 C-9.36 8.67 -6.72 8.34 -4 8 C-4 7.34 -4 6.68 -4 6 C-3.34 6 -2.68 6 -2 6 C-0.99983813 3.99967627 -0.50603992 2.16874252 0 0 Z " fill="#0E6EAB" transform="translate(148,130)"/>
<path d="M0 0 C1.65 0 3.3 0 5 0 C5 1.32 5 2.64 5 4 C5.66 4 6.32 4 7 4 C7 5.98 7 7.96 7 10 C5.35 9.67 3.7 9.34 2 9 C2 8.01 2 7.02 2 6 C1.01 5.34 0.02 4.68 -1 4 C-0.67 2.68 -0.34 1.36 0 0 Z " fill="#83C802" transform="translate(144,103)"/>
<path d="M0 0 C0.763125 0.639375 1.52625 1.27875 2.3125 1.9375 C6.16139604 4.89130394 9.03937805 5.14860734 13.76171875 5.31640625 C15.43911133 5.37924805 15.43911133 5.37924805 17.15039062 5.44335938 C18.31763672 5.48267578 19.48488281 5.52199219 20.6875 5.5625 C21.86634766 5.60568359 23.04519531 5.64886719 24.25976562 5.69335938 C27.17305883 5.79951176 30.08643757 5.90156242 33 6 C32.67 6.66 32.34 7.32 32 8 C27.95779519 7.8896357 23.91648085 7.75911994 19.875 7.625 C18.16183594 7.57859375 18.16183594 7.57859375 16.4140625 7.53125 C15.30546875 7.49257812 14.196875 7.45390625 13.0546875 7.4140625 C12.03874512 7.3826416 11.02280273 7.3512207 9.97607422 7.31884766 C6.75811858 6.97408555 4.0262641 6.12449188 1 5 C0.67 3.35 0.34 1.7 0 0 Z " fill="#1D7CAC" transform="translate(310,120)"/>
<path d="M0 0 C2 1 2 1 3.0703125 3.80078125 C3.41835937 4.95964844 3.76640625 6.11851563 4.125 7.3125 C4.47820312 8.46363281 4.83140625 9.61476563 5.1953125 10.80078125 C6 14 6 14 6 18 C2.63408134 16.55746343 0.48952921 14.66735273 -2 12 C0.475 12.495 0.475 12.495 3 13 C3 11.02 3 9.04 3 7 C2.34 7 1.68 7 1 7 C0.67 4.69 0.34 2.38 0 0 Z " fill="#6ABD3E" transform="translate(148,100)"/>
<path d="M0 0 C3.3 0 6.6 0 10 0 C10 1.32 10 2.64 10 4 C11.4166747 5.7511573 11.4166747 5.7511573 13 7 C7.53228436 6.59992325 4.04064621 4.53855408 0 1 C0 0.67 0 0.34 0 0 Z " fill="#116DA6" transform="translate(170,130)"/>
<path d="M0 0 C0.99 0 1.98 0 3 0 C2.53199289 4.05606165 2.12046792 7.46588679 0 11 C-1.32 10.67 -2.64 10.34 -4 10 C-2.68 6.7 -1.36 3.4 0 0 Z " fill="#91C326" transform="translate(59,71)"/>
<path d="M0 0 C1.32 0 2.64 0 4 0 C4.33 0.66 4.66 1.32 5 2 C7.80478195 2.91485573 7.80478195 2.91485573 11.0625 3.625 C12.16722656 3.88539062 13.27195313 4.14578125 14.41015625 4.4140625 C15.26480469 4.60742188 16.11945313 4.80078125 17 5 C17 5.66 17 6.32 17 7 C18.32 7 19.64 7 21 7 C21.33 7.99 21.66 8.98 22 10 C21.13632813 9.70867187 20.27265625 9.41734375 19.3828125 9.1171875 C17.23998813 8.40951109 15.08950222 7.7243022 12.9296875 7.0703125 C11.92164063 6.75835937 10.91359375 6.44640625 9.875 6.125 C8.86179688 5.81820312 7.84859375 5.51140625 6.8046875 5.1953125 C3.7802735 3.90635612 2.14759698 2.45586449 0 0 Z " fill="#127981" transform="translate(128,72)"/>
<path d="M0 0 C1.2065625 0.0309375 1.2065625 0.0309375 2.4375 0.0625 C2.7675 1.7125 3.0975 3.3625 3.4375 5.0625 C2.4475 5.5575 2.4475 5.5575 1.4375 6.0625 C1.4375 6.7225 1.4375 7.3825 1.4375 8.0625 C-0.5 7.375 -0.5 7.375 -2.5625 6.0625 C-3.375 3.5 -3.375 3.5 -3.5625 1.0625 C-2.5625 0.0625 -2.5625 0.0625 0 0 Z " fill="#0272B6" transform="translate(99.5625,109.9375)"/>
<path d="M0 0 C1.65 0 3.3 0 5 0 C7.59227518 4.86051596 7.18689553 9.65271133 7 15 C6.71253906 14.42378906 6.42507812 13.84757812 6.12890625 13.25390625 C5.41176327 11.82210175 4.69083993 10.39217964 3.96484375 8.96484375 C3.45630859 7.96130859 3.45630859 7.96130859 2.9375 6.9375 C2.59589844 6.26589844 2.25429687 5.59429687 1.90234375 4.90234375 C1 3 1 3 0 0 Z " fill="#1373A4" transform="translate(119,92)"/>
<path d="M0 0 C0.33 0 0.66 0 1 0 C1.33 2.31 1.66 4.62 2 7 C3.03125 6.195625 4.0625 5.39125 5.125 4.5625 C8.37127696 2.22200704 10.94902383 1.29641289 15 1 C14.21625 1.61875 13.4325 2.2375 12.625 2.875 C10.03162353 4.89858661 10.03162353 4.89858661 8 7 C5.07658794 8.3492671 3.24792684 9 0 9 C0 6.03 0 3.06 0 0 Z " fill="#1D73A2" transform="translate(161,108)"/>
<path d="M0 0 C0.515625 0.268125 1.03125 0.53625 1.5625 0.8125 C4.15056919 2.1160247 4.15056919 2.1160247 7.5625 3.375 C10.89658188 4.95111143 12.17525608 5.88720155 14 9 C13.34 9 12.68 9 12 9 C11.67 9.66 11.34 10.32 11 11 C9.16365304 9.35742342 7.3308593 7.71117305 5.5 6.0625 C4.97535156 5.59392578 4.45070312 5.12535156 3.91015625 4.64257812 C2.5878256 3.44904592 1.29166061 2.22665821 0 1 C0 0.67 0 0.34 0 0 Z " fill="#8BBC32" transform="translate(231,30)"/>
<path d="M0 0 C0.66 0.33 1.32 0.66 2 1 C1.67 1.66 1.34 2.32 1 3 C1.27942455 4.67654729 1.60828247 6.34608154 2 8 C3.32 8 4.64 8 6 8 C6 9.32 6 10.64 6 12 C1.71095765 10.4114658 -0.32345526 7.56872632 -3 4 C-3 3.34 -3 2.68 -3 2 C-2.01 1.34 -1.02 0.68 0 0 Z " fill="#1079B2" transform="translate(302,122)"/>
<path d="M0 0 C5.15924464 4.40053219 8.13973101 9.89612699 11 16 C11 16.66 11 17.32 11 18 C10.01 17.67 9.02 17.34 8 17 C7.28272222 15.35448038 6.61674772 13.68577711 6 12 C5.34 11.34 4.68 10.68 4 10 C4 8.68 4 7.36 4 6 C3.34 6 2.68 6 2 6 C1.34 4.02 0.68 2.04 0 0 Z " fill="#187AA6" transform="translate(245,57)"/>
<path d="M0 0 C2.31 0.66 4.62 1.32 7 2 C6.04882866 3.1725131 5.08882991 4.33787015 4.125 5.5 C3.59132813 6.1496875 3.05765625 6.799375 2.5078125 7.46875 C2.01023437 7.9740625 1.51265625 8.479375 1 9 C0.34 9 -0.32 9 -1 9 C-1 8.34 -1 7.68 -1 7 C-0.34 7 0.32 7 1 7 C1 6.01 1 5.02 1 4 C0.34 4 -0.32 4 -1 4 C-0.67 2.68 -0.34 1.36 0 0 Z " fill="#82BE16" transform="translate(110,126)"/>
<path d="M0 0 C0.33 0 0.66 0 1 0 C1.1953125 2.01822917 1.390625 4.03645833 1.5859375 6.0546875 C1.86374749 8.22668245 1.86374749 8.22668245 4 10 C4.625 12.125 4.625 12.125 5 14 C4.34 14 3.68 14 3 14 C2.67 15.32 2.34 16.64 2 18 C-0.61281488 12.12116651 -0.18328202 6.29268272 0 0 Z " fill="#147BB0" transform="translate(296,106)"/>
<path d="M0 0 C0.99 0 1.98 0 3 0 C1.68775452 3.93673644 0.08089673 6.22719294 -3 9 C-6 5.25 -6 5.25 -6 3 C-5.195625 2.87625 -4.39125 2.7525 -3.5625 2.625 C-2.716875 2.41875 -1.87125 2.2125 -1 2 C-0.67 1.34 -0.34 0.68 0 0 Z " fill="#1878AE" transform="translate(237,92)"/>
<path d="M0 0 C5.80124608 0.74854788 12.06851268 2.89292292 16.0625 7.25 C16.5265625 8.11625 16.5265625 8.11625 17 9 C16.67 9.66 16.34 10.32 16 11 C15.5153125 10.61328125 15.030625 10.2265625 14.53125 9.828125 C9.88787584 6.22058046 5.33286677 3.47597386 0 1 C0 0.67 0 0.34 0 0 Z " fill="#1A709F" transform="translate(102,81)"/>
<path d="M0 0 C0 0.66 0 1.32 0 2 C0.99 2.33 1.98 2.66 3 3 C1.68 3.99 0.36 4.98 -1 6 C-4.16115776 4.63016497 -4.9927092 4.0109362 -7 1 C-4.53721199 -0.231394 -2.7204945 -0.07159196 0 0 Z " fill="#82C802" transform="translate(146,81)"/>
<path d="M0 0 C0.66 0 1.32 0 2 0 C2.33 1.32 2.66 2.64 3 4 C4.32 2.68 5.64 1.36 7 0 C7.66 0.33 8.32 0.66 9 1 C7.88200014 2.33920838 6.75538103 3.67122556 5.625 5 C4.99851562 5.7425 4.37203125 6.485 3.7265625 7.25 C2.87191406 8.11625 2.87191406 8.11625 2 9 C1.34 9 0.68 9 0 9 C0 6.03 0 3.06 0 0 Z " fill="#2D8098" transform="translate(65,88)"/>
<path d="M0 0 C3.70722086 3.19588005 5.40645479 6.38710598 7 11 C6.67 11.99 6.34 12.98 6 14 C4.8000962 12.23754778 3.61540483 10.46473019 2.4375 8.6875 C1.77621094 7.70136719 1.11492187 6.71523437 0.43359375 5.69921875 C-0.27603516 4.36310547 -0.27603516 4.36310547 -1 3 C-0.67 2.01 -0.34 1.02 0 0 Z " fill="#166FA4" transform="translate(223,80)"/>
<path d="M0 0 C4.79959781 0.27167535 8.06062938 1.25437805 12 4 C8.45332822 5.25127906 6.27746562 4.72285053 2.75 3.5625 C1.85796875 3.27503906 0.9659375 2.98757812 0.046875 2.69140625 C-0.62859375 2.46324219 -1.3040625 2.23507812 -2 2 C-1.34 1.34 -0.68 0.68 0 0 Z " fill="#8DBD26" transform="translate(191,9)"/>
<path d="M0 0 C1 3 1 3 0.1796875 5.04296875 C-1.11516833 7.17133957 -2.3490422 9.13123774 -4 11 C-6.8125 11.5 -6.8125 11.5 -9 11 C-9.33 10.34 -9.66 9.68 -10 9 C-9.44570312 8.68546875 -8.89140625 8.3709375 -8.3203125 8.046875 C-7.23363281 7.40492187 -7.23363281 7.40492187 -6.125 6.75 C-5.40570313 6.33234375 -4.68640625 5.9146875 -3.9453125 5.484375 C-1.79125838 3.84071924 -1.00859415 2.48432665 0 0 Z " fill="#1471A4" transform="translate(192,97)"/>
<path d="M0 0 C0 2.83967231 -0.40267181 5.23735711 -1 8 C-1.66 8 -2.32 8 -3 8 C-3.2475 8.61875 -3.495 9.2375 -3.75 9.875 C-5.20628639 12.35068687 -6.37812506 12.95125002 -9 14 C-7.65070536 10.16336928 -5.92248975 7.34827431 -3.375 4.1875 C-2.42753906 3.00220703 -2.42753906 3.00220703 -1.4609375 1.79296875 C-0.97882813 1.20128906 -0.49671875 0.60960938 0 0 Z " fill="#1577AD" transform="translate(374,89)"/>
<path d="M0 0 C5.03681497 3.07122864 8.94510767 6.72916666 13 11 C8.11204087 11 5.63799926 7.59546598 2.1875 4.375 C0 2 0 2 0 0 Z " fill="#1A7BAA" transform="translate(226,37)"/>
<path d="M0 0 C2 1 2 1 3.1171875 3.10546875 C4.19172254 6.62861239 4.19373791 9.63502193 4.125 13.3125 C4.10695312 14.56675781 4.08890625 15.82101563 4.0703125 17.11328125 C4.04710937 18.06589844 4.02390625 19.01851562 4 20 C3.34 20 2.68 20 2 20 C2.02320313 19.20335938 2.04640625 18.40671875 2.0703125 17.5859375 C2.16606543 11.96387241 2.2182408 7.2683219 0 2 C0 1.34 0 0.68 0 0 Z " fill="#5DB14B" transform="translate(154,88)"/>
<path d="M0 0 C3.5154466 1.95302589 6.48239591 3.82968374 9 7 C9.25 9.75 9.25 9.75 9 12 C5.72764488 8.84884322 2.7974276 5.57449082 0 2 C0 1.34 0 0.68 0 0 Z " fill="#25815A" transform="translate(140,86)"/>
<path d="M0 0 C4.0369867 1.79421631 6.64480474 3.20551875 9 7 C8.67 7.66 8.34 8.32 8 9 C7.01 8.67 6.02 8.34 5 8 C4.67 7.34 4.34 6.68 4 6 C3.01 6.33 2.02 6.66 1 7 C1 5.68 1 4.36 1 3 C0.67 2.01 0.34 1.02 0 0 Z " fill="#8EC421" transform="translate(32,87)"/>
<path d="M0 0 C0.20086443 3.71599191 0.1519437 4.77208445 -2 8 C-2.99 8 -3.98 8 -5 8 C-4.6875 5.125 -4.6875 5.125 -4 2 C-1 0 -1 0 0 0 Z " fill="#88C325" transform="translate(72,52)"/>
<path d="M0 0 C5.41342681 1.14514798 7.9342948 2.34012809 11 7 C5.95904225 6.55520961 3.58884285 4.33845847 0 1 C0 0.67 0 0.34 0 0 Z " fill="#8FC31E" transform="translate(229,27)"/>
<path d="M0 0 C1.32 0.66 2.64 1.32 4 2 C2.35 3.65 0.7 5.3 -1 7 C-1.66 6.34 -2.32 5.68 -3 5 C-3.99 5 -4.98 5 -6 5 C-4.02 3.35 -2.04 1.7 0 0 Z " fill="#96BF30" transform="translate(96,25)"/>
<path d="M0 0 C2.96404505 2.80804268 5.44499019 5.18315774 7 9 C5.35 8.67 3.7 8.34 2 8 C2 6.68 2 5.36 2 4 C1.34 4 0.68 4 0 4 C0 2.68 0 1.36 0 0 Z " fill="#1577AE" transform="translate(373,112)"/>
<path d="M0 0 C0.66 0.33 1.32 0.66 2 1 C-0.34608818 4.51913227 -2.23172645 5.23121854 -6 7 C-6.99 7.66 -7.98 8.32 -9 9 C-7.48328036 4.44984107 -3.83108947 2.49942736 0 0 Z " fill="#1A78AA" transform="translate(310,88)"/>
<path d="M0 0 C2.64 0 5.28 0 8 0 C5.98555397 1.34296402 3.96458448 2.67618973 1.9375 4 C-0.97085303 5.84649262 -0.97085303 5.84649262 -3 8 C-3 6.68 -3 5.36 -3 4 C-2.34 3.67 -1.68 3.34 -1 3 C-0.67 2.01 -0.34 1.02 0 0 Z " fill="#1A6EA0" transform="translate(172,85)"/>
<path d="M0 0 C-0.33 0.99 -0.66 1.98 -1 3 C-2.98 3.33 -4.96 3.66 -7 4 C-7 3.34 -7 2.68 -7 2 C-7.66 1.67 -8.32 1.34 -9 1 C-6.04335481 -0.4783226 -3.25770263 -0.06032783 0 0 Z " fill="#8EBF2D" transform="translate(131,10)"/>
<path d="M0 0 C3 1 3 1 5 4 C4.625 6.6875 4.625 6.6875 4 9 C3.34 8.67 2.68 8.34 2 8 C2 6.35 2 4.7 2 3 C1.34 3 0.68 3 0 3 C0 2.01 0 1.02 0 0 Z " fill="#07739B" transform="translate(151,100)"/>
<path d="M0 0 C0 3.51716303 -0.82445585 4.37121748 -3 7 C-2.34 7.33 -1.68 7.66 -1 8 C-1.99 8.66 -2.98 9.32 -4 10 C-4.99 9.34 -5.98 8.68 -7 8 C-4.69 5.36 -2.38 2.72 0 0 Z " fill="#91BC34" transform="translate(82,37)"/>
<path d="M0 0 C0.66 0 1.32 0 2 0 C2.66 1.32 3.32 2.64 4 4 C4.66 4 5.32 4 6 4 C6 5.98 6 7.96 6 10 C3.66475218 7.74259377 1.81294927 5.7194239 0 3 C0 2.01 0 1.02 0 0 Z " fill="#72C22D" transform="translate(132,96)"/>
<path d="M0 0 C1.485 0.99 1.485 0.99 3 2 C5.64632287 1.6878236 5.64632287 1.6878236 8 1 C4.67692308 4.93846154 4.67692308 4.93846154 1.25 5.25 C0.5075 5.1675 -0.235 5.085 -1 5 C-0.67 3.35 -0.34 1.7 0 0 Z " fill="#1285BD" transform="translate(72,83)"/>
<path d="M0 0 C2.3125 0 2.3125 0 5 1 C6.50082801 3.52592185 7.45004094 6.11552084 8 9 C7.67 9.99 7.34 10.98 7 12 C6.74605469 11.46890625 6.49210938 10.9378125 6.23046875 10.390625 C4.41650476 6.6675828 2.6686482 3.20237785 0 0 Z " fill="#0E758A" transform="translate(150,82)"/>
<path d="M0 0 C0.33 0.66 0.66 1.32 1 2 C1.66 2.33 2.32 2.66 3 3 C2.01 4.32 1.02 5.64 0 7 C-0.99 6.67 -1.98 6.34 -3 6 C-1.125 1.125 -1.125 1.125 0 0 Z " fill="#0F7CB5" transform="translate(79,59)"/>
<path d="M0 0 C0.99 0 1.98 0 3 0 C5.1875 3 5.1875 3 7 6 C6.01 6.33 5.02 6.66 4 7 C2 6 2 6 0.875 2.9375 C0.58625 1.968125 0.2975 0.99875 0 0 Z " fill="#93C81B" transform="translate(248,44)"/>
<path d="M0 0 C1.37562854 1.28965176 2.70766393 2.62689293 4 4 C4 4.66 4 5.32 4 6 C3.34 6 2.68 6 2 6 C1.67 6.99 1.34 7.98 1 9 C0.67 9 0.34 9 0 9 C0 6.03 0 3.06 0 0 Z " fill="#0F78B8" transform="translate(226,96)"/>
<path d="M0 0 C0.33 0 0.66 0 1 0 C1.103125 1.051875 1.20625 2.10375 1.3125 3.1875 C1.98249287 6.90291502 2.96256419 8.89955421 5 12 C5 12.66 5 13.32 5 14 C4.01 14 3.02 14 2 14 C0.02905192 9.07262981 -0.1799928 5.21979128 0 0 Z " fill="#1E7E79" transform="translate(129,88)"/>
<path d="M0 0 C-1.5 1.5625 -1.5 1.5625 -4 3 C-6.77437543 2.96823234 -9.25286467 2.50364148 -12 2 C-7.72170329 -0.29194467 -4.74957752 -1.52664992 0 0 Z " fill="#1879AC" transform="translate(145,18)"/>
<path d="M0 0 C1.3271261 3.9813783 1.06915913 7.85045227 1 12 C-1.29633824 8.55549263 -1.54016485 6.06187717 -2 2 C-1.34 2 -0.68 2 0 2 C0 1.34 0 0.68 0 0 Z " fill="#87BA28" transform="translate(79,106)"/>
<path d="M0 0 C0.66 0.99 1.32 1.98 2 3 C1.67 3.99 1.34 4.98 1 6 C0.34 5.34 -0.32 4.68 -1 4 C-3.06874034 3.3574765 -3.06874034 3.3574765 -5 3 C-4.67 2.34 -4.34 1.68 -4 1 C-1.9375 0.375 -1.9375 0.375 0 0 Z " fill="#83C802" transform="translate(150,85)"/>
<path d="M0 0 C1.65 0.99 3.3 1.98 5 3 C4.01 3.495 4.01 3.495 3 4 C2.53476937 5.89533342 2.53476937 5.89533342 2.375 8.0625 C2.25125 9.361875 2.1275 10.66125 2 12 C1.67 12 1.34 12 1 12 C0.67 8.04 0.34 4.08 0 0 Z " fill="#60BA4D" transform="translate(127,72)"/>
<path d="M0 0 C0.99 0.33 1.98 0.66 3 1 C2.01 1.495 2.01 1.495 1 2 C1.33 4.64 1.66 7.28 2 10 C1.34 10 0.68 10 0 10 C-2.21538462 4.58461538 -2.21538462 4.58461538 -1.125 1.625 C-0.75375 1.08875 -0.3825 0.5525 0 0 Z " fill="#0971A5" transform="translate(125,68)"/>
<path d="M0 0 C0.598125 0.20625 1.19625 0.4125 1.8125 0.625 C1.8125 1.615 1.8125 2.605 1.8125 3.625 C-0.1675 4.615 -0.1675 4.615 -2.1875 5.625 C-2.1875 4.965 -2.1875 4.305 -2.1875 3.625 C-3.1775 2.965 -4.1675 2.305 -5.1875 1.625 C-2.1875 -0.375 -2.1875 -0.375 0 0 Z " fill="#9AC624" transform="translate(122.1875,11.375)"/>
<path d="M0 0 C0.33 0 0.66 0 1 0 C1.41176754 3.60296594 1.1535853 4.78402067 -1 7.8125 C-1.66 8.534375 -2.32 9.25625 -3 10 C-2.25 3.375 -2.25 3.375 0 0 Z " fill="#8FBC2A" transform="translate(70,98)"/>
<path d="M0 0 C0.33 0 0.66 0 1 0 C1 2.64 1 5.28 1 8 C0.01 7.67 -0.98 7.34 -2 7 C-2.33 5.35 -2.66 3.7 -3 2 C-2.34 2 -1.68 2 -1 2 C-0.67 1.34 -0.34 0.68 0 0 Z " fill="#6FBD30" transform="translate(156,96)"/>
<path d="M0 0 C1.65 0 3.3 0 5 0 C5.66 1.32 6.32 2.64 7 4 C6.34 4 5.68 4 5 4 C4.67 4.66 4.34 5.32 4 6 C2.68 4.02 1.36 2.04 0 0 Z " fill="#90BD35" transform="translate(250,50)"/>
<path d="M0 0 C1.32 0.66 2.64 1.32 4 2 C-0.1205746 3.99785435 -3.45194365 4.17835515 -8 4 C-8 3.67 -8 3.34 -8 3 C-5.36 2.67 -2.72 2.34 0 2 C0 1.34 0 0.68 0 0 Z " fill="#1972A0" transform="translate(144,136)"/>
<path d="M0 0 C0.99 0.33 1.98 0.66 3 1 C2.2884375 1.61875 2.2884375 1.61875 1.5625 2.25 C-0.16266518 4.182185 -0.56584875 5.48192275 -1 8 C-1.66 7.34 -2.32 6.68 -3 6 C-1.125 1.125 -1.125 1.125 0 0 Z " fill="#187DB8" transform="translate(311,100)"/>
<path d="M0 0 C1.32 0.33 2.64 0.66 4 1 C2.92598892 3.91517292 2.22189824 5.77810176 0 8 C0 5.36 0 2.72 0 0 Z " fill="#1777B6" transform="translate(241,83)"/>
<path d="M0 0 C0.33 0.66 0.66 1.32 1 2 C1.99 2 2.98 2 4 2 C4 2.66 4 3.32 4 4 C1.69 4 -0.62 4 -3 4 C-2.67 3.01 -2.34 2.02 -2 1 C-1.34 0.67 -0.68 0.34 0 0 Z " fill="#92C917" transform="translate(160,3)"/>
</svg>
