<?xml version="1.0" standalone="no"?>
<!DOCTYPE svg PUBLIC "-//W3C//DTD SVG 20010904//EN"
 "http://www.w3.org/TR/2001/REC-SVG-20010904/DTD/svg10.dtd">
<svg version="1.0" xmlns="http://www.w3.org/2000/svg"
 width="1134.000000pt" height="636.000000pt" viewBox="0 0 1134.000000 636.000000"
 preserveAspectRatio="xMidYMid meet">

<g transform="translate(0.000000,636.000000) scale(0.100000,-0.100000)"
fill="#000000" stroke="none">
<path d="M4710 4155 l0 -55 -195 0 c-167 0 -195 -2 -195 -15 0 -13 31 -15 220
-15 l220 0 0 70 c0 68 -1 70 -25 70 -24 0 -25 -3 -25 -55z"/>
<path d="M4790 3670 l0 -540 596 0 c699 0 711 1 858 75 91 46 126 109 126 231
0 86 -23 145 -76 194 -24 22 -44 45 -44 51 0 7 21 30 46 52 59 52 74 88 74
179 0 85 -11 132 -43 178 -27 40 -61 61 -147 92 -65 23 -67 23 -727 26 l-663
3 0 -541z m968 297 c141 -2 175 -5 182 -17 17 -26 12 -116 -7 -131 -13 -11
-88 -15 -370 -17 l-353 -3 0 84 c0 46 2 86 4 88 2 2 87 3 188 1 100 -1 261 -3
356 -5z m156 -417 c37 -14 48 -42 39 -97 -12 -71 -17 -72 -410 -72 l-333 -1 0
90 0 90 339 0 c191 0 351 -4 365 -10z"/>
<path d="M4322 3933 c3 -16 20 -18 193 -18 l190 0 3 -72 3 -73 -336 0 c-291 0
-335 -2 -335 -15 0 -13 47 -15 360 -15 l360 0 0 105 0 105 -221 0 c-205 0
-220 -1 -217 -17z"/>
<path d="M6490 3580 l0 -121 178 1 c97 0 185 1 195 0 16 0 17 -19 17 -250 0
-156 -4 -258 -11 -272 -16 -36 -54 -58 -117 -68 -75 -13 -411 -13 -487 0 -74
12 -114 47 -122 108 -3 23 -11 43 -17 43 -50 5 -388 4 -397 -2 -8 -4 -10 -35
-7 -91 8 -152 61 -223 203 -271 94 -32 218 -39 650 -35 353 4 429 7 478 21
136 39 217 107 236 199 7 30 11 207 11 453 l0 405 -405 0 -405 0 0 -120z"/>
<path d="M7340 3630 l0 -70 220 0 c189 0 220 2 220 15 0 13 -28 15 -195 15
l-195 0 0 55 c0 52 -1 55 -25 55 -24 0 -25 -2 -25 -70z"/>
<path d="M4040 3600 c0 -20 6 -20 335 -20 l335 0 0 -70 0 -70 -195 0 c-167 0
-195 -2 -195 -15 0 -13 31 -15 220 -15 l221 0 -3 103 -3 102 -357 3 c-353 2
-358 2 -358 -18z"/>
<path d="M7340 3295 l0 -105 360 0 c313 0 360 2 360 15 0 13 -44 15 -335 15
l-335 0 0 75 0 75 195 0 c167 0 195 2 195 15 0 13 -31 15 -220 15 l-220 0 0
-105z"/>
<path d="M4320 3265 c0 -13 28 -15 195 -15 l195 0 0 -60 c0 -57 1 -60 25 -60
24 0 25 2 25 75 l0 75 -220 0 c-189 0 -220 -2 -220 -15z"/>
<path d="M7340 2950 c0 -60 2 -110 5 -110 2 0 13 10 25 22 16 18 20 35 20 95
l0 73 335 0 c291 0 335 2 335 15 0 13 -47 15 -360 15 l-360 0 0 -110z"/>
<path d="M6580 2246 c0 -2 7 -7 16 -10 8 -3 12 -2 9 4 -6 10 -25 14 -25 6z"/>
</g>
</svg>
