<?xml version="1.0" encoding="UTF-8"?>
<svg width="155.18" height="47.17" viewBox="30.06 77.82 155.18 47.17" version="1.1" xmlns="http://www.w3.org/2000/svg">
<path d="M0 0 C0 1.65 0 3.3 0 5 C0.89203125 4.89300781 1.7840625 4.78601563 2.703125 4.67578125 C3.87359375 4.55589844 5.0440625 4.43601562 6.25 4.3125 C7.41015625 4.18488281 8.5703125 4.05726562 9.765625 3.92578125 C13.32466794 4.00745011 14.48177725 4.57527562 17 7 C17.66 6.34 18.32 5.68 19 5 C21.05859375 4.734375 21.05859375 4.734375 23.4375 4.75 C24.61119141 4.74226563 24.61119141 4.74226563 25.80859375 4.734375 C28 5 28 5 31 7 C31.29296875 9.6015625 31.29296875 9.6015625 31.1875 12.625 C31.14689453 14.12933594 31.14689453 14.12933594 31.10546875 15.6640625 C31.07066406 16.43492188 31.03585938 17.20578125 31 18 C26.52939539 20.0006148 23.82898634 20.0933554 19 19 C18.01 18.01 18.01 18.01 17 17 C16.67 17.66 16.34 18.32 16 19 C5.44 19 -5.12 19 -16 19 C-16.495 18.01 -16.495 18.01 -17 17 C-17.680625 17.515625 -18.36125 18.03125 -19.0625 18.5625 C-22.92635729 20.45332378 -24.90081728 20.19248952 -29 19 C-31.4375 16.5625 -31.4375 16.5625 -33 14 C-33 13.34 -33 12.68 -33 12 C-33.66 12.33 -34.32 12.66 -35 13 C-35.33 14.98 -35.66 16.96 -36 19 C-43.26 19 -50.52 19 -58 19 C-58.66 17.68 -59.32 16.36 -60 15 C-60.33 16.32 -60.66 17.64 -61 19 C-64.72775668 19.347067 -68.28287669 19.51197107 -72 19 C-74.8125 16.375 -74.8125 16.375 -76 13 C-75.4375 9.75 -75.4375 9.75 -74 7 C-70.22364747 4.48243165 -67.43634442 4.36227549 -63 5 C-61 6.5 -61 6.5 -60 8 C-59.67 7.01 -59.34 6.02 -59 5 C-57.6996582 5.00785522 -57.6996582 5.00785522 -56.37304688 5.01586914 C-53.1227239 5.03302411 -49.87242419 5.04550486 -46.62207031 5.05493164 C-45.22167191 5.05992616 -43.82127863 5.06672408 -42.42089844 5.07543945 C-33.28148222 5.20120837 -33.28148222 5.20120837 -24.1875 4.4375 C-20.91249974 3.98799016 -19.66285647 4.11381 -17 6 C-16.67 4.02 -16.34 2.04 -16 0 C-13 0 -10 0 -7 0 C-5.7625 -0.2784375 -5.7625 -0.2784375 -4.5 -0.5625 C-2 -1 -2 -1 0 0 Z M-9 7 C-8 11 -8 11 -8 11 Z M-9 14 C-8 17 -8 17 -8 17 Z " fill="#33779E" transform="translate(151,95)"/>
<path d="M0 0 C1.875 1.125 1.875 1.125 3 3 C3.62884443 7.04257135 3.12985072 8.76626871 1.125 12.375 C0.073125 13.674375 0.073125 13.674375 -1 15 C-1.66 15 -2.32 15 -3 15 C-3 15.66 -3 16.32 -3 17 C-3.7425 17.33 -4.485 17.66 -5.25 18 C-8.39062855 20.28409349 -8.73462258 21.43205056 -10 25 C-11.58879574 29.43325263 -12.72337521 30.86168761 -17 33 C-17.639375 34.010625 -18.27875 35.02125 -18.9375 36.0625 C-21 39 -21 39 -24 40.5 C-27 41 -27 41 -29.3125 40.5 C-31 39 -31 39 -32 36.1875 C-32 33 -32 33 -30.4375 30.25 C-27.71416239 27.7361499 -25.56581457 26.89145364 -22 26 C-25.00685978 26.48252728 -27.98774306 26.9973516 -30.96484375 27.640625 C-37.42849317 28.96563066 -41.31665558 29.55209027 -47 26 C-50.20784809 23.63632246 -50.89488166 22.39244179 -51.9375 18.5 C-52 15 -52 15 -50.6875 12.5625 C-49 11 -49 11 -47 11 C-47 10.34 -47 9.68 -47 9 C-42.17602772 6.42721478 -37.31955724 6.2577362 -32 7 C-24.91937759 9.36020747 -19.85069867 13.4265151 -15 19 C-14.96261719 18.34773438 -14.92523438 17.69546875 -14.88671875 17.0234375 C-14.49042666 11.75508388 -14.05601467 7.47487863 -11 3 C-7.39637838 0.07814463 -4.59860228 -0.59981769 0 0 Z M-45 11 C-45.33 11.99 -45.66 12.98 -46 14 C-44.68 13.67 -43.36 13.34 -42 13 C-42 12.34 -42 11.68 -42 11 C-42.99 11 -43.98 11 -45 11 Z " fill="#30779A" transform="translate(85,81)"/>
<path d="M0 0 C0 1.65 0 3.3 0 5 C0.89203125 4.89300781 1.7840625 4.78601563 2.703125 4.67578125 C3.87359375 4.55589844 5.0440625 4.43601562 6.25 4.3125 C7.41015625 4.18488281 8.5703125 4.05726562 9.765625 3.92578125 C13.32466794 4.00745011 14.48177725 4.57527562 17 7 C17.66 6.34 18.32 5.68 19 5 C21.05859375 4.734375 21.05859375 4.734375 23.4375 4.75 C24.61119141 4.74226563 24.61119141 4.74226563 25.80859375 4.734375 C28 5 28 5 31 7 C31.29296875 9.6015625 31.29296875 9.6015625 31.1875 12.625 C31.14689453 14.12933594 31.14689453 14.12933594 31.10546875 15.6640625 C31.07066406 16.43492188 31.03585938 17.20578125 31 18 C26.52939539 20.0006148 23.82898634 20.0933554 19 19 C18.34 18.34 17.68 17.68 17 17 C16.67 17.66 16.34 18.32 16 19 C5.44 19 -5.12 19 -16 19 C-16 15.7 -16 12.4 -16 9 C-16.32822679 6.66594286 -16.65986539 4.3323516 -17 2 C-16.67 1.34 -16.34 0.68 -16 0 C-13 0 -10 0 -7 0 C-6.175 -0.185625 -5.35 -0.37125 -4.5 -0.5625 C-2 -1 -2 -1 0 0 Z M-9 7 C-8 11 -8 11 -8 11 Z M-9 14 C-8 17 -8 17 -8 17 Z " fill="#204A6A" transform="translate(151,95)"/>
<path d="M0 0 C3.25967985 1.71752119 4.40417677 2.54376516 6.5 5.6875 C5.63375 5.955625 4.7675 6.22375 3.875 6.5 C0.4879199 7.59222586 0.4879199 7.59222586 -2.5 9.3125 C-5.79384598 10.82217941 -7.92638728 10.84993694 -11.5 10.6875 C-12.49 11.1825 -12.49 11.1825 -13.5 11.6875 C-17.0625 11.8125 -17.0625 11.8125 -20.5 11.6875 C-20.83 11.3575 -21.16 11.0275 -21.5 10.6875 C-22.49 12.1725 -22.49 12.1725 -23.5 13.6875 C-25.82409827 7.44913095 -25.82409827 7.44913095 -24.25 3.75 C-23.38375 2.7290625 -23.38375 2.7290625 -22.5 1.6875 C-21.84 1.6875 -21.18 1.6875 -20.5 1.6875 C-20.5 1.0275 -20.5 0.3675 -20.5 -0.3125 C-13.74735476 -3.91391079 -6.70860247 -3.22323592 0 0 Z M-18.5 1.6875 C-18.83 2.6775 -19.16 3.6675 -19.5 4.6875 C-18.18 4.3575 -16.86 4.0275 -15.5 3.6875 C-15.5 3.0275 -15.5 2.3675 -15.5 1.6875 C-16.49 1.6875 -17.48 1.6875 -18.5 1.6875 Z " fill="#538FBF" transform="translate(58.5,90.3125)"/>
<path d="M0 0 C0.84172676 2.35683494 1.10948624 3.6386954 0.375 6.0625 C-1 8 -1 8 -3.375 9.375 C-6.23845171 10.88307996 -6.23845171 10.88307996 -7.9375 14.0625 C-10 17 -10 17 -13 18.5 C-16 19 -16 19 -18.3125 18.5 C-20 17 -20 17 -21 14.1875 C-21 11 -21 11 -19.4375 8.25 C-16.71416239 5.7361499 -14.56581457 4.89145364 -11 4 C-14.00685978 4.48252728 -16.98774306 4.9973516 -19.96484375 5.640625 C-26.38582932 6.95688485 -30.35227266 7.56052376 -36 4 C-36.66 3.01 -37.32 2.02 -38 1 C-35.13275314 1.57344937 -34.1385485 1.8614515 -32 4 C-26.42633502 4.34835406 -20.47623944 4.1120333 -15 3 C-14.67 2.34 -14.34 1.68 -14 1 C-12.73542969 1.14308594 -12.73542969 1.14308594 -11.4453125 1.2890625 C-10.34960938 1.39992188 -9.25390625 1.51078125 -8.125 1.625 C-7.03445312 1.74101563 -5.94390625 1.85703125 -4.8203125 1.9765625 C-3.42425781 1.98816406 -3.42425781 1.98816406 -2 2 C-1.34 1.34 -0.68 0.68 0 0 Z " fill="#367697" transform="translate(74,103)"/>
<path d="M0 0 C1.4540625 0.0309375 1.4540625 0.0309375 2.9375 0.0625 C3.081875 0.825625 3.22625 1.58875 3.375 2.375 C3.9007594 5.14422908 3.9007594 5.14422908 4.9375 8.0625 C4.03 8.165625 3.1225 8.26875 2.1875 8.375 C-1.31241199 8.85872767 -4.64989366 9.71611489 -8.0625 10.625 C-12.59306464 11.77606962 -16.40985282 12.65645496 -21.0625 12.0625 C-22.8125 10.625 -22.8125 10.625 -24.0625 9.0625 C-25.0525 8.7325 -26.0425 8.4025 -27.0625 8.0625 C-26.7325 6.7425 -26.4025 5.4225 -26.0625 4.0625 C-25.7325 4.3925 -25.4025 4.7225 -25.0625 5.0625 C-21.39905389 5.19818319 -18.55634279 5.22711426 -15.0625 4.0625 C-13.9178125 4.124375 -13.9178125 4.124375 -12.75 4.1875 C-7.71156933 3.95315439 -4.74045132 0.0967439 0 0 Z " fill="#2B80B2" transform="translate(63.0625,95.9375)"/>
<path d="M0 0 C2.4375 1.0625 2.4375 1.0625 4 3 C4.5625 6.5 4.5625 6.5 4 10 C1.60259082 11.95578117 0.12413392 13 -3 13 C-3 12.34 -3 11.68 -3 11 C-3.969375 10.690625 -4.93875 10.38125 -5.9375 10.0625 C-9 9 -9 9 -10 8 C-10.25 5.0625 -10.25 5.0625 -10 2 C-6.28986601 -0.47342266 -4.38939738 -0.38503486 0 0 Z " fill="#2C79A4" transform="translate(130,102)"/>
<path d="M0 0 C-1.02815904 3.31295691 -2.00945204 4.0051041 -5.125 5.6875 C-9.03570217 7.20238253 -12.8369746 7.63482233 -17 8 C-17 8.66 -17 9.32 -17 10 C-17.66 10 -18.32 10 -19 10 C-19.33 11.32 -19.66 12.64 -20 14 C-22.32409827 7.76163095 -22.32409827 7.76163095 -20.75 4.0625 C-19.88375 3.0415625 -19.88375 3.0415625 -19 2 C-18.34 2 -17.68 2 -17 2 C-17 1.34 -17 0.68 -17 0 C-11.41615387 -1.86128204 -5.68852856 -1.13770571 0 0 Z M-15 2 C-15.33 2.99 -15.66 3.98 -16 5 C-14.68 4.67 -13.36 4.34 -12 4 C-12 3.34 -12 2.68 -12 2 C-12.99 2 -13.98 2 -15 2 Z " fill="#5A8FAC" transform="translate(55,90)"/>
<path d="M0 0 C1.25 2.6875 1.25 2.6875 2 6 C0.8125 8.875 0.8125 8.875 -2 11 C-5.70312731 11.41972318 -9.2899857 11.28784594 -13 11 C-13.296875 6.34375 -13.296875 6.34375 -10.625 3.25 C-6.81088496 -0.01924146 -4.95565556 -0.10773164 0 0 Z " fill="#6498C3" transform="translate(85,81)"/>
<path d="M0 0 C0.125 3.625 0.125 3.625 0 7 C-0.66 6.67 -1.32 6.34 -2 6 C-2.268125 5.030625 -2.53625 4.06125 -2.8125 3.0625 C-3.69360946 -0.20646204 -3.69360946 -0.20646204 -6.625 -1.375 C-7.40875 -1.58125 -8.1925 -1.7875 -9 -2 C-9.33 -1.34 -9.66 -0.68 -10 0 C-10 -0.66 -10 -1.32 -10 -2 C-11.65 -1.34 -13.3 -0.68 -15 0 C-15 1.98 -15 3.96 -15 6 C-13.02 6.99 -11.04 7.98 -9 9 C-9.33 9.66 -9.66 10.32 -10 11 C-13.88862987 9.73882275 -15.89375599 8.54735833 -18 5 C-18 4.34 -18 3.68 -18 3 C-18.99 3.495 -18.99 3.495 -20 4 C-20.65772428 7.02934491 -20.65772428 7.02934491 -21 10 C-23.31 10 -25.62 10 -28 10 C-28 9.67 -28 9.34 -28 9 C-26.35 8.67 -24.7 8.34 -23 8 C-22.71125 6.906875 -22.4225 5.81375 -22.125 4.6875 C-21 1 -21 1 -19 -2 C-19.66 -2 -20.32 -2 -21 -2 C-21 -2.66 -21 -3.32 -21 -4 C-18.77308629 -4.25011345 -16.54324878 -4.47428352 -14.3125 -4.6875 C-13.07113281 -4.81511719 -11.82976562 -4.94273438 -10.55078125 -5.07421875 C-5.69606007 -4.97274493 -3.35916034 -3.35916034 0 0 Z " fill="#37728B" transform="translate(136,104)"/>
<path d="M0 0 C5.625 -0.25 5.625 -0.25 9 2 C7.33333333 5.33333333 5.66666667 8.66666667 4 12 C2.0625 10.9375 2.0625 10.9375 0 9 C-1.40963855 2.81927711 -1.40963855 2.81927711 0 0 Z " fill="#2E7EAB" transform="translate(108,100)"/>
<path d="M0 0 C1.65 0 3.3 0 5 0 C5 1.65 5 3.3 5 5 C3.02 5.99 3.02 5.99 1 7 C1 7.66 1 8.32 1 9 C-0.98 9 -2.96 9 -5 9 C-5 7.68 -5 6.36 -5 5 C-4.01 4.67 -3.02 4.34 -2 4 C-0.79117904 1.99983534 -0.79117904 1.99983534 0 0 Z " fill="#2F81AF" transform="translate(60,110)"/>
<path d="M0 0 C-3.08567663 3.08567663 -5.83583431 3.97717322 -10.1875 4.0625 C-11.115625 4.041875 -12.04375 4.02125 -13 4 C-13.99 4.495 -13.99 4.495 -15 5 C-17.3329866 5.04022391 -19.66706666 5.04320247 -22 5 C-22 4.01 -22 3.02 -22 2 C-20.1746875 1.7834375 -20.1746875 1.7834375 -18.3125 1.5625 C-15.17038538 1.17111379 -12.10239819 0.63638937 -9 0 C-2.27848101 -1.13924051 -2.27848101 -1.13924051 0 0 Z " fill="#3E88BD" transform="translate(60,97)"/>
<path d="M0 0 C0 1.32 0 2.64 0 4 C-1.32 4.33 -2.64 4.66 -4 5 C-4 5.99 -4 6.98 -4 8 C-4.66 8.66 -5.32 9.32 -6 10 C-6.6425235 12.06874034 -6.6425235 12.06874034 -7 14 C-7.66 13.67 -8.32 13.34 -9 13 C-8.67 9.04 -8.34 5.08 -8 1 C-2.25 -1.125 -2.25 -1.125 0 0 Z " fill="#1D3D58" transform="translate(151,95)"/>
<path d="M0 0 C4.8333472 -0.08333357 9.23692563 0.04738513 14 1 C13.00269864 3.4932534 12.34925469 4.77467439 10.0625 6.25 C8 7 8 7 5 7 C4.67 6.01 4.34 5.02 4 4 C3.01 3.67 2.02 3.34 1 3 C0.67 2.01 0.34 1.02 0 0 Z " fill="#6A9FC7" transform="translate(41,89)"/>
<path d="M0 0 C2.31 0 4.62 0 7 0 C7 1.65 7 3.3 7 5 C5.35 4.67 3.7 4.34 2 4 C2.33 8.62 2.66 13.24 3 18 C2.01 18.33 1.02 18.66 0 19 C0.01740234 18.03900391 0.01740234 18.03900391 0.03515625 17.05859375 C0.07768963 12.98146537 0.10222914 9.03098569 -0.5625 5 C-1 2 -1 2 0 0 Z " fill="#1C435E" transform="translate(135,95)"/>
<path d="M0 0 C1.32 0.33 2.64 0.66 4 1 C5 7.625 5 7.625 5 11 C2.625 11.1875 2.625 11.1875 0 11 C-2 8 -2 8 -1.7578125 5.95703125 C-1.171875 3.97135417 -0.5859375 1.98567708 0 0 Z " fill="#317DAA" transform="translate(93,101)"/>
<path d="M0 0 C0 1.65 0 3.3 0 5 C-1.32 5.33 -2.64 5.66 -4 6 C-4 7.32 -4 8.64 -4 10 C0.455 9.505 0.455 9.505 5 9 C5 9.66 5 10.32 5 11 C-0.27308448 13.15717092 -0.27308448 13.15717092 -3.3125 12.5 C-5 11 -5 11 -6 8.1875 C-6 5 -6 5 -4.1875 2.125 C-2 0 -2 0 0 0 Z " fill="#4F7589" transform="translate(59,109)"/>
<path d="M0 0 C0.99 0 1.98 0 3 0 C2.814375 0.94875 2.62875 1.8975 2.4375 2.875 C1.71313368 5.89868793 1.71313368 5.89868793 3 8 C0.03 7.505 0.03 7.505 -3 7 C-3 7.66 -3 8.32 -3 9 C-3.99 8.67 -4.98 8.34 -6 8 C-6.33 6.35 -6.66 4.7 -7 3 C-3.98968256 2.06576355 -3.13349732 1.95550089 0 3 C0 2.01 0 1.02 0 0 Z " fill="#2B80AD" transform="translate(85,103)"/>
<path d="M0 0 C0 0.99 0 1.98 0 3 C-0.66 3 -1.32 3 -2 3 C-2 3.66 -2 4.32 -2 5 C-2.66 5 -3.32 5 -4 5 C-4 5.66 -4 6.32 -4 7 C-6.31 7.66 -8.62 8.32 -11 9 C-11 6.69 -11 4.38 -11 2 C-10.28972656 1.93941406 -9.57945313 1.87882812 -8.84765625 1.81640625 C-7.46900391 1.69072266 -7.46900391 1.69072266 -6.0625 1.5625 C-5.14597656 1.48128906 -4.22945313 1.40007812 -3.28515625 1.31640625 C-1.03840268 1.23955024 -1.03840268 1.23955024 0 0 Z " fill="#3382B3" transform="translate(84,90)"/>
<path d="M0 0 C1.7074998 1.28062485 3.37373596 2.61767557 5 4 C5 4.66 5 5.32 5 6 C4.34 6 3.68 6 3 6 C3 7.32 3 8.64 3 10 C0.39417629 10.93065133 -0.64198224 11.14917407 -3.25 10.0625 C-3.8275 9.711875 -4.405 9.36125 -5 9 C-4.01 9 -3.02 9 -2 9 C-2 6.36 -2 3.72 -2 1 C-1.34 0.67 -0.68 0.34 0 0 Z " fill="#154A6D" transform="translate(159,103)"/>
<path d="M0 0 C2 2 2 2 2.125 5.625 C2.08375 6.73875 2.0425 7.8525 2 9 C1.34 8.67 0.68 8.34 0 8 C-0.4021875 6.5459375 -0.4021875 6.5459375 -0.8125 5.0625 C-1.69360946 1.79353796 -1.69360946 1.79353796 -4.625 0.625 C-5.40875 0.41875 -6.1925 0.2125 -7 0 C-7.33 0.66 -7.66 1.32 -8 2 C-8 1.34 -8 0.68 -8 0 C-9.98 0.33 -11.96 0.66 -14 1 C-12 -2 -12 -2 -8.6875 -2.875 C-4.5972249 -3.01365339 -3.184711 -2.45677706 0 0 Z " fill="#2C6987" transform="translate(134,102)"/>
<path d="M0 0 C0.763125 0.515625 1.52625 1.03125 2.3125 1.5625 C3.199375 2.036875 4.08625 2.51125 5 3 C5.99 2.67 6.98 2.34 8 2 C7.5359375 2.8353125 7.5359375 2.8353125 7.0625 3.6875 C5.93362221 6.1444693 5.46487916 8.34354764 5 11 C4.67516582 12.33542939 4.3449145 13.66961551 4 15 C2.68 14.34 1.36 13.68 0 13 C0.99 10.36 1.98 7.72 3 5 C2.01 4.67 1.02 4.34 0 4 C0 2.68 0 1.36 0 0 Z " fill="#19405C" transform="translate(163,99)"/>
<path d="M0 0 C7.74673273 -0.74170845 13.51754221 0.57447593 20 5 C20.99 6.485 20.99 6.485 22 8 C19.6875 8.25 19.6875 8.25 17 8 C15.375 6 15.375 6 14 4 C13.01 4 12.02 4 11 4 C11.33 3.34 11.66 2.68 12 2 C8.04 2 4.08 2 0 2 C0 1.34 0 0.68 0 0 Z " fill="#5D829D" transform="translate(43,88)"/>
<path d="M0 0 C1.98 0 3.96 0 6 0 C5.20146425 4.7912145 3.68305625 7.97541562 1 12 C0 11 0 11 -0.09765625 8.49609375 C-0.08605469 7.48675781 -0.07445312 6.47742188 -0.0625 5.4375 C-0.05347656 4.42558594 -0.04445312 3.41367188 -0.03515625 2.37109375 C-0.02355469 1.58863281 -0.01195312 0.80617188 0 0 Z " fill="#174E72" transform="translate(137,99)"/>
<path d="M0 0 C0.99 0.66 1.98 1.32 3 2 C3.63952286 6.01985797 3.11717953 7.78907685 1.125 11.375 C0.42375 12.24125 -0.2775 13.1075 -1 14 C-1.66 14 -2.32 14 -3 14 C-3 14.66 -3 15.32 -3 16 C-4.98 16.33 -6.96 16.66 -9 17 C-8.67 16.34 -8.34 15.68 -8 15 C-7.01 15 -6.02 15 -5 15 C-5 14.34 -5 13.68 -5 13 C-4.34 13 -3.68 13 -3 13 C-3 12.34 -3 11.68 -3 11 C-2.34 10.67 -1.68 10.34 -1 10 C0.55203911 6.3241179 1.46534385 3.80989402 0 0 Z " fill="#4A7B98" transform="translate(85,82)"/>
<path d="M0 0 C0 2.64 0 5.28 0 8 C-1.65 8 -3.3 8 -5 8 C-6.125 3.25 -6.125 3.25 -5 1 C-2 0 -2 0 0 0 Z " fill="#174B6F" transform="translate(173,104)"/>
<path d="M0 0 C1.98 0.495 1.98 0.495 4 1 C4 4.63 4 8.26 4 12 C3.01 12.33 2.02 12.66 1 13 C1 11.68 1 10.36 1 9 C0.34 8.67 -0.32 8.34 -1 8 C-0.34 7.34 0.32 6.68 1 6 C0.67801034 2.90073181 0.67801034 2.90073181 0 0 Z " fill="#294357" transform="translate(178,101)"/>
<path d="M0 0 C1.32 0 2.64 0 4 0 C4 0.66 4 1.32 4 2 C3.34 2 2.68 2 2 2 C2 2.66 2 3.32 2 4 C3.32 4 4.64 4 6 4 C6 4.66 6 5.32 6 6 C-0.0546875 6.9765625 -0.0546875 6.9765625 -2 7 C-2.66 6.34 -3.32 5.68 -4 5 C-3.34 4.01 -2.68 3.02 -2 2 C-1.34 2 -0.68 2 0 2 C0 1.34 0 0.68 0 0 Z " fill="#758F9C" transform="translate(38,90)"/>
<path d="M0 0 C0 0.99 0 1.98 0 3 C-6.625 6.125 -6.625 6.125 -10 5 C-7.05274682 0.64929292 -5.38362365 0 0 0 Z " fill="#81A8C7" transform="translate(85,82)"/>
<path d="M0 0 C0.4846875 0.44472656 0.969375 0.88945313 1.46875 1.34765625 C5.40901969 4.8096931 5.40901969 4.8096931 10.3125 6.17578125 C12.73865587 5.88235021 12.73865587 5.88235021 16 5 C16.33 5.66 16.66 6.32 17 7 C13.30516081 8.18234854 9.85646386 8.2804701 6 8 C4.25 6.5625 4.25 6.5625 3 5 C2.01 4.67 1.02 4.34 0 4 C0 2.68 0 1.36 0 0 Z " fill="#2F7DA5" transform="translate(36,100)"/>
<path d="M0 0 C2.97 0 5.94 0 9 0 C7.515 1.485 7.515 1.485 6 3 C5.67 3.99 5.34 4.98 5 6 C4.34 6 3.68 6 3 6 C3 5.34 3 4.68 3 4 C1.68 4.33 0.36 4.66 -1 5 C-0.67 3.35 -0.34 1.7 0 0 Z " fill="#254C6C" transform="translate(170,100)"/>
<path d="M0 0 C2.375 0.3125 2.375 0.3125 5 1 C5.66 1.99 6.32 2.98 7 4 C6.67 4.99 6.34 5.98 6 7 C3.9375 7.6875 3.9375 7.6875 2 8 C1.33333333 5.33333333 0.66666667 2.66666667 0 0 Z " fill="#2B80AD" transform="translate(127,102)"/>
<path d="M0 0 C1.0326802 2.78823655 1.04509293 3.8677274 0.0625 6.75 C-0.288125 7.4925 -0.63875 8.235 -1 9 C-2.32 9 -3.64 9 -5 9 C-5 7.68 -5 6.36 -5 5 C-4.01 4.67 -3.02 4.34 -2 4 C-0.79117904 1.99983534 -0.79117904 1.99983534 0 0 Z " fill="#4A8BB6" transform="translate(60,110)"/>
<path d="M0 0 C0.66 0 1.32 0 2 0 C3.25 6.625 3.25 6.625 1 10 C-0.32 9.67 -1.64 9.34 -3 9 C-2.34 8.67 -1.68 8.34 -1 8 C-1.020625 7.05125 -1.04125 6.1025 -1.0625 5.125 C-1 2 -1 2 0 0 Z " fill="#26779F" transform="translate(98,103)"/>
<path d="M0 0 C2.86724686 0.57344937 3.8614515 0.8614515 6 3 C8.89223503 3.46396693 8.89223503 3.46396693 12.125 3.625 C13.76855469 3.73714844 13.76855469 3.73714844 15.4453125 3.8515625 C16.70988281 3.92503906 16.70988281 3.92503906 18 4 C18 4.33 18 4.66 18 5 C11.67275871 6.19084133 7.66001184 6.23429248 2 3 C1.34 2.01 0.68 1.02 0 0 Z " fill="#426F88" transform="translate(36,104)"/>
<path d="M0 0 C4.62 0 9.24 0 14 0 C14 0.66 14 1.32 14 2 C12.329375 2.2165625 12.329375 2.2165625 10.625 2.4375 C7.17857953 2.78372035 7.17857953 2.78372035 5 4 C4.67 3.34 4.34 2.68 4 2 C3.01 1.67 2.02 1.34 1 1 C0.67 2.32 0.34 3.64 0 5 C0 3.35 0 1.7 0 0 Z " fill="#397091" transform="translate(92,100)"/>
<path d="M0 0 C-2.03017447 1.01508723 -4.04780015 2.0210883 -6.125 2.9375 C-8.32357759 3.99740267 -8.32357759 3.99740267 -10 7 C-10.66 7 -11.32 7 -12 7 C-12.33 8.32 -12.66 9.64 -13 11 C-13.3125 8.8125 -13.3125 8.8125 -13 6 C-8.67678592 0.99417317 -6.50152543 -0.14133751 0 0 Z " fill="#6D879B" transform="translate(85,81)"/>
<path d="M0 0 C2.39763185 2.39763185 2.34280586 3.33273498 2.625 6.625 C2.69976562 7.44226563 2.77453125 8.25953125 2.8515625 9.1015625 C2.90054688 9.72804688 2.94953125 10.35453125 3 11 C2.01 11.33 1.02 11.66 0 12 C-0.92844389 7.66726186 -0.92844389 4.33273814 0 0 Z " fill="#3A738F" transform="translate(71,90)"/>
<path d="M0 0 C0.99 0 1.98 0 3 0 C3 1.32 3 2.64 3 4 C2.34 4 1.68 4 1 4 C1.33 5.32 1.66 6.64 2 8 C0.68 7.34 -0.64 6.68 -2 6 C-1.34 4.02 -0.68 2.04 0 0 Z " fill="#2B78B3" transform="translate(93,104)"/>
<path d="M0 0 C0.99 0.33 1.98 0.66 3 1 C2.0625 3 2.0625 3 0 5 C-3.02534949 5.36475845 -5.96663814 5.22893297 -9 5 C-9 4.67 -9 4.34 -9 4 C-7.88625 3.71125 -6.7725 3.4225 -5.625 3.125 C-1.99708908 2.30758671 -1.99708908 2.30758671 0 0 Z " fill="#4C90C2" transform="translate(83,87)"/>
<path d="M0 0 C2.97 0.495 2.97 0.495 6 1 C5.67 3.31 5.34 5.62 5 8 C2 4.25 2 4.25 2 2 C1.34 2 0.68 2 0 2 C0 1.34 0 0.68 0 0 Z " fill="#3B7499" transform="translate(115,100)"/>
<path d="M0 0 C1.98 0 3.96 0 6 0 C6 0.66 6 1.32 6 2 C3.69 3.32 1.38 4.64 -1 6 C-0.67 4.02 -0.34 2.04 0 0 Z " fill="#387A99" transform="translate(108,100)"/>
<path d="M0 0 C0.763125 0.515625 1.52625 1.03125 2.3125 1.5625 C3.199375 2.036875 4.08625 2.51125 5 3 C5.99 2.67 6.98 2.34 8 2 C7.67 2.99 7.34 3.98 7 5 C5.02 5 3.04 5 1 5 C0.67 3.35 0.34 1.7 0 0 Z " fill="#254055" transform="translate(163,99)"/>
<path d="M0 0 C0.93065133 2.60582371 1.14917407 3.64198224 0.0625 6.25 C-0.4634375 7.11625 -0.4634375 7.11625 -1 8 C-1.99 7.67 -2.98 7.34 -4 7 C-2.92598892 4.08482708 -2.22189824 2.22189824 0 0 Z " fill="#376D7F" transform="translate(74,103)"/>
<path d="M0 0 C1.9453125 -0.29296875 1.9453125 -0.29296875 4.125 -0.1875 C5.40375 -0.125625 6.6825 -0.06375 8 0 C8.33 0.66 8.66 1.32 9 2 C5.37 2.33 1.74 2.66 -2 3 C-1.34 2.01 -0.68 1.02 0 0 Z " fill="#37758F" transform="translate(80,100)"/>
<path d="M0 0 C0.33 0.66 0.66 1.32 1 2 C1.66 2.33 2.32 2.66 3 3 C1.35 4.65 -0.3 6.3 -2 8 C-2 4.23312136 -1.76462683 3.08809695 0 0 Z " fill="#274D6F" transform="translate(148,97)"/>
<path d="M0 0 C0 0.66 0 1.32 0 2 C-1.98 2.66 -3.96 3.32 -6 4 C-6.66 3.01 -7.32 2.02 -8 1 C-5.23735711 0.40267181 -2.83967231 0 0 0 Z " fill="#487795" transform="translate(64,118)"/>
<path d="M0 0 C0.66 0 1.32 0 2 0 C2.625 2.375 2.625 2.375 3 5 C2.34 5.66 1.68 6.32 1 7 C-0.32 6.34 -1.64 5.68 -3 5 C-2.01 5 -1.02 5 0 5 C0 3.35 0 1.7 0 0 Z " fill="#134460" transform="translate(157,107)"/>
<path d="M0 0 C2.125 0.375 2.125 0.375 4 1 C3.34 2.65 2.68 4.3 2 6 C0.68 4.68 -0.64 3.36 -2 2 C-1.34 1.34 -0.68 0.68 0 0 Z " fill="#2F738F" transform="translate(68,106)"/>
<path d="M0 0 C2.64 0 5.28 0 8 0 C8 0.99 8 1.98 8 3 C5.69 3 3.38 3 1 3 C0.67 2.01 0.34 1.02 0 0 Z " fill="#88A6BE" transform="translate(41,89)"/>
<path d="" fill="#000000" transform="translate(0,0)"/>
</svg>
