<?xml version="1.0" encoding="UTF-8"?>
<svg version="1.1" xmlns="http://www.w3.org/2000/svg" width="500" height="149">
<path d="M0 0 C5.92758404 -0.26541421 11.18237333 0.67981581 16.9375 2.0625 C17.85901855 2.28365479 18.78053711 2.50480957 19.72998047 2.73266602 C28.31369072 4.90125267 36.0902378 8.06716394 44 12 C44.98097656 12.47179688 45.96195313 12.94359375 46.97265625 13.4296875 C63.60437317 21.90109439 76.94401937 34.11824568 83.03515625 52.046875 C86.24019893 64.74778831 87.88131716 85.26904638 84 98 C83.34 98 82.68 98 82 98 C80.80859375 96.34765625 80.80859375 96.34765625 79.4375 94.0625 C75.3341494 87.69071233 70.10789641 81.0715118 63 78 C63.42410156 78.48726563 63.84820312 78.97453125 64.28515625 79.4765625 C68.16339813 84.16454719 71.25437858 88.96795715 74 94.375 C74.31461182 94.98166504 74.62922363 95.58833008 74.95336914 96.21337891 C77.12386881 100.62839358 77.12386881 100.62839358 76 104 C58.73956099 104.69869843 44.99507528 101.54975709 31.8125 90 C16.22852725 75.52418766 13.05985283 55.26603762 9.95117188 35.17382812 C8.31325595 24.96124264 5.69787921 15.62966785 2 6 C1.32322395 4.00339823 0.65272974 2.00459181 0 0 Z M62 29 C62.35191406 29.46148438 62.70382813 29.92296875 63.06640625 30.3984375 C67.18344359 35.83765655 71.11608752 41.39245772 75 47 C75.33 46.01 75.66 45.02 76 44 C74.48097759 41.3187438 74.48097759 41.3187438 72.3125 38.5625 C71.60738281 37.61503906 70.90226562 36.66757812 70.17578125 35.69140625 C68.22587642 33.27940548 66.31583211 31.06230944 64 29 C63.34 29 62.68 29 62 29 Z M76 47 C77 49 77 49 77 49 Z M77 49 C78 51 78 51 78 51 Z M78 51 C79 54 79 54 79 54 Z M79 55 C80 58 80 58 80 58 Z " fill="#A5DB1E" transform="translate(0,0)"/>
<path d="M0 0 C-1.33770162 3.51068171 -2.91004803 6.75595235 -4.6875 10.0625 C-7.50205399 15.58230491 -9.4901806 21.18729621 -11.4375 27.0625 C-15.83437281 40.06614579 -21.14134891 49.29861142 -33.26953125 56.3125 C-40.83468807 59.92570923 -51.00643633 60.66452122 -59 58 C-58.39665691 54.29496359 -56.77525763 52.14031852 -54.4375 49.25 C-53.47650391 48.05117187 -53.47650391 48.05117187 -52.49609375 46.828125 C-52.00238281 46.22484375 -51.50867188 45.6215625 -51 45 C-54.32717001 47.08915326 -56.95429167 48.95429167 -59.75 51.75 C-60.86375 52.86375 -60.86375 52.86375 -62 54 C-62.66 54 -63.32 54 -64 54 C-59.8563311 21.51420867 -59.8563311 21.51420867 -45.9375 10.25 C-31.71075084 1.08092543 -16.40126485 -0.34248581 0 0 Z " fill="#A5DB1F" transform="translate(168,43)"/>
<path d="M0 0 C0.66 -0.33 1.32 -0.66 2 -1 C6.9509132 -1.54317573 10.89488185 -1.52241949 15.4375 0.625 C20.04647814 4.89673583 21.17754539 8.78505634 21.43359375 14.94921875 C21.45077937 17.19524713 21.45160996 19.44145019 21.4375 21.6875 C21.4674707 23.39776367 21.4674707 23.39776367 21.49804688 25.14257812 C21.49740234 26.23376953 21.49675781 27.32496094 21.49609375 28.44921875 C21.49887329 29.93941528 21.49887329 29.93941528 21.50170898 31.4597168 C21 34 21 34 19.13305664 35.85864258 C17 37 17 37 14.375 36.8125 C12 36 12 36 10 34 C9.68115234 31.66162109 9.68115234 31.66162109 9.5859375 28.7734375 C9.52792969 27.2265625 9.52792969 27.2265625 9.46875 25.6484375 C9.4378125 24.56820312 9.406875 23.48796875 9.375 22.375 C9.31699219 20.74304688 9.31699219 20.74304688 9.2578125 19.078125 C9.16333753 16.38558835 9.07777569 13.69306243 9 11 C7.68 11 6.36 11 5 11 C4.9906543 11.64549805 4.98130859 12.29099609 4.97167969 12.95605469 C4.91790899 15.88813944 4.8342766 18.81864008 4.75 21.75 C4.72873047 23.27367187 4.72873047 23.27367187 4.70703125 24.828125 C4.46000686 32.33766647 4.46000686 32.33766647 2.1171875 35.7109375 C0 37 0 37 -2.625 36.875 C-5 36 -5 36 -7 34 C-7.31884766 31.56982422 -7.31884766 31.56982422 -7.4140625 28.5546875 C-7.45273437 27.47832031 -7.49140625 26.40195313 -7.53125 25.29296875 C-7.5621875 24.16503906 -7.593125 23.03710938 -7.625 21.875 C-7.66367187 20.73933594 -7.70234375 19.60367188 -7.7421875 18.43359375 C-7.83667601 15.62256044 -7.92223541 12.81153767 -8 10 C-9.32 10.33 -10.64 10.66 -12 11 C-12.0093457 11.64549805 -12.01869141 12.29099609 -12.02832031 12.95605469 C-12.08209101 15.88813944 -12.1657234 18.81864008 -12.25 21.75 C-12.27126953 23.27367187 -12.27126953 23.27367187 -12.29296875 24.828125 C-12.54010624 32.34110459 -12.54010624 32.34110459 -14.88671875 35.703125 C-17 37 -17 37 -19.5625 37 C-22.51770256 35.78760921 -23.34107806 34.69965792 -25 32 C-25.38818359 29.72924805 -25.38818359 29.72924805 -25.3984375 27.26171875 C-25.40230469 26.35873047 -25.40617187 25.45574219 -25.41015625 24.52539062 C-25.39855469 23.58888672 -25.38695312 22.65238281 -25.375 21.6875 C-25.38660156 20.76259766 -25.39820313 19.83769531 -25.41015625 18.88476562 C-25.38573286 13.15748138 -24.76905541 9.04245652 -22 4 C-15.31756339 -2.19347784 -8.6237719 -1.8864501 0 0 Z " fill="#A5DB22" transform="translate(400,97)"/>
<path d="M0 0 C4.60853797 0.72008406 8.67237409 2.31295939 13 4 C13 4.66 13 5.32 13 6 C13.66 6.33 14.32 6.66 15 7 C17.22117529 8.72758078 19.40852675 10.47846961 21.51953125 12.33984375 C24.40091891 14.99306546 24.40091891 14.99306546 27.9609375 16.40625 C30.72417293 17.21087028 31.74043645 18.61542561 33.5625 20.8125 C34.14128906 21.49957031 34.72007813 22.18664062 35.31640625 22.89453125 C36.9203625 24.90040693 38.47324382 26.93493465 40 29 C39.55527344 28.39671875 39.11054687 27.7934375 38.65234375 27.171875 C38.08644531 26.37265625 37.52054688 25.5734375 36.9375 24.75 C36.36902344 23.96109375 35.80054688 23.1721875 35.21484375 22.359375 C34 20 34 20 34.31640625 17.703125 C34.54199219 17.14109375 34.76757812 16.5790625 35 16 C45.12986053 25.23604931 49.34321707 36.53765095 51 50 C51.08789172 52.36727224 51.13057603 54.73656651 51.1328125 57.10546875 C51.13474609 59.07483398 51.13474609 59.07483398 51.13671875 61.08398438 C51.13462402 61.75776123 51.1325293 62.43153809 51.13037109 63.12573242 C51.12498666 65.19261926 51.13035234 67.25929144 51.13671875 69.32617188 C51.13542969 70.63521484 51.13414063 71.94425781 51.1328125 73.29296875 C51.13168457 74.4843042 51.13055664 75.67563965 51.12939453 76.90307617 C51.02213061 79.47032675 50.75819799 81.56239722 50 84 C49.34 84 48.68 84 48 84 C46.80859375 82.34765625 46.80859375 82.34765625 45.4375 80.0625 C41.37759901 73.74265412 36.26643627 68.17762418 30 64 C30.33 63.01 30.66 62.02 31 61 C31.96894446 45.96272731 29.41027805 35.13819293 20.86328125 22.8359375 C19 20 19 20 19 18 C18.01 17.67 17.02 17.34 16 17 C14.64613064 15.34997172 13.31321858 13.6825613 12 12 C11.01 11.34 10.02 10.68 9 10 C9 9.34 9 8.68 9 8 C8.01 7.67 7.02 7.34 6 7 C6 6.34 6 5.68 6 5 C5.195625 4.731875 4.39125 4.46375 3.5625 4.1875 C2.716875 3.795625 1.87125 3.40375 1 3 C0.67 2.01 0.34 1.02 0 0 Z M42 33 C43 35 43 35 43 35 Z M43 35 C44 37 44 37 44 37 Z M44 37 C45 40 45 40 45 40 Z M45 41 C46 44 46 44 46 44 Z " fill="#B4E534" transform="translate(34,14)"/>
<path d="M0 0 C1.45116211 -0.04350586 1.45116211 -0.04350586 2.93164062 -0.08789062 C4.32479492 -0.10045898 4.32479492 -0.10045898 5.74609375 -0.11328125 C6.59743896 -0.12786377 7.44878418 -0.14244629 8.32592773 -0.1574707 C10.5625 0.3125 10.5625 0.3125 12.37524414 2.17504883 C13.5625 4.3125 13.5625 4.3125 13.375 6.9375 C12.5625 9.3125 12.5625 9.3125 10.5625 11.3125 C8.69897461 11.61547852 8.69897461 11.61547852 6.46484375 11.69140625 C5.66369141 11.72556641 4.86253906 11.75972656 4.03710938 11.79492188 C3.19986328 11.82134766 2.36261719 11.84777344 1.5 11.875 C-3.89452273 11.57586739 -3.89452273 11.57586739 -8.4375 13.3125 C-8.47813832 14.97867115 -8.480221 16.64638095 -8.4375 18.3125 C-7.71304688 18.34988281 -6.98859375 18.38726562 -6.2421875 18.42578125 C0.9994371 18.91821172 6.39848966 19.63110151 11.375 25.3125 C14.60819951 29.74660219 14.92931699 32.90194944 14.5625 38.3125 C12.66922504 43.5715971 9.96466785 46.10258594 5.5625 49.3125 C1.40626053 50.69791316 -2.52082459 50.57622283 -6.875 50.625 C-7.73416016 50.65400391 -8.59332031 50.68300781 -9.47851562 50.71289062 C-15.7892142 50.77653615 -15.7892142 50.77653615 -19.03515625 48.453125 C-20.4375 46.3125 -20.4375 46.3125 -20.4375 43.75 C-19.17641596 40.67610766 -18.34432122 39.93958861 -15.4375 38.3125 C-12.5280673 37.80971274 -9.63522511 37.71054758 -6.6875 37.625 C-5.89472656 37.59083984 -5.10195312 37.55667969 -4.28515625 37.52148438 C-2.33642496 37.43930896 -0.38698638 37.37421955 1.5625 37.3125 C2.15320014 35.36646726 2.15320014 35.36646726 2.5625 33.3125 C0.76417393 31.51417393 -2.12576689 31.84003224 -4.5625 31.5625 C-10.65670201 30.65371549 -13.98426854 29.5721127 -18.4375 25.3125 C-21.38687259 20.93601164 -21.99801797 17.54400104 -21.4375 12.3125 C-17.62587832 1.72466199 -10.13119417 0.10084135 0 0 Z " fill="#887050" transform="translate(205.4375,83.6875)"/>
<path d="M0 0 C5.17715429 2.73617146 9.15478717 6.68701776 11.03125 12.31640625 C11.1516373 14.8671578 11.21928926 17.38984315 11.234375 19.94140625 C11.24007507 20.68471191 11.24577515 21.42801758 11.25164795 22.19384766 C11.26108425 23.76398296 11.26762649 25.33413795 11.27148438 26.90429688 C11.28121451 29.30764048 11.31225917 31.71013739 11.34375 34.11328125 C11.35027803 35.63931784 11.35552929 37.16536054 11.359375 38.69140625 C11.3717218 39.41021973 11.3840686 40.1290332 11.39678955 40.86962891 C11.37462032 45.82482383 11.37462032 45.82482383 9.66699219 48.26953125 C7.30839039 49.7790364 5.77254688 49.72760078 3.03125 49.31640625 C1.39819336 48.22631836 1.39819336 48.22631836 0.03125 46.31640625 C-0.33764648 43.19360352 -0.33764648 43.19360352 -0.33984375 39.3828125 C-0.3572256 37.9980444 -0.37480999 36.61327883 -0.39257812 35.22851562 C-0.40265062 33.05162902 -0.40624687 30.87490699 -0.40454102 28.69799805 C-0.40811582 26.59243978 -0.43547198 24.48814543 -0.46484375 22.3828125 C-0.46762329 20.49477905 -0.46762329 20.49477905 -0.47045898 18.56860352 C-0.71750092 15.25156515 -0.71750092 15.25156515 -2.80102539 12.86694336 C-4.95731823 10.98969444 -4.95731823 10.98969444 -8.15625 11.44140625 C-9.084375 11.73015625 -10.0125 12.01890625 -10.96875 12.31640625 C-12.43399674 15.24689974 -12.11554233 17.88347795 -12.14453125 21.15234375 C-12.16773034 22.54037973 -12.19184772 23.92840062 -12.21679688 25.31640625 C-12.25190389 27.50433445 -12.28125185 29.69170729 -12.29467773 31.87988281 C-12.31017457 33.99222005 -12.35038867 36.1029361 -12.39453125 38.21484375 C-12.40911377 39.47989746 -12.42369629 40.74495117 -12.4387207 42.04833984 C-12.96875 45.31640625 -12.96875 45.31640625 -14.80932617 47.76416016 C-16.96875 49.31640625 -16.96875 49.31640625 -20.09375 49.25390625 C-22.96875 48.31640625 -22.96875 48.31640625 -24.96875 45.31640625 C-25.40365992 41.01894177 -25.3828895 36.71149446 -25.39428711 32.39477539 C-25.40607765 30.28475075 -25.45515864 28.1777573 -25.50585938 26.06835938 C-25.60447827 17.879538 -24.94996126 11.07580533 -19.96875 4.31640625 C-14.6058529 -0.70766593 -6.9846992 -2.42524278 0 0 Z " fill="#886F4F" transform="translate(206.96875,27.68359375)"/>
<path d="M0 0 C3.0625 0.3125 3.0625 0.3125 4.72851562 1.56054688 C6.38948333 3.74193491 6.4434128 4.93595635 6.46875 7.65625 C6.49066406 8.49027344 6.51257813 9.32429688 6.53515625 10.18359375 C6.55338542 11.93619792 6.57161458 13.68880208 6.58984375 15.44140625 C6.61175781 16.27542969 6.63367188 17.10945313 6.65625 17.96875 C6.66333984 18.72994141 6.67042969 19.49113281 6.67773438 20.27539062 C7.1610977 22.83451729 8.05828768 23.70175268 10.0625 25.3125 C12.73015548 26.46848404 13.86124102 26.37000257 16.6875 25.5625 C19.34614637 24.40480617 19.34614637 24.40480617 21.0625 21.3125 C21.39490545 19.22087973 21.39490545 19.22087973 21.40625 16.93359375 C21.43589844 16.09505859 21.46554688 15.25652344 21.49609375 14.39257812 C21.54046268 12.62695559 21.58473308 10.86133057 21.62890625 9.09570312 C21.67337891 7.83983398 21.67337891 7.83983398 21.71875 6.55859375 C21.73744141 5.79216553 21.75613281 5.0257373 21.77539062 4.23608398 C22.0625 2.3125 22.0625 2.3125 24.0625 0.3125 C29.31932279 -0.24673647 29.31932279 -0.24673647 31.72964478 1.5670166 C33.38012441 3.72845525 33.44207425 4.85397792 33.45068359 7.55273438 C33.46014008 8.40371704 33.46959656 9.25469971 33.4793396 10.13146973 C33.47326691 11.04714722 33.46719421 11.96282471 33.4609375 12.90625 C33.46380768 13.84932007 33.46667786 14.79239014 33.46963501 15.76403809 C33.47167646 17.75789999 33.46614093 19.75178188 33.45361328 21.74560547 C33.43756089 24.80091044 33.45345933 27.85489252 33.47265625 30.91015625 C33.47067383 32.84635709 33.46683019 34.78255711 33.4609375 36.71875 C33.47004654 38.09226624 33.47004654 38.09226624 33.4793396 39.49353027 C33.46988312 40.34451294 33.46042664 41.19549561 33.45068359 42.07226562 C33.44829681 42.82044556 33.44591003 43.56862549 33.44345093 44.33947754 C32.95302281 46.87950469 32.11167619 47.77050701 30.0625 49.3125 C27 49.625 27 49.625 24.0625 49.3125 C21.56744038 46.81744038 21.70301624 45.63921112 21.4375 42.1875 C21.36273438 41.27742188 21.28796875 40.36734375 21.2109375 39.4296875 C21.13746094 38.38167969 21.13746094 38.38167969 21.0625 37.3125 C20.4334375 37.41949219 19.804375 37.52648437 19.15625 37.63671875 C13.1445868 38.47871375 8.29329352 38.69522391 3.0625 35.3125 C-1.0459558 31.48271853 -4.71806542 27.82972282 -5.08276367 21.98413086 C-5.10718589 19.07263521 -5.12315136 16.16160592 -5.125 13.25 C-5.13724609 12.23099609 -5.14949219 11.21199219 -5.16210938 10.16210938 C-5.16404297 9.18951172 -5.16597656 8.21691406 -5.16796875 7.21484375 C-5.17207764 6.32273193 -5.17618652 5.43062012 -5.18041992 4.51147461 C-4.78098695 0.89570299 -3.48592981 0.3708436 0 0 Z " fill="#A6DA21" transform="translate(226.9375,95.6875)"/>
<path d="M0 0 C4.67191946 3.36812798 8.42527446 7.59989872 10.6875 12.9375 C11.23497017 19.17865989 11.23497017 19.17865989 9.47338867 21.62036133 C7.15516993 23.33010707 5.66538073 23.36241271 2.80078125 23.44921875 C1.3940918 23.50239258 1.3940918 23.50239258 -0.04101562 23.55664062 C-1.01748047 23.57919922 -1.99394531 23.60175781 -3 23.625 C-4.48209961 23.67624023 -4.48209961 23.67624023 -5.99414062 23.72851562 C-8.43348053 23.81100538 -10.87246063 23.88015068 -13.3125 23.9375 C-8.21458331 24.79715843 -8.21458331 24.79715843 -3.125 24.25 C-0.3125 23.9375 -0.3125 23.9375 2.125 25.5625 C3.6875 27.9375 3.6875 27.9375 3.6875 30.5 C2.49206828 33.41386481 1.37796866 34.35487138 -1.3125 35.9375 C-6.68686709 37.7289557 -11.38044566 37.64926628 -16.5 35.3125 C-21.61620981 32.47797904 -25.04656199 28.34780132 -27.3125 22.9375 C-28.06693958 16.99996256 -27.72363561 11.99539073 -24.3125 6.9375 C-17.3297313 -0.96405406 -10.22974485 -3.28123892 0 0 Z M-12.3125 9.9375 C-12.6425 10.5975 -12.9725 11.2575 -13.3125 11.9375 C-10.0125 11.9375 -6.7125 11.9375 -3.3125 11.9375 C-5.26883975 9.52628141 -5.26883975 9.52628141 -8.9375 9.8125 C-10.608125 9.874375 -10.608125 9.874375 -12.3125 9.9375 Z " fill="#A6DA22" transform="translate(362.3125,97.0625)"/>
<path d="M0 0 C5.65481486 5.24104792 9.51448513 9.92735019 9.8984375 17.87890625 C9.92220371 19.56498695 9.93493146 21.25125377 9.9375 22.9375 C9.96199219 23.78763672 9.98648438 24.63777344 10.01171875 25.51367188 C10.03020911 29.44287415 10.03847967 31.67311386 7.79296875 34.984375 C5.23955173 36.57634779 4.38658789 36.70211003 1.5 36.0625 C-2.32469945 35.07368345 -2.32469945 35.07368345 -5.4375 36.375 C-11.77077362 36.9117181 -16.20114389 36.09983064 -21.4375 32.375 C-26.15350549 27.78175387 -28.59308765 24.41675973 -28.8125 17.75 C-28.76141345 11.66340204 -27.45748459 7.92075914 -23.4375 3.375 C-16.99936613 -2.60326717 -8.00014191 -3.78188526 0 0 Z M-17.4375 13.375 C-18.0760957 17.34848433 -18.10618361 19.39769318 -15.8125 22.75 C-12.85296447 24.77494536 -11.0323199 25.375 -7.4375 25.375 C-3.98066038 23.45453354 -2.71589086 22.19277316 -1.4375 18.4375 C-1.4375 14.80258706 -2.23788586 13.22635167 -4.4375 10.375 C-9.56690052 7.81029974 -13.80090962 9.20361692 -17.4375 13.375 Z " fill="#A6DA23" transform="translate(392.4375,40.625)"/>
<path d="M0 0 C5.38954461 3.08117355 8.62225136 7.14800408 10.59765625 13.07421875 C10.87624924 16.56950403 10.87496375 20.06904535 10.91015625 23.57421875 C10.93916016 24.53714844 10.96816406 25.50007813 10.99804688 26.4921875 C11.00642578 27.41644531 11.01480469 28.34070313 11.0234375 29.29296875 C11.03802002 30.13794922 11.05260254 30.98292969 11.06762695 31.85351562 C10.59765625 34.07421875 10.59765625 34.07421875 8.69824219 35.87060547 C6.22949404 37.28517176 5.27768541 37.25934995 2.53515625 36.69921875 C-1.2925058 35.78147247 -1.2925058 35.78147247 -4.40234375 37.07421875 C-10.74798305 37.61198479 -15.13082751 36.75412088 -20.40234375 33.07421875 C-23.98640786 29.68069983 -27.01273206 25.73807541 -27.73828125 20.77734375 C-27.8349838 14.70442334 -27.23896503 9.94017745 -23.40234375 5.07421875 C-16.89503987 -1.36429756 -8.68034153 -3.34510722 0 0 Z M-16.40234375 15.07421875 C-16.55426225 19.40389589 -16.07545712 21.30494633 -13.21484375 24.57421875 C-10.4832261 26.31441483 -10.4832261 26.31441483 -7.33984375 26.07421875 C-3.9451362 24.91857363 -2.464832 24.00929818 -0.40234375 21.07421875 C0.3478082 18.11730166 0.3478082 18.11730166 -0.40234375 15.07421875 C-2.858285 11.75147471 -4.32800815 10.29803867 -8.40234375 9.44921875 C-12.51523642 10.30607139 -13.99921307 11.65157808 -16.40234375 15.07421875 Z " fill="#A6D924" transform="translate(248.40234375,39.92578125)"/>
<path d="M0 0 C1.875 1.5625 1.875 1.5625 3 4 C3.04491146 6.33290107 3.04899736 8.66718117 3 11 C4.12019531 10.96519531 5.24039062 10.93039063 6.39453125 10.89453125 C7.86717251 10.86639161 9.33982998 10.83909163 10.8125 10.8125 C11.55048828 10.78736328 12.28847656 10.76222656 13.04882812 10.73632812 C18.46901216 10.66275097 18.46901216 10.66275097 21.0234375 12.28515625 C22.70886006 15.24475826 21.76354259 17.82836153 21 21 C17.81175432 22.59412284 14.37103338 22.10174735 10.875 22.0625 C10.12089844 22.05798828 9.36679687 22.05347656 8.58984375 22.04882812 C6.72652873 22.03703499 4.86325445 22.01909942 3 22 C3.08715017 23.93833996 3.19532964 25.8757429 3.3125 27.8125 C3.39951172 29.43091797 3.39951172 29.43091797 3.48828125 31.08203125 C3.78429221 33.96690997 3.78429221 33.96690997 5.29296875 35.8671875 C7.36217736 37.24034653 8.53264641 37.37324924 11 37.3125 C11.680625 37.30863281 12.36125 37.30476563 13.0625 37.30078125 C15.32191109 37.08908293 15.32191109 37.08908293 18 35 C23.44444444 35.44444444 23.44444444 35.44444444 26 38 C26.5 40.3125 26.5 40.3125 26 43 C21.47039498 47.52960502 17.70903651 49.72909635 11.25 50.375 C5.41601518 50.17686467 0.21707958 48.30520617 -3.8671875 44.05859375 C-9.48937631 36.75512838 -9.21692763 30.18143336 -9.24023438 21.26660156 C-9.24996513 19.00809242 -9.28101177 16.75048413 -9.3125 14.4921875 C-9.31902805 13.05729706 -9.3242793 11.62240013 -9.328125 10.1875 C-9.3374707 8.88167969 -9.34681641 7.57585938 -9.35644531 6.23046875 C-9 3 -9 3 -7.66699219 1.078125 C-5.01836325 -0.63487227 -3.06227166 -0.44658128 0 0 Z " fill="#A7D827" transform="translate(271,27)"/>
<path d="M0 0 C1.59765625 1.1640625 1.59765625 1.1640625 2.47265625 4.1015625 C2.59765625 7.1640625 2.59765625 7.1640625 0.59765625 10.1640625 C-3.02101934 11.3702877 -6.32740626 11.27223168 -10.08984375 11.2265625 C-10.79173828 11.22205078 -11.49363281 11.21753906 -12.21679688 11.21289062 C-13.94534913 11.20113177 -15.6738574 11.18319704 -17.40234375 11.1640625 C-17.40234375 11.8240625 -17.40234375 12.4840625 -17.40234375 13.1640625 C-16.53351563 13.11765625 -15.6646875 13.07125 -14.76953125 13.0234375 C-5.338917 12.72807151 -5.338917 12.72807151 -0.77734375 14.8515625 C4.50273285 19.99268972 4.50273285 19.99268972 4.69140625 24.30859375 C4.35694194 29.35064322 3.44381388 32.63841801 -0.40234375 36.1640625 C-4.99260373 38.62374898 -9.45088701 38.49693351 -14.52734375 38.4765625 C-15.33816406 38.49267578 -16.14898437 38.50878906 -16.984375 38.52539062 C-17.76425781 38.52603516 -18.54414063 38.52667969 -19.34765625 38.52734375 C-20.05422363 38.53032471 -20.76079102 38.53330566 -21.48876953 38.53637695 C-24.00688513 38.04643994 -24.91016623 37.22949426 -26.40234375 35.1640625 C-25.95789931 28.71961806 -25.95789931 28.71961806 -24.40234375 27.1640625 C-21.54356466 26.92705011 -18.70351078 26.74187068 -15.83984375 26.6015625 C-15.03353516 26.55837891 -14.22722656 26.51519531 -13.39648438 26.47070312 C-11.3986557 26.36430988 -9.40052305 26.26365362 -7.40234375 26.1640625 C-7.40234375 25.8340625 -7.40234375 25.5040625 -7.40234375 25.1640625 C-8.28277344 25.12667969 -9.16320312 25.08929688 -10.0703125 25.05078125 C-11.23175781 24.98503906 -12.39320313 24.91929688 -13.58984375 24.8515625 C-14.73839844 24.79355469 -15.88695312 24.73554687 -17.0703125 24.67578125 C-20.60249165 24.13332466 -22.55463451 23.28458885 -25.40234375 21.1640625 C-28.28637342 16.78829335 -29.05221892 13.36306386 -28.40234375 8.1640625 C-26.4051118 4.00982004 -24.22619225 1.26186358 -19.80078125 -0.37109375 C-13.69649048 -1.55417291 -5.89363443 -2.05079312 0 0 Z " fill="#A5DB1F" transform="translate(291.40234375,95.8359375)"/>
<path d="M0 0 C1.8125 1 1.8125 1 3 3 C3.15944484 5.67464525 3.05136639 8.31813361 3 11 C4.78857422 10.94779297 4.78857422 10.94779297 6.61328125 10.89453125 C8.17967342 10.86639247 9.74608081 10.8390924 11.3125 10.8125 C12.09818359 10.78736328 12.88386719 10.76222656 13.69335938 10.73632812 C14.45068359 10.72666016 15.20800781 10.71699219 15.98828125 10.70703125 C17.03302612 10.68346558 17.03302612 10.68346558 18.09887695 10.65942383 C20.5941203 11.10643352 21.46314272 12.0221033 23 14 C23.375 16.5 23.375 16.5 23 19 C21.46314272 20.9778967 20.5941203 21.89356648 18.09887695 22.34057617 C17.05413208 22.3170105 17.05413208 22.3170105 15.98828125 22.29296875 C15.23095703 22.28330078 14.47363281 22.27363281 13.69335938 22.26367188 C12.90767578 22.23853516 12.12199219 22.21339844 11.3125 22.1875 C10.11657227 22.16719727 10.11657227 22.16719727 8.89648438 22.14648438 C6.93070033 22.11117089 4.96526418 22.05736447 3 22 C3.08754551 23.75091019 3.19573373 25.50079551 3.3125 27.25 C3.39951172 28.71179688 3.39951172 28.71179688 3.48828125 30.203125 C4.05915764 33.3233349 4.73505139 34.79206383 7 37 C8.94056541 37.55438371 8.94056541 37.55438371 11 37.375 C11.680625 37.36210938 12.36125 37.34921875 13.0625 37.3359375 C15.31939935 37.07913353 15.31939935 37.07913353 18 35 C20.83079592 34.64615051 22.36830089 34.6079109 24.8125 36.125 C26.65133821 39.02842875 26.67284558 40.63577212 26 44 C21.87466465 48.22677803 17.54220737 49.80444559 11.75 50.25 C4.92805474 49.79520365 0.68738417 48.14506541 -3.9375 43 C-7.8677402 38.2729685 -8.16789546 34.32448219 -8.203125 28.33984375 C-8.20882507 27.59416641 -8.21452515 26.84848907 -8.22039795 26.08021545 C-8.22983316 24.50588394 -8.23637606 22.9315328 -8.24023438 21.35717773 C-8.2499784 18.9428512 -8.28102954 16.52936256 -8.3125 14.11523438 C-8.31902658 12.58594256 -8.3242784 11.05664466 -8.328125 9.52734375 C-8.3404718 8.80336899 -8.3528186 8.07939423 -8.36553955 7.33348083 C-8.35644531 5.30053711 -8.35644531 5.30053711 -8 2 C-4.76746204 -0.15502531 -3.74849077 -0.46856135 0 0 Z " fill="#A7D925" transform="translate(307,84)"/>
<path d="M0 0 C3.0625 0.3125 3.0625 0.3125 4.72851562 1.56054688 C6.38948333 3.74193491 6.4434128 4.93595635 6.46875 7.65625 C6.49066406 8.49027344 6.51257813 9.32429688 6.53515625 10.18359375 C6.55338542 11.93619792 6.57161458 13.68880208 6.58984375 15.44140625 C6.61175781 16.27542969 6.63367188 17.10945313 6.65625 17.96875 C6.66333984 18.72994141 6.67042969 19.49113281 6.67773438 20.27539062 C7.16548139 22.85772633 8.00198763 23.7228232 10.0625 25.3125 C13.21910086 26.18560237 15.23753524 26.58005614 18.375 25.5625 C20.37533015 24.33083257 20.37533015 24.33083257 21.0625 21.3125 C21.18492562 19.94050653 21.26279683 18.56418325 21.30859375 17.1875 C21.34146484 16.39859375 21.37433594 15.6096875 21.40820312 14.796875 C21.46939589 13.14076454 21.52668851 11.48450537 21.58007812 9.828125 C21.61423828 9.03921875 21.64839844 8.2503125 21.68359375 7.4375 C21.7086499 6.71820313 21.73370605 5.99890625 21.75952148 5.2578125 C22.0625 3.3125 22.0625 3.3125 24.0625 0.3125 C29.18315013 -0.34120002 29.18315013 -0.34120002 31.72460938 1.5480957 C34.32225266 4.97385629 33.57384635 9.36142024 33.5625 13.5 C33.59085937 14.42103516 33.61921875 15.34207031 33.6484375 16.29101562 C33.66719467 22.89822949 32.28093811 27.19467965 28.0625 32.3125 C23.73109741 36.42733246 20.13924075 38.14502091 14.1875 38.625 C8.9715783 38.43906658 4.9188986 37.12443396 1.10546875 33.40234375 C-4.9261332 26.6336825 -5.11961457 22.76308189 -5.125 13.8125 C-5.13724609 12.74128906 -5.14949219 11.67007813 -5.16210938 10.56640625 C-5.16404297 9.54417969 -5.16597656 8.52195312 -5.16796875 7.46875 C-5.17207764 6.52837891 -5.17618652 5.58800781 -5.18041992 4.61914062 C-4.79294981 0.93992696 -3.56905637 0.37968685 0 0 Z " fill="#A6DA20" transform="translate(303.9375,38.6875)"/>
<path d="M0 0 C1.62426758 1.02661133 1.62426758 1.02661133 3 3 C3.33098913 5.72024096 3.48850826 8.22459295 3.51171875 10.94921875 C3.52966995 11.72183548 3.54762115 12.49445221 3.56611633 13.29048157 C3.62026104 15.756099 3.65412731 18.22152243 3.6875 20.6875 C3.72066952 22.36005306 3.75515885 24.03258051 3.79101562 25.70507812 C3.87598949 29.8032455 3.9427802 33.90135494 4 38 C5.13050781 38.44472656 6.26101563 38.88945313 7.42578125 39.34765625 C11 41 11 41 12.1875 43.4375 C12 46 12 46 10.4375 48.3125 C7.27519699 50.5017867 5.78551828 50.60568293 2 50 C-2.60563994 47.3811067 -6.30197811 45.09406568 -8 40 C-8.12092382 37.23121097 -8.18812 34.48834587 -8.203125 31.71875 C-8.20882507 30.9088562 -8.21452515 30.0989624 -8.22039795 29.26452637 C-8.22983733 27.55315453 -8.23637771 25.84176461 -8.24023438 24.13037109 C-8.24996372 21.50977118 -8.28100579 18.88994792 -8.3125 16.26953125 C-8.31902799 14.60677549 -8.32427926 12.94401413 -8.328125 11.28125 C-8.3404718 10.49681519 -8.3528186 9.71238037 -8.36553955 8.9041748 C-8.34335631 3.50188517 -8.34335631 3.50188517 -6.63574219 1.00585938 C-4.27081827 -0.44839235 -2.72036091 -0.40805414 0 0 Z " fill="#A7D926" transform="translate(413,27)"/>
<path d="M0 0 C-1.55961362 0.96302356 -3.12283225 1.92021004 -4.6875 2.875 C-5.55761719 3.40867187 -6.42773438 3.94234375 -7.32421875 4.4921875 C-10 6 -10 6 -12.76953125 7.0078125 C-13.50558594 7.33523437 -14.24164063 7.66265625 -15 8 C-15.33 8.99 -15.66 9.98 -16 11 C-16.7425 11.515625 -17.485 12.03125 -18.25 12.5625 C-23.90077458 17.5711411 -26.01892687 23.81199009 -26.75 31.1875 C-27.2172574 34.75606385 -27.53746757 36.49084868 -29.9765625 39.17578125 C-32.375 41 -32.375 41 -34.7109375 42.5 C-37.1081635 43.95682564 -37.1081635 43.95682564 -39.1640625 46.1875 C-41 48 -41 48 -43 48 C-39.19875358 18.19875358 -39.19875358 18.19875358 -28 7 C-25.39859808 5.0356761 -22.88541485 3.54575796 -20 2 C-19.67 2.99 -19.34 3.98 -19 5 C-18.21625 4.38125 -17.4325 3.7625 -16.625 3.125 C-11.84023628 -0.08387495 -5.52057811 -1.8401927 0 0 Z " fill="#B5E533" transform="translate(147,49)"/>
<path d="M0 0 C0.33 0.99 0.66 1.98 1 3 C0.14453125 4.69140625 0.14453125 4.69140625 -1.1875 6.5625 C-9.4732163 19.07185441 -9.91053855 30.70749467 -7.4375 45.08203125 C-7 48 -7 48 -7 52 C-11.95 52 -16.9 52 -22 52 C-21.690625 50.63875 -21.38125 49.2775 -21.0625 47.875 C-20.70678967 46.25033721 -20.35251972 44.62535808 -20 43 C-19.79375 42.05125 -19.5875 41.1025 -19.375 40.125 C-17.93989344 28.16577864 -19.52686273 17.26773498 -26 7 C-26 6.34 -26 5.68 -26 5 C-26.66 5 -27.32 5 -28 5 C-28 4.34 -28 3.68 -28 3 C-24.21442819 4.48748738 -22.58432807 6.55349866 -20.3125 9.875 C-19.71050781 10.73867187 -19.10851562 11.60234375 -18.48828125 12.4921875 C-17.15148879 14.74473543 -16.44582106 16.44395924 -16 19 C-15.34 19 -14.68 19 -14 19 C-13.76152344 18.12859375 -13.52304688 17.2571875 -13.27734375 16.359375 C-11.86655943 12.64905539 -10.11056646 10.27922843 -7.5625 7.25 C-6.78003906 6.30640625 -5.99757813 5.3628125 -5.19140625 4.390625 C-3 2 -3 2 0 0 Z " fill="#A6DB1F" transform="translate(107,97)"/>
<path d="M0 0 C0.99 0.66 1.98 1.32 3 2 C3.38862059 5.04419465 3.5583048 7.08043915 1.9375 9.75 C-0.83994698 11.54190128 -3.82812963 12.13494444 -7 13 C-9.43728541 15.43728541 -9.25760828 16.12146311 -9.30859375 19.46484375 C-9.33373047 20.34720703 -9.35886719 21.22957031 -9.38476562 22.13867188 C-9.41984699 24.0005828 -9.4511135 25.86256961 -9.47851562 27.72460938 C-9.50494141 28.60826172 -9.53136719 29.49191406 -9.55859375 30.40234375 C-9.57877563 31.61651978 -9.57877563 31.61651978 -9.59936523 32.85522461 C-10.09253108 35.49535988 -10.88119966 36.39192233 -13 38 C-15.5 38.375 -15.5 38.375 -18 38 C-20.15659341 36.37518267 -20.91033612 35.45620579 -21.43579102 32.78271484 C-21.51004831 29.97903606 -21.5569861 27.17973814 -21.5625 24.375 C-21.59923828 23.41464844 -21.63597656 22.45429687 -21.67382812 21.46484375 C-21.71805216 14.22193005 -19.94605699 9.36434798 -15 4 C-10.20796374 0.53946688 -5.97898305 -0.70340977 0 0 Z " fill="#A5DB1E" transform="translate(361,39)"/>
<path d="M0 0 C1.59765625 1.1640625 1.59765625 1.1640625 2.47265625 4.1015625 C2.59765625 7.1640625 2.59765625 7.1640625 0.59765625 10.1640625 C-3.02101934 11.3702877 -6.32740626 11.27223168 -10.08984375 11.2265625 C-10.79173828 11.22205078 -11.49363281 11.21753906 -12.21679688 11.21289062 C-13.94534913 11.20113177 -15.6738574 11.18319704 -17.40234375 11.1640625 C-17.40234375 11.8240625 -17.40234375 12.4840625 -17.40234375 13.1640625 C-16.53351563 13.11765625 -15.6646875 13.07125 -14.76953125 13.0234375 C-4.17591419 12.69164636 -4.17591419 12.69164636 -0.71484375 14.8515625 C1.66279554 17.22920179 2.70335564 18.9445803 3.59765625 22.1640625 C1.94765625 21.8340625 0.29765625 21.5040625 -1.40234375 21.1640625 C-1.40234375 19.8440625 -1.40234375 18.5240625 -1.40234375 17.1640625 C-7.01234375 16.1740625 -12.62234375 15.1840625 -18.40234375 14.1640625 C-18.40234375 12.1840625 -18.40234375 10.2040625 -18.40234375 8.1640625 C-17.74234375 7.8340625 -17.08234375 7.5040625 -16.40234375 7.1640625 C-16.07234375 6.1740625 -15.74234375 5.1840625 -15.40234375 4.1640625 C-13.42234375 4.1640625 -11.44234375 4.1640625 -9.40234375 4.1640625 C-9.40234375 3.5040625 -9.40234375 2.8440625 -9.40234375 2.1640625 C-11.17309292 2.13700521 -12.94396086 2.11764055 -14.71484375 2.1015625 C-15.70097656 2.08996094 -16.68710937 2.07835938 -17.703125 2.06640625 C-20.50198224 2.04076388 -20.50198224 2.04076388 -23.40234375 3.1640625 C-25.82656757 6.85381334 -25.99932446 10.43171116 -25.91015625 14.75 C-25.30995008 17.60328781 -24.63064848 18.46993645 -22.33984375 20.2265625 C-18.73985724 22.31308529 -15.52400448 22.91171592 -11.40234375 23.1640625 C-11.40234375 23.4940625 -11.40234375 23.8240625 -11.40234375 24.1640625 C-21.33984375 24.74862132 -21.33984375 24.74862132 -25.40234375 21.1640625 C-28.28637342 16.78829335 -29.05221892 13.36306386 -28.40234375 8.1640625 C-26.4051118 4.00982004 -24.22619225 1.26186358 -19.80078125 -0.37109375 C-13.69649048 -1.55417291 -5.89363443 -2.05079312 0 0 Z " fill="#A4DB20" transform="translate(291.40234375,95.8359375)"/>
<path d="M0 0 C1.65 0 3.3 0 5 0 C5.13539281 2.89740622 5.23426829 5.78845621 5.3125 8.6875 C5.35439453 9.50412109 5.39628906 10.32074219 5.43945312 11.16210938 C5.52945019 15.60796423 5.46807102 17.40195224 2.63671875 21.01953125 C-0.141873 23.10656238 -1.53356525 24 -5 24 C-7.625 22.75 -7.625 22.75 -10 21 C-10.598125 20.5875 -11.19625 20.175 -11.8125 19.75 C-13.80447147 16.8144631 -13.41456561 14.43497217 -13 11 C-11.20437595 8.24670979 -9.94745078 6.47372539 -7 5 C-5.00039988 4.960008 -2.99952758 4.95653201 -1 5 C-0.67 3.35 -0.34 1.7 0 0 Z M-6 11 C-7.29633621 12.06645115 -7.29633621 12.06645115 -7.0625 14.5625 C-7.041875 15.366875 -7.02125 16.17125 -7 17 C-5.16299211 17.77242269 -5.16299211 17.77242269 -3 18 C-1.22809091 16.64555699 -1.22809091 16.64555699 0 15 C-0.66 13.68 -1.32 12.36 -2 11 C-3.32 11 -4.64 11 -6 11 Z " fill="#A9D333" transform="translate(440,111)"/>
<path d="M0 0 C6.48480848 5.98487831 11.22967027 14.34505465 13 23 C12 24 12 24 9.05078125 24.1328125 C7.81714844 24.13023438 6.58351563 24.12765625 5.3125 24.125 C3.48138672 24.12886719 3.48138672 24.12886719 1.61328125 24.1328125 C-1.68790285 24.01147168 -4.7614018 23.62682546 -8 23 C-6.68 22.67 -5.36 22.34 -4 22 C-3.81824219 21.00033203 -3.81824219 21.00033203 -3.6328125 19.98046875 C-2.421875 13.3203125 -1.2109375 6.66015625 0 0 Z " fill="#B6E23A" transform="translate(64,80)"/>
<path d="M0 0 C3.55047235 2.68257911 4.84946388 4.06333082 5.5625 8.5 C4.91877781 12.50538252 3.84054174 14.15945826 1 17 C-1.85324437 18.42662219 -3.83454549 18.31033868 -7 18 C-9.69990662 16.20006226 -11.5418865 14.916227 -13 12 C-13.375 8.6875 -13.375 8.6875 -13 5 C-9.17451963 0.24399738 -6.01202896 -2.00400965 0 0 Z M-7 6 C-7 7.65 -7 9.3 -7 11 C-4.525 11.495 -4.525 11.495 -2 12 C-1.34 10.68 -0.68 9.36 0 8 C-1.37485532 6.45833358 -1.37485532 6.45833358 -3 5 C-5.0745356 4.8509288 -5.0745356 4.8509288 -7 6 Z " fill="#A7D42C" transform="translate(465,117)"/>
<path d="M0 0 C2.9375 2.625 2.9375 2.625 5 6 C5.06842425 9.96860664 4.61465514 12.10165788 2.375 15.375 C-0.89834212 17.61465514 -3.03139336 18.06842425 -7 18 C-10.75168556 15.70730327 -12.58559777 14.17007689 -14.0625 10 C-13.98623353 6.33920943 -13.29809461 4.83431669 -11 2 C-7.16766218 -1.10730093 -4.68155554 -1.65805092 0 0 Z M-6 5 C-6.66 5.66 -7.32 6.32 -8 7 C-7.6814823 9.10820797 -7.6814823 9.10820797 -7 11 C-5.35 11.33 -3.7 11.66 -2 12 C-1.32041397 9.60280568 -1.32041397 9.60280568 -1 7 C-1.66 6.34 -2.32 5.68 -3 5 C-3.99 5 -4.98 5 -6 5 Z " fill="#AAD237" transform="translate(490,117)"/>
<path d="M0 0 C11.51758829 3.23300724 21.90122674 9.08748454 31.375 16.3125 C31.92833008 16.73281494 32.48166016 17.15312988 33.05175781 17.58618164 C35.68660696 19.67217376 36.91388655 20.74165965 38 24 C37.34 24.66 36.68 25.32 36 26 C35.5875 25.484375 35.175 24.96875 34.75 24.4375 C34.1725 23.963125 33.595 23.48875 33 23 C32.360625 23.165 31.72125 23.33 31.0625 23.5 C30.0415625 23.7475 30.0415625 23.7475 29 24 C27.0625 22.8125 27.0625 22.8125 25 21 C24.175 20.360625 23.35 19.72125 22.5 19.0625 C20.1737793 17.14336792 18.01748727 15.24165253 16 13 C16 12.34 16 11.68 16 11 C14.0636296 10.49564306 12.12585854 9.99666126 10.1875 9.5 C9.10855469 9.2215625 8.02960937 8.943125 6.91796875 8.65625 C4.01066025 7.89029052 4.01066025 7.89029052 1 8 C1 7.34 1 6.68 1 6 C2.32 5.67 3.64 5.34 5 5 C4.67 4.01 4.34 3.02 4 2 C2.68 2 1.36 2 0 2 C0 1.34 0 0.68 0 0 Z " fill="#A8D727" transform="translate(31,7)"/>
<path d="M0 0 C2.4375 1.6875 2.4375 1.6875 4.4375 4.6875 C3.90125 4.39875 3.365 4.11 2.8125 3.8125 C-2.8822149 1.11500347 -7.34494517 0.47310156 -13.5625 0.6875 C-13.8925 1.3475 -14.2225 2.0075 -14.5625 2.6875 C-16.625 3.8125 -16.625 3.8125 -18.5625 4.6875 C-18.5625 5.6775 -18.5625 6.6675 -18.5625 7.6875 C-17.5725 8.3475 -16.5825 9.0075 -15.5625 9.6875 C-14.9025 9.0275 -14.2425 8.3675 -13.5625 7.6875 C-11.46875 7.421875 -11.46875 7.421875 -9.0625 7.4375 C-8.2684375 7.43234375 -7.474375 7.4271875 -6.65625 7.421875 C-4.5625 7.6875 -4.5625 7.6875 -2.5625 9.6875 C-2.8925 11.3375 -3.2225 12.9875 -3.5625 14.6875 C-9.0075 14.1925 -9.0075 14.1925 -14.5625 13.6875 C-14.5625 14.6775 -14.5625 15.6675 -14.5625 16.6875 C-15.2225 16.6875 -15.8825 16.6875 -16.5625 16.6875 C-16.5625 16.0275 -16.5625 15.3675 -16.5625 14.6875 C-19.2025 14.6875 -21.8425 14.6875 -24.5625 14.6875 C-25.2225 17.3275 -25.8825 19.9675 -26.5625 22.6875 C-26.8925 22.6875 -27.2225 22.6875 -27.5625 22.6875 C-27.97729372 14.91395842 -27.53175837 10.04745027 -22.1875 4 C-15.39334822 -1.98532419 -8.65699271 -3.18941837 0 0 Z M-12.5625 9.6875 C-12.8925 10.3475 -13.2225 11.0075 -13.5625 11.6875 C-10.2625 11.6875 -6.9625 11.6875 -3.5625 11.6875 C-5.51883975 9.27628141 -5.51883975 9.27628141 -9.1875 9.5625 C-10.858125 9.624375 -10.858125 9.624375 -12.5625 9.6875 Z " fill="#A7D82A" transform="translate(362.5625,97.3125)"/>
<path d="M0 0 C-0.33 0.33 -0.66 0.66 -1 1 C-0.01 1.66 0.98 2.32 2 3 C2.23136065 6.12336876 2.28655682 8.88959231 1.5 11.9375 C0.69145507 15.27274782 0.942953 18.57718 1 22 C0.34 22 -0.32 22 -1 22 C-1 22.66 -1 23.32 -1 24 C-5.875 22.125 -5.875 22.125 -7 21 C-7.09862603 19.60825641 -7.1307898 18.21163857 -7.1328125 16.81640625 C-7.13410156 15.97142578 -7.13539063 15.12644531 -7.13671875 14.25585938 C-7.13091797 12.92264648 -7.13091797 12.92264648 -7.125 11.5625 C-7.12886719 10.67755859 -7.13273437 9.79261719 -7.13671875 8.88085938 C-7.13478516 7.61145508 -7.13478516 7.61145508 -7.1328125 6.31640625 C-7.13168457 5.53724854 -7.13055664 4.75809082 -7.12939453 3.95532227 C-7 2 -7 2 -6 0 C-3 -1 -3 -1 0 0 Z " fill="#A5DB1E" transform="translate(418,109)"/>
<path d="M0 0 C3.7762589 3.76613488 3.5415786 7.72196555 3.6875 12.75 C3.73874023 13.93916016 3.73874023 13.93916016 3.79101562 15.15234375 C3.87319104 17.10107504 3.93828045 19.05051362 4 21 C3.34 21.33 2.68 21.66 2 22 C1.34 21.34 0.68 20.68 0 20 C-0.99 20.99 -1.98 21.98 -3 23 C-5.89769905 20.10230095 -5.84675043 16.92452157 -6 13 C-5.58969805 5.17939609 -5.58969805 5.17939609 -4 2 C-1.9375 0.875 -1.9375 0.875 0 0 Z " fill="#A5DC1E" transform="translate(305,42)"/>
<path d="M0 0 C0.9375 2.5 0.9375 2.5 1 5 C-1 7 -1 7 -3.1640625 7.1953125 C-4.38222656 7.16050781 -4.38222656 7.16050781 -5.625 7.125 C-6.44226563 7.10695313 -7.25953125 7.08890625 -8.1015625 7.0703125 C-8.72804688 7.04710937 -9.35453125 7.02390625 -10 7 C-10.33 7.99 -10.66 8.98 -11 10 C-12.4375 11.6875 -12.4375 11.6875 -14 13 C-14.66 13 -15.32 13 -16 13 C-16.99 14.485 -16.99 14.485 -18 16 C-19.32 15.34 -20.64 14.68 -22 14 C-21.67 13.01 -21.34 12.02 -21 11 C-20.01 11 -19.02 11 -18 11 C-16.5393715 8.35261084 -16 7.10551666 -16 4 C-11.28280071 -0.71719929 -6.15431675 -3.65932348 0 0 Z " fill="#A5DB1D" transform="translate(363,42)"/>
<path d="M0 0 C5.11330432 -0.65276225 5.11330432 -0.65276225 7.6730957 1.23168945 C9.39041405 3.52028868 9.34723434 4.82806977 9.29296875 7.66796875 C9.28330078 8.56064453 9.27363281 9.45332031 9.26367188 10.37304688 C9.23853516 11.30181641 9.21339844 12.23058594 9.1875 13.1875 C9.16719727 14.59805664 9.16719727 14.59805664 9.14648438 16.03710938 C9.11113096 18.35865038 9.06178674 20.67903653 9 23 C8.67 23 8.34 23 8 23 C7.67 17.06 7.34 11.12 7 5 C4.69 5 2.38 5 0 5 C0.2784375 5.9590625 0.2784375 5.9590625 0.5625 6.9375 C0.706875 7.618125 0.85125 8.29875 1 9 C0.67 9.33 0.34 9.66 0 10 C0.07533399 13.15649419 0.17745166 16.30289672 0.390625 19.453125 C0.453125 21.4609375 0.453125 21.4609375 0 25 C-3.13228156 27.77872597 -5.69677919 28.37178601 -9.8125 28.1875 C-10.99779297 28.14689453 -10.99779297 28.14689453 -12.20703125 28.10546875 C-12.79871094 28.07066406 -13.39039063 28.03585938 -14 28 C-14 27.01 -14 26.02 -14 25 C-12.63875 25.309375 -12.63875 25.309375 -11.25 25.625 C-7.88378631 26.01340927 -6.67990179 25.98511244 -4 24 C-3.11246292 21.33738877 -2.84522193 19.62000467 -2.75390625 16.875 C-2.72103516 16.08609375 -2.68816406 15.2971875 -2.65429688 14.484375 C-2.59310411 12.82826454 -2.53581149 11.17200537 -2.48242188 9.515625 C-2.44826172 8.72671875 -2.41410156 7.9378125 -2.37890625 7.125 C-2.3538501 6.40570313 -2.32879395 5.68640625 -2.30297852 4.9453125 C-2 3 -2 3 0 0 Z " fill="#ABD338" transform="translate(328,39)"/>
<path d="M0 0 C0.33 0.99 0.66 1.98 1 3 C0.14453125 4.69140625 0.14453125 4.69140625 -1.1875 6.5625 C-7.05826551 15.54803276 -8.83940506 24.40193566 -10 35 C-10.66 34.67 -11.32 34.34 -12 34 C-12.027193 32.41676312 -12.04648306 30.83338938 -12.0625 29.25 C-12.07410156 28.36828125 -12.08570312 27.4865625 -12.09765625 26.578125 C-12.00826198 24.2181162 -11.66912821 22.25501476 -11 20 C-11.99 19.67 -12.98 19.34 -14 19 C-12.68208664 14.18427336 -10.76703894 11.05966534 -7.5625 7.25 C-6.78003906 6.30640625 -5.99757813 5.3628125 -5.19140625 4.390625 C-3 2 -3 2 0 0 Z " fill="#ACD62C" transform="translate(107,97)"/>
<path d="M0 0 C1.3125 2.0625 1.3125 2.0625 2 4 C1.34 4 0.68 4 0 4 C0.02280861 7.75134554 0.10012617 11.49964642 0.1875 15.25 C0.19330078 16.31347656 0.19910156 17.37695312 0.20507812 18.47265625 C0.22531257 24.7144403 0.22531257 24.7144403 3.55078125 29.734375 C4.76314453 30.36085937 4.76314453 30.36085937 6 31 C1.25 30.25 1.25 30.25 -1 28 C-1.31884766 25.66162109 -1.31884766 25.66162109 -1.4140625 22.7734375 C-1.45273437 21.7421875 -1.49140625 20.7109375 -1.53125 19.6484375 C-1.5621875 18.56820312 -1.593125 17.48796875 -1.625 16.375 C-1.66367187 15.28703125 -1.70234375 14.1990625 -1.7421875 13.078125 C-1.83666247 10.38558835 -1.92222431 7.69306243 -2 5 C-3.32 5 -4.64 5 -6 5 C-6.0093457 5.64549805 -6.01869141 6.29099609 -6.02832031 6.95605469 C-6.08209101 9.88813944 -6.1657234 12.81864008 -6.25 15.75 C-6.27126953 17.27367187 -6.27126953 17.27367187 -6.29296875 18.828125 C-6.53983161 26.33275583 -6.53983161 26.33275583 -8.875 29.71875 C-11 31 -11 31 -13.75 30.75 C-14.4925 30.5025 -15.235 30.255 -16 30 C-15.34 29.67 -14.68 29.34 -14 29 C-13.34 29.33 -12.68 29.66 -12 30 C-12 29.34 -12 28.68 -12 28 C-11.34 28 -10.68 28 -10 28 C-8.81044988 23.75321709 -8.81617709 19.75809468 -8.8125 15.375 C-8.80025391 14.59898438 -8.78800781 13.82296875 -8.77539062 13.0234375 C-8.77015833 11.01423638 -8.87751265 9.00547086 -9 7 C-9.66 6.34 -10.32 5.68 -11 5 C-11 4.34 -11 3.68 -11 3 C-10.01 3.33 -9.02 3.66 -8 4 C-7.87625 3.360625 -7.7525 2.72125 -7.625 2.0625 C-7.41875 1.381875 -7.2125 0.70125 -7 0 C-4.25509788 -1.37245106 -2.87939419 -0.93580311 0 0 Z " fill="#ADD539" transform="translate(411,103)"/>
<path d="M0 0 C0.66 0 1.32 0 2 0 C2 4.62 2 9.24 2 14 C4.31 14 6.62 14 9 14 C9 14.33 9 14.66 9 15 C6.56242587 15.02698422 4.12515085 15.04683099 1.6875 15.0625 C0.99720703 15.07087891 0.30691406 15.07925781 -0.40429688 15.08789062 C-3.5483025 15.10307906 -5.99420019 15.00193327 -9 14 C-8.39466304 10.32594092 -6.81662645 8.18454714 -4.5 5.3125 C-3.8709375 4.52488281 -3.241875 3.73726563 -2.59375 2.92578125 C-1 1 -1 1 0 0 Z " fill="#B7E13F" transform="translate(118,87)"/>
<path d="M0 0 C1.65 0 3.3 0 5 0 C5.20852314 6.40629424 5.1583195 11.92972642 3 18 C2.34 17.67 1.68 17.34 1 17 C1 14.69 1 12.38 1 10 C0.01 10.33 -0.98 10.66 -2 11 C-3.39439664 11.06665376 -4.79169875 11.08538199 -6.1875 11.0625 C-8.0746875 11.0315625 -8.0746875 11.0315625 -10 11 C-9.01 9.02 -8.02 7.04 -7 5 C-5.02 5 -3.04 5 -1 5 C-0.67 3.35 -0.34 1.7 0 0 Z " fill="#A8D828" transform="translate(440,111)"/>
<path d="M0 0 C0.33 1.65 0.66 3.3 1 5 C1.66 5 2.32 5 3 5 C3 7.31 3 9.62 3 12 C2.34 12 1.68 12 1 12 C0.34 10.02 -0.32 8.04 -1 6 C-2.65 6 -4.3 6 -6 6 C-6.68707555 8.49064888 -7 10.37886292 -7 13 C-8.32 13 -9.64 13 -11 13 C-12.45762712 6.25847458 -12.45762712 6.25847458 -11.25 2.9375 C-8.28498621 -1.65827137 -4.95120406 -1.12527365 0 0 Z " fill="#A7D623" transform="translate(490,117)"/>
<path d="M0 0 C2 2 2 2 2 6 C1.01 7.485 1.01 7.485 0 9 C0 8.34 0 7.68 0 7 C-0.66 7 -1.32 7 -2 7 C-2.33 12.28 -2.66 17.56 -3 23 C-1.68 22.34 -0.36 21.68 1 21 C1.99 20.67 2.98 20.34 4 20 C4.66 20.66 5.32 21.32 6 22 C5.46890625 22.38671875 4.9378125 22.7734375 4.390625 23.171875 C1.29457115 25.45436725 -1.65034921 27.65034921 -4.375 30.375 C-4.91125 30.91125 -5.4475 31.4475 -6 32 C-6.66 32 -7.32 32 -8 32 C-4.49115715 4.49115715 -4.49115715 4.49115715 0 0 Z " fill="#B6DA44" transform="translate(112,65)"/>
<path d="M0 0 C-0.495 0.433125 -0.99 0.86625 -1.5 1.3125 C-3.33218192 2.99740483 -3.33218192 2.99740483 -3 6 C-3.66 6 -4.32 6 -5 6 C-5 6.66 -5 7.32 -5 8 C-10.03511899 9.0070238 -13.23947038 8.97387813 -18 7 C-17.67 5.02 -17.34 3.04 -17 1 C-15.824375 1.309375 -15.824375 1.309375 -14.625 1.625 C-13.75875 1.74875 -12.8925 1.8725 -12 2 C-11.34 1.34 -10.68 0.68 -10 0 C-6.33865009 -1.08850943 -3.68061127 -0.9464429 0 0 Z " fill="#A5DC1C" transform="translate(363,124)"/>
<path d="M0 0 C5.77278706 -0.24795864 10.83354896 0.66336059 16.4375 2 C17.67790039 2.28617187 17.67790039 2.28617187 18.94335938 2.578125 C20.96382366 3.04528437 22.98214547 3.52169374 25 4 C25 4.33 25 4.66 25 5 C19.85854377 5.22354158 15.34979348 4.57538624 10.33203125 3.4375 C7.74021679 2.87707471 7.74021679 2.87707471 4 3 C4.495 4.216875 4.99 5.43375 5.5 6.6875 C6.72479441 9.92486738 7.32803185 12.50099357 7 16 C7.66 16 8.32 16 9 16 C9.33 17.32 9.66 18.64 10 20 C10.66 20 11.32 20 12 20 C11.67 24.95 11.34 29.9 11 35 C10.67 35 10.34 35 10 35 C9.76925781 33.85144531 9.53851563 32.70289063 9.30078125 31.51953125 C7.50583654 22.87430091 5.45897572 14.76856721 2.05078125 6.6015625 C1.16008975 4.39635603 0.5000631 2.31897394 0 0 Z " fill="#A9D435" transform="translate(0,0)"/>
<path d="M0 0 C1.58984375 1.17578125 1.58984375 1.17578125 2.33984375 4.30078125 C2.46359375 5.72390625 2.46359375 5.72390625 2.58984375 7.17578125 C0.58984375 4.17578125 0.58984375 4.17578125 0.58984375 2.17578125 C-2.84763855 2.14676731 -6.28508937 2.1289779 -9.72265625 2.11328125 C-10.69912109 2.10490234 -11.67558594 2.09652344 -12.68164062 2.08789062 C-13.61943359 2.08466797 -14.55722656 2.08144531 -15.5234375 2.078125 C-16.38751221 2.07288818 -17.25158691 2.06765137 -18.1418457 2.06225586 C-20.57744339 2.08242602 -20.57744339 2.08242602 -23.41015625 3.17578125 C-25.83438007 6.86553209 -26.00713696 10.44342991 -25.91796875 14.76171875 C-25.31776258 17.61500656 -24.63846098 18.4816552 -22.34765625 20.23828125 C-18.74766974 22.32480404 -15.53181698 22.92343467 -11.41015625 23.17578125 C-11.41015625 23.50578125 -11.41015625 23.83578125 -11.41015625 24.17578125 C-21.34765625 24.76034007 -21.34765625 24.76034007 -25.41015625 21.17578125 C-28.29418592 16.8000121 -29.06003142 13.37478261 -28.41015625 8.17578125 C-26.4129243 4.02153879 -24.23400475 1.27358233 -19.80859375 -0.359375 C-13.69121196 -1.54499134 -5.91566211 -2.02302221 0 0 Z " fill="#ADCF48" transform="translate(291.41015625,95.82421875)"/>
<path d="M0 0 C6.65371235 6.06662008 11.49969772 13.32248031 14 22 C13.56640625 24.23046875 13.56640625 24.23046875 13 26 C12.67 25.34 12.34 24.68 12 24 C11.34 24 10.68 24 10 24 C9.70867187 23.31035156 9.41734375 22.62070312 9.1171875 21.91015625 C6.58840226 16.11303538 3.86697883 11.01683171 0.0390625 5.97265625 C-1 4 -1 4 -0.6640625 1.74609375 C-0.44492188 1.16988281 -0.22578125 0.59367187 0 0 Z " fill="#B4D53F" transform="translate(69,30)"/>
<path d="M0 0 C3.0625 0.3125 3.0625 0.3125 4.7355957 1.55395508 C6.41862094 3.78446673 6.41126643 4.99043413 6.35546875 7.76171875 C6.34580078 8.60927734 6.33613281 9.45683594 6.32617188 10.33007812 C6.30103516 11.21115234 6.27589844 12.09222656 6.25 13 C6.23646484 13.89267578 6.22292969 14.78535156 6.20898438 15.70507812 C6.17364079 17.90816166 6.12430493 20.11002582 6.0625 22.3125 C5.4025 22.3125 4.7425 22.3125 4.0625 22.3125 C4.00191406 21.04792969 3.94132813 19.78335938 3.87890625 18.48046875 C3.79449096 16.82030129 3.70984345 15.16014563 3.625 13.5 C3.58568359 12.66662109 3.54636719 11.83324219 3.50585938 10.97460938 C3.46396484 10.17216797 3.42207031 9.36972656 3.37890625 8.54296875 C3.34224854 7.80457764 3.30559082 7.06618652 3.26782227 6.30541992 C3.11407859 4.105005 3.11407859 4.105005 2.0625 1.3125 C0.7425 1.3125 -0.5775 1.3125 -1.9375 1.3125 C-1.9375 2.3025 -1.9375 3.2925 -1.9375 4.3125 C-2.5975 4.3125 -3.2575 4.3125 -3.9375 4.3125 C-3.79730308 7.12538705 -3.65062045 9.93766885 -3.5 12.75 C-3.46068359 13.55244141 -3.42136719 14.35488281 -3.38085938 15.18164062 C-3.5320704 19.06489561 -3.5320704 19.06489561 -1.9375 22.3125 C-1.89669217 24.31208364 -1.89495644 26.31295254 -1.9375 28.3125 C-1.2775 28.3125 -0.6175 28.3125 0.0625 28.3125 C-0.2675 29.3025 -0.5975 30.2925 -0.9375 31.3125 C-5.55205483 25.49414826 -5.120459 20.40207186 -5.125 13.25 C-5.13724609 12.23099609 -5.14949219 11.21199219 -5.16210938 10.16210938 C-5.16404297 9.18951172 -5.16597656 8.21691406 -5.16796875 7.21484375 C-5.17207764 6.32273193 -5.17618652 5.43062012 -5.18041992 4.51147461 C-4.78098695 0.89570299 -3.48592981 0.3708436 0 0 Z " fill="#AACD3F" transform="translate(226.9375,95.6875)"/>
<path d="M0 0 C2.97 0.495 2.97 0.495 6 1 C6.33 2.98 6.66 4.96 7 7 C5.02 7.99 5.02 7.99 3 9 C3.226875 9.763125 3.45375 10.52625 3.6875 11.3125 C4 14 4 14 2.6875 15.8125 C1 17 1 17 -1 17 C-1.22185844 14.73044814 -1.42705515 12.45926245 -1.625 10.1875 C-1.74101562 8.92292969 -1.85703125 7.65835938 -1.9765625 6.35546875 C-2 3 -2 3 0 0 Z " fill="#A5DB1D" transform="translate(302,106)"/>
<path d="M0 0 C1.8125 1.125 1.8125 1.125 3 3 C3.625 5.875 3.625 5.875 3 9 C-1.29745057 13.40312558 -5.68847199 14.96147453 -11.75 15.0625 C-12.8225 15.041875 -13.895 15.02125 -15 15 C-14.34 14.67 -13.68 14.34 -13 14 C-13 13.34 -13 12.68 -13 12 C-9.30458414 11.04975021 -6.69541586 11.04975021 -3 12 C-3 11.34 -3 10.68 -3 10 C-2.01 9.67 -1.02 9.34 0 9 C-0.33 7.68 -0.66 6.36 -1 5 C-1.99 5 -2.98 5 -4 5 C-4 4.34 -4 3.68 -4 3 C-4.99 3.33 -5.98 3.66 -7 4 C-8.72795352 4.06802967 -10.45835365 4.08495645 -12.1875 4.0625 C-13.53908203 4.04896484 -13.53908203 4.04896484 -14.91796875 4.03515625 C-15.60503906 4.02355469 -16.29210937 4.01195313 -17 4 C-16.67 3.34 -16.34 2.68 -16 2 C-14.01432292 2.06510417 -12.02864583 2.13020833 -10.04296875 2.1953125 C-6.04441878 1.81304195 -4.38088271 -0.54761034 0 0 Z " fill="#ACD33B" transform="translate(330,119)"/>
<path d="M0 0 C0 0.66 0 1.32 0 2 C0.99 2 1.98 2 3 2 C3.66 1.34 4.32 0.68 5 0 C5 1.98 5 3.96 5 6 C3.68 6.33 2.36 6.66 1 7 C1 7.66 1 8.32 1 9 C-2.3 9 -5.6 9 -9 9 C-9.33 7.68 -9.66 6.36 -10 5 C-8.68 4.34 -7.36 3.68 -6 3 C-6.33 2.34 -6.66 1.68 -7 1 C-4.50935112 0.31292445 -2.62113708 0 0 0 Z " fill="#A4DB1D" transform="translate(326,122)"/>
<path d="M0 0 C3.0625 0.3125 3.0625 0.3125 4.72192383 1.52661133 C6.4616905 3.84429357 6.48692016 5.31836539 6.57421875 8.19921875 C6.60966797 9.13701172 6.64511719 10.07480469 6.68164062 11.04101562 C6.70419922 12.01748047 6.72675781 12.99394531 6.75 14 C6.80124023 15.48209961 6.80124023 15.48209961 6.85351562 16.99414062 C6.93600538 19.43348053 7.00515068 21.87246063 7.0625 24.3125 C6.4025 23.9825 5.7425 23.6525 5.0625 23.3125 C4.63715411 20.67181095 4.31211597 18.09544787 4.0625 15.4375 C3.57878876 9.57722185 3.57878876 9.57722185 1.0625 4.3125 C-0.2575 4.6425 -1.5775 4.9725 -2.9375 5.3125 C-3.2675 8.9425 -3.5975 12.5725 -3.9375 16.3125 C-4.2675 16.3125 -4.5975 16.3125 -4.9375 16.3125 C-4.99134521 14.02108714 -5.03022087 11.72931812 -5.0625 9.4375 C-5.08570313 8.16132812 -5.10890625 6.88515625 -5.1328125 5.5703125 C-4.87792742 1.31882937 -4.2550723 0.45266727 0 0 Z " fill="#ACD533" transform="translate(303.9375,38.6875)"/>
<path d="M0 0 C6.27 0.33 12.54 0.66 19 1 C15.31912647 3.45391569 12.55644412 3.22802759 8.3125 3.125 C7.2596582 3.11146484 7.2596582 3.11146484 6.18554688 3.09765625 C4.45688475 3.07413704 2.72839855 3.03826713 1 3 C1 3.66 1 4.32 1 5 C1.86882812 4.95359375 2.73765625 4.9071875 3.6328125 4.859375 C14.22642956 4.52758386 14.22642956 4.52758386 17.6875 6.6875 C20.06513929 9.06513929 21.10569939 10.7805178 22 14 C19.525 13.505 19.525 13.505 17 13 C17 11.68 17 10.36 17 9 C8.585 7.515 8.585 7.515 0 6 C0 4.02 0 2.04 0 0 Z " fill="#ADD446" transform="translate(273,104)"/>
<path d="M0 0 C0.33 0 0.66 0 1 0 C1.76379303 4.74696989 2.12827495 9.29923535 2.1328125 14.10546875 C2.13474609 16.07483398 2.13474609 16.07483398 2.13671875 18.08398438 C2.13462402 18.75776123 2.1325293 19.43153809 2.13037109 20.12573242 C2.12498666 22.19261926 2.13035234 24.25929144 2.13671875 26.32617188 C2.13542969 27.63521484 2.13414063 28.94425781 2.1328125 30.29296875 C2.13168457 31.4843042 2.13055664 32.67563965 2.12939453 33.90307617 C2.02213061 36.47032675 1.75819799 38.56239722 1 41 C0.34 41 -0.32 41 -1 41 C-1.33 39.68 -1.66 38.36 -2 37 C-1.34 37 -0.68 37 0 37 C0 28.42 0 19.84 0 11 C-0.66 11 -1.32 11 -2 11 C-2 9.35 -2 7.7 -2 6 C-1.67 6 -1.34 6 -1 6 C-0.67 4.02 -0.34 2.04 0 0 Z " fill="#B9D757" transform="translate(83,57)"/>
<path d="M0 0 C7.04040701 2.78521596 11.03184702 11.36530511 14 18 C13.01 18.33 12.02 18.66 11 19 C11 23.62 11 28.24 11 33 C10.67 33 10.34 33 10 33 C9.91363281 31.98421875 9.82726562 30.9684375 9.73828125 29.921875 C8.84796848 20.80200445 6.97329333 13.34806926 3 5 C2.67 4.01 2.34 3.02 2 2 C1.34 2 0.68 2 0 2 C0 1.34 0 0.68 0 0 Z " fill="#ADD333" transform="translate(79,100)"/>
<path d="M0 0 C2.97 0.33 5.94 0.66 9 1 C9 1.33 9 1.66 9 2 C7.329375 2.433125 7.329375 2.433125 5.625 2.875 C1.99708908 3.69241329 1.99708908 3.69241329 0 6 C-0.32053126 8.08113808 -0.32053126 8.08113808 -0.30859375 10.46484375 C-0.33373047 11.34720703 -0.35886719 12.22957031 -0.38476562 13.13867188 C-0.41984699 15.0005828 -0.4511135 16.86256961 -0.47851562 18.72460938 C-0.50494141 19.60826172 -0.53136719 20.49191406 -0.55859375 21.40234375 C-0.57877563 22.61651978 -0.57877563 22.61651978 -0.59936523 23.85522461 C-1.09278156 26.49670077 -1.87789617 27.39326877 -4 29 C-6.5625 29.375 -6.5625 29.375 -9 29 C-9.66 28.01 -10.32 27.02 -11 26 C-8.36 26 -5.72 26 -3 26 C-3.0407666 25.44014404 -3.0815332 24.88028809 -3.12353516 24.3034668 C-3.30198269 21.76545854 -3.46366765 19.22665122 -3.625 16.6875 C-3.68945312 15.80642578 -3.75390625 14.92535156 -3.8203125 14.01757812 C-3.871875 13.17001953 -3.9234375 12.32246094 -3.9765625 11.44921875 C-4.02893066 10.66893311 -4.08129883 9.88864746 -4.13525391 9.0847168 C-4 7 -4 7 -2 4 C-1.34 4 -0.68 4 0 4 C0 2.68 0 1.36 0 0 Z " fill="#ACD23E" transform="translate(352,48)"/>
<path d="M0 0 C0.33 0 0.66 0 1 0 C1.04898437 0.73605469 1.09796875 1.47210938 1.1484375 2.23046875 C1.22320312 3.20628906 1.29796875 4.18210937 1.375 5.1875 C1.44460938 6.15042969 1.51421875 7.11335938 1.5859375 8.10546875 C2.00855844 11.05982835 2.65150305 13.34046435 4 16 C6.52372901 17.36078035 6.52372901 17.36078035 9 18 C9 18.66 9 19.32 9 20 C10.98 20 12.96 20 15 20 C15.33 20.66 15.66 21.32 16 22 C18.3140622 22.73075648 20.64828869 23.40138258 23 24 C23 24.33 23 24.66 23 25 C16.65624789 25.45312515 12.24955089 24.73421662 7 21 C0.0781986 14.25837565 0.0781986 14.25837565 -0.09765625 9.1796875 C-0.08605469 8.08914062 -0.07445312 6.99859375 -0.0625 5.875 C-0.05347656 4.77929688 -0.04445313 3.68359375 -0.03515625 2.5546875 C-0.02355469 1.71164063 -0.01195312 0.86859375 0 0 Z " fill="#ABD239" transform="translate(364,52)"/>
<path d="M0 0 C0.5 2.5625 0.5 2.5625 0 6 C-1.87688181 8.03114607 -3.87493878 9.68745228 -6.0546875 11.38671875 C-8.22891287 13.03314109 -8.22891287 13.03314109 -10 16 C-10.99 15.67 -11.98 15.34 -13 15 C-12.34 14.67 -11.68 14.34 -11 14 C-11.23203125 13.42507812 -11.4640625 12.85015625 -11.703125 12.2578125 C-12 10 -12 10 -10.671875 7.9296875 C-10.03765625 7.25164063 -9.4034375 6.57359375 -8.75 5.875 C-8.12609375 5.19179688 -7.5021875 4.50859375 -6.859375 3.8046875 C-2.93939394 0 -2.93939394 0 0 0 Z " fill="#B0D139" transform="translate(125,53)"/>
<path d="M0 0 C1.9375 0.625 1.9375 0.625 4 2 C4.75 5.125 4.75 5.125 5 8 C3.20866022 8.05391993 1.41686101 8.09275571 -0.375 8.125 C-1.37273437 8.14820312 -2.37046875 8.17140625 -3.3984375 8.1953125 C-6 8 -6 8 -8 6 C-6.75 3.5 -6.75 3.5 -5 1 C-3.68 1 -2.36 1 -1 1 C-0.67 0.67 -0.34 0.34 0 0 Z " fill="#A5DB1D" transform="translate(285,67)"/>
<path d="M0 0 C8.11387638 1.56609746 13.26885892 4.0061132 19 10 C18.34 11.32 17.68 12.64 17 14 C16.35933594 13.46890625 15.71867187 12.9378125 15.05859375 12.390625 C10.21803326 8.43738036 5.5437579 4.89239543 0 2 C0 1.34 0 0.68 0 0 Z " fill="#A2CA23" transform="translate(50,19)"/>
<path d="M0 0 C0.33 0 0.66 0 1 0 C1.33 1.65 1.66 3.3 2 5 C2.66 5 3.32 5 4 5 C4 4.34 4 3.68 4 3 C4.66 3 5.32 3 6 3 C6.33 3.99 6.66 4.98 7 6 C7.99 6.33 8.98 6.66 10 7 C10 7.66 10 8.32 10 9 C8.68 9.33 7.36 9.66 6 10 C8.64 10.33 11.28 10.66 14 11 C12 13 12 13 9.1875 13.375 C5.29958551 12.9175983 3.77434503 11.69507803 1 9 C-0.4783226 6.04335481 -0.06032783 3.25770263 0 0 Z " fill="#A9D238" transform="translate(452,122)"/>
<path d="M0 0 C3.14066418 5.15783873 2.64752944 11.12549062 3 17 C-1.95 17 -6.9 17 -12 17 C-11.34 14.03 -10.68 11.06 -10 8 C-9 12 -9 12 -9 15 C-6.36 15.33 -3.72 15.66 -1 16 C-0.14701624 12.32612505 0.10789471 8.9552607 0.0625 5.1875 C0.05347656 4.21167969 0.04445313 3.23585937 0.03515625 2.23046875 C0.02355469 1.49441406 0.01195313 0.75835937 0 0 Z " fill="#ACD437" transform="translate(97,132)"/>
<path d="M0 0 C1.65 0.33 3.3 0.66 5 1 C5.33 2.32 5.66 3.64 6 5 C1.11577419 7.76772796 -3.69568542 7.09564531 -9 6 C-12.125 4.4375 -12.125 4.4375 -14 3 C-12.68 2.67 -11.36 2.34 -10 2 C-10 2.66 -10 3.32 -10 4 C-5.545 3.505 -5.545 3.505 -1 3 C-0.67 2.01 -0.34 1.02 0 0 Z " fill="#ABD434" transform="translate(243,127)"/>
<path d="M0 0 C0.66 0.33 1.32 0.66 2 1 C3.0592918 4.17787541 3.11458939 6.42588943 3.09765625 9.76171875 C3.09443359 10.87998047 3.09121094 11.99824219 3.08789062 13.15039062 C3.07951172 14.31763672 3.07113281 15.48488281 3.0625 16.6875 C3.05798828 17.86634766 3.05347656 19.04519531 3.04882812 20.25976562 C3.03703273 23.17322789 3.0205727 26.08658863 3 29 C1.02 29.99 1.02 29.99 -1 31 C-1 30.34 -1 29.68 -1 29 C-0.34 29 0.32 29 1 29 C0.91621094 28.38511719 0.83242188 27.77023438 0.74609375 27.13671875 C0.64425781 26.32847656 0.54242188 25.52023438 0.4375 24.6875 C0.33308594 23.88699219 0.22867187 23.08648437 0.12109375 22.26171875 C0 20 0 20 1 17 C1.3053818 12.345203 1.3053818 12.345203 0 8 C0.4375 5.875 0.4375 5.875 1 4 C0.34 3.67 -0.32 3.34 -1 3 C-0.67 2.01 -0.34 1.02 0 0 Z " fill="#ACD436" transform="translate(418,102)"/>
<path d="M0 0 C0.99 0.66 1.98 1.32 3 2 C3.1875 4.625 3.1875 4.625 3 7 C2.7525 6.360625 2.505 5.72125 2.25 5.0625 C1.18811969 2.88787929 1.18811969 2.88787929 -0.8125 2.125 C-4.38621922 1.92078747 -7.02723558 3.48500707 -10.125 5.125 C-12 6 -12 6 -15 6 C-15.33 7.32 -15.66 8.64 -16 10 C-16.66 10 -17.32 10 -18 10 C-18.33 10.99 -18.66 11.98 -19 13 C-19.33 12.34 -19.66 11.68 -20 11 C-15.18099004 3.16910882 -9.63292464 -1.13328525 0 0 Z " fill="#ABD23A" transform="translate(361,39)"/>
<path d="M0 0 C-0.33 0.99 -0.66 1.98 -1 3 C-2.87945312 2.98259766 -2.87945312 2.98259766 -4.796875 2.96484375 C-6.44791517 2.95546284 -8.09895696 2.94636296 -9.75 2.9375 C-10.575 2.92912109 -11.4 2.92074219 -12.25 2.91210938 C-13.04921875 2.90888672 -13.8484375 2.90566406 -14.671875 2.90234375 C-15.4050293 2.89710693 -16.13818359 2.89187012 -16.89355469 2.88647461 C-19.05214584 3.00281036 -20.91010272 3.47025105 -23 4 C-25.33300933 4.03888349 -27.66709801 4.0448635 -30 4 C-21.45384813 -1.69743458 -9.84777015 -0.20563789 0 0 Z " fill="#ADD147" transform="translate(168,43)"/>
<path d="M0 0 C0.66 0 1.32 0 2 0 C3.125 6.625 3.125 6.625 2 10 C7.28 10 12.56 10 18 10 C18 10.33 18 10.66 18 11 C15.22858283 11.08089542 12.45952181 11.14044062 9.6875 11.1875 C8.90181641 11.21263672 8.11613281 11.23777344 7.30664062 11.26367188 C6.54931641 11.27333984 5.79199219 11.28300781 5.01171875 11.29296875 C4.31522217 11.3086792 3.61872559 11.32438965 2.90112305 11.34057617 C0.37498799 10.88803239 -0.50912055 10.06445349 -2 8 C-1.55555556 1.55555556 -1.55555556 1.55555556 0 0 Z " fill="#ADD538" transform="translate(267,123)"/>
<path d="M0 0 C0.66 0 1.32 0 2 0 C2.45375 0.474375 2.9075 0.94875 3.375 1.4375 C5.30652936 3.29473977 6.35386057 3.68868948 9 4 C11.68149993 3.61432869 11.68149993 3.61432869 14 3 C14.33 4.32 14.66 5.64 15 7 C14.01 7.33 13.02 7.66 12 8 C12 7.34 12 6.68 12 6 C10.35 7.32 8.7 8.64 7 10 C6.67 8.35 6.34 6.7 6 5 C5.21625 5.20625 4.4325 5.4125 3.625 5.625 C2.75875 5.74875 1.8925 5.8725 1 6 C0.34 5.34 -0.32 4.68 -1 4 C-0.625 1.875 -0.625 1.875 0 0 Z " fill="#AAD72A" transform="translate(232,118)"/>
<path d="M0 0 C0.33 0.99 0.66 1.98 1 3 C1.99 3.33 2.98 3.66 4 4 C1.20534048 7.23592155 -1.63332958 8.76477312 -5.92578125 9.19140625 C-10.07362138 9.30857688 -13.2211024 8.8894488 -17 7 C-14.27157939 5.63578969 -12.39046682 6.12192789 -9.375 6.4375 C-8.37210937 6.53933594 -7.36921875 6.64117187 -6.3359375 6.74609375 C-5.56507813 6.82988281 -4.79421875 6.91367188 -4 7 C-3.67 6.01 -3.34 5.02 -3 4 C-2.34 3.67 -1.68 3.34 -1 3 C-0.67 2.01 -0.34 1.02 0 0 Z " fill="#ACD338" transform="translate(326,68)"/>
<path d="M0 0 C0.66 0 1.32 0 2 0 C2.08701039 3.60401481 2.14039388 7.20776012 2.1875 10.8125 C2.22520508 12.34874023 2.22520508 12.34874023 2.26367188 13.91601562 C2.27333984 14.89892578 2.28300781 15.88183594 2.29296875 16.89453125 C2.3086792 17.80050049 2.32438965 18.70646973 2.34057617 19.63989258 C2 22 2 22 -1 25 C-0.67 16.75 -0.34 8.5 0 0 Z " fill="#A9CD45" transform="translate(385,108)"/>
<path d="M0 0 C0.66 0 1.32 0 2 0 C2.10824843 1.6026782 2.18570645 3.20745748 2.25 4.8125 C2.29640625 5.70582031 2.3428125 6.59914063 2.390625 7.51953125 C2 10 2 10 0.14453125 11.8359375 C-2 13 -2 13 -4.5625 12.8125 C-7 12 -7 12 -10 10 C-9.67 9.67 -9.34 9.34 -9 9 C-7 9 -5 9 -3 9 C-2.34 8.67 -1.68 8.34 -1 8 C-0.53476937 6.10466658 -0.53476937 6.10466658 -0.375 3.9375 C-0.25125 2.638125 -0.1275 1.33875 0 0 Z " fill="#ACD43B" transform="translate(257,64)"/>
<path d="M0 0 C0.99 0 1.98 0 3 0 C3 0.66 3 1.32 3 2 C4.32 1.67 5.64 1.34 7 1 C8.28317892 4.84953676 8.06643637 7.94738135 8 12 C7.34 11.34 6.68 10.68 6 10 C5.01 10.495 5.01 10.495 4 11 C3.67 9.02 3.34 7.04 3 5 C2.01 5.33 1.02 5.66 0 6 C0 4.02 0 2.04 0 0 Z M4 3 C5 6 5 6 5 6 Z " fill="#B8DF2D" transform="translate(75,52)"/>
<path d="M0 0 C0.99 0.66 1.98 1.32 3 2 C-0.68538196 7.71869615 -0.68538196 7.71869615 -2.60473633 9.43481445 C-4.38832359 11.43561549 -4.41769751 12.57906988 -4.51171875 15.23046875 C-4.54716797 16.03291016 -4.58261719 16.83535156 -4.61914062 17.66210938 C-4.64169922 18.49548828 -4.66425781 19.32886719 -4.6875 20.1875 C-4.72166016 21.03248047 -4.75582031 21.87746094 -4.79101562 22.74804688 C-4.87341471 24.83156649 -4.93838645 26.91576216 -5 29 C-5.33 29 -5.66 29 -6 29 C-6.08701039 25.39598519 -6.14039388 21.79223988 -6.1875 18.1875 C-6.21263672 17.16333984 -6.23777344 16.13917969 -6.26367188 15.08398438 C-6.27333984 14.10107422 -6.28300781 13.11816406 -6.29296875 12.10546875 C-6.3086792 11.19949951 -6.32438965 10.29353027 -6.34057617 9.36010742 C-6 7 -6 7 -4.60668945 5.1809082 C-3 4 -3 4 -1 4 C-0.67 2.68 -0.34 1.36 0 0 Z " fill="#AAD72A" transform="translate(346,45)"/>
<path d="M0 0 C4.69746898 3.57578681 7.74416762 7.10793328 10.8125 12.125 C11.20630859 12.74503906 11.60011719 13.36507812 12.00585938 14.00390625 C13.66032798 16.64311003 15.01150911 19.03452734 16 22 C15.01 22 14.02 22 13 22 C10 16.25 10 16.25 10 14 C9.34 14 8.68 14 8 14 C6.5625 11.953125 6.5625 11.953125 5 9.25 C4.484375 8.36828125 3.96875 7.4865625 3.4375 6.578125 C2.22849521 4.4098012 1.08486923 2.23232706 0 0 Z " fill="#ADD638" transform="translate(62,30)"/>
<path d="M0 0 C0.66 0.33 1.32 0.66 2 1 C1.67 1.33 1.34 1.66 1 2 C0.44208984 5.42353959 0.3595424 8.58599046 1 12 C3.7685075 15.65574432 7.50306427 17.12470997 11.9375 17.8125 C12.948125 17.874375 13.95875 17.93625 15 18 C15 18.33 15 18.66 15 19 C5.0625 19.58455882 5.0625 19.58455882 1 16 C-1.88996237 11.61522951 -2.4913517 8.20832803 -2 3 C-1.34 2.01 -0.68 1.02 0 0 Z " fill="#AED438" transform="translate(265,101)"/>
<path d="M0 0 C6.69286912 -0.47617251 10.77531236 -0.39973696 16 4 C15.67 4.66 15.34 5.32 15 6 C13.906875 5.46375 12.81375 4.9275 11.6875 4.375 C10.470625 3.92125 9.25375 3.4675 8 3 C7.01 3.66 6.02 4.32 5 5 C2.3125 4.125 2.3125 4.125 0 3 C0 2.01 0 1.02 0 0 Z M0 4 C0.66 4 1.32 4 2 4 C2 4.66 2 5.32 2 6 C1.34 6 0.68 6 0 6 C0 5.34 0 4.68 0 4 Z " fill="#ABD72F" transform="translate(402,96)"/>
<path d="M0 0 C1.65 0.33 3.3 0.66 5 1 C5 1.99 5 2.98 5 4 C8.3 4.33 11.6 4.66 15 5 C11.27649978 7.48233348 8.31433067 7.54322777 4 7 C1.50920001 6.19002181 -0.64606575 5.17696713 -3 4 C-2.01 2.68 -1.02 1.36 0 0 Z " fill="#ABD538" transform="translate(274,70)"/>
<path d="M0 0 C1.2065625 0.0309375 1.2065625 0.0309375 2.4375 0.0625 C1.4475 1.5475 1.4475 1.5475 0.4375 3.0625 C-2.51314148 3.2833564 -5.24618231 3.34310989 -8.1875 3.25 C-8.98929687 3.23646484 -9.79109375 3.22292969 -10.6171875 3.20898438 C-12.59924378 3.17359051 -14.58095551 3.11978234 -16.5625 3.0625 C-16.5625 6.3625 -16.5625 9.6625 -16.5625 13.0625 C-18.44593932 9.29562136 -18.78307835 8.03291037 -18.5625 4.0625 C-19.2225 4.0625 -19.8825 4.0625 -20.5625 4.0625 C-20.2325 3.0725 -19.9025 2.0825 -19.5625 1.0625 C-19.5625 1.7225 -19.5625 2.3825 -19.5625 3.0625 C-18.9025 2.7325 -18.2425 2.4025 -17.5625 2.0625 C-13.92863567 1.74536275 -10.29402308 1.55078964 -6.65234375 1.34375 C-3.40016427 1.04772355 -3.1001667 0.07561382 0 0 Z " fill="#AED73D" transform="translate(326.5625,102.9375)"/>
<path d="M0 0 C0.66 0.33 1.32 0.66 2 1 C1.01 2.485 1.01 2.485 0 4 C0.99 4.66 1.98 5.32 3 6 C2.67 7.65 2.34 9.3 2 11 C1.67 10.34 1.34 9.68 1 9 C0.34 9 -0.32 9 -1 9 C-1 10.65 -1 12.3 -1 14 C-1.99 13.34 -2.98 12.68 -4 12 C-4.56823055 7.697683 -4.46762853 5.6868294 -2 2.0625 C-1.34 1.381875 -0.68 0.70125 0 0 Z " fill="#A6D133" transform="translate(431,117)"/>
<path d="M0 0 C2.125 0.9375 2.125 0.9375 4 2 C4 2.66 4 3.32 4 4 C4.66 4.33 5.32 4.66 6 5 C2.75 6.625 2.75 6.625 -1 8 C-3.4375 7.1875 -3.4375 7.1875 -5 6 C-4.34 5.34 -3.68 4.68 -3 4 C-2.67 3.01 -2.34 2.02 -2 1 C-1.34 0.67 -0.68 0.34 0 0 Z " fill="#A8D829" transform="translate(286,126)"/>
<path d="M0 0 C3 1 3 1 4.5 2.5625 C6.01472806 4.34595268 6.01472806 4.34595268 9 4 C9.33 5.65 9.66 7.3 10 9 C10.99 9.33 11.98 9.66 13 10 C13 10.66 13 11.32 13 12 C13.99 12.33 14.98 12.66 16 13 C16 13.66 16 14.32 16 15 C9.06601197 11.84255902 3.81265662 6.51328839 0 0 Z " fill="#AAD139" transform="translate(24,80)"/>
<path d="M0 0 C4.1610986 1.53303633 5.53935571 2.30903357 8 6 C7.46375 5.71125 6.9275 5.4225 6.375 5.125 C0.6802851 2.42750347 -3.78244517 1.78560156 -10 2 C-10.33 2.66 -10.66 3.32 -11 4 C-14.0625 4.625 -14.0625 4.625 -17 5 C-11.60468124 -0.57516272 -7.61496356 -0.6122044 0 0 Z " fill="#ABD23B" transform="translate(359,96)"/>
<path d="M0 0 C0.99 0 1.98 0 3 0 C3 0.99 3 1.98 3 3 C3.66 3.33 4.32 3.66 5 4 C2.98177083 4.42317708 0.96354167 4.84635417 -1.0546875 5.26953125 C-3.37046549 5.92308838 -3.37046549 5.92308838 -5 9 C-5.07905064 11.33199388 -5.08798769 13.66832622 -5 16 C-5.66 16 -6.32 16 -7 16 C-7.07654536 11.48382401 -7.10228696 7.40914783 -6 3 C-4.02 3 -2.04 3 0 3 C0 2.01 0 1.02 0 0 Z " fill="#AAD236" transform="translate(238,46)"/>
<path d="M0 0 C2.06132142 -0.10864945 4.12431321 -0.18588321 6.1875 -0.25 C7.33605469 -0.29640625 8.48460937 -0.3428125 9.66796875 -0.390625 C13.64203438 0.07526781 15.20184047 1.20184047 18 4 C18.8125 6.25 18.8125 6.25 19 8 C16.525 7.505 16.525 7.505 14 7 C14 5.68 14 4.36 14 3 C9.38 2.34 4.76 1.68 0 1 C0 0.67 0 0.34 0 0 Z " fill="#AAD435" transform="translate(276,110)"/>
<path d="M0 0 C-2.65777049 2.65777049 -5.54304827 3.56953721 -9 5 C-10.34013497 5.65288627 -11.67741528 6.31225595 -13 7 C-13 5.68 -13 4.36 -13 3 C-11.5903653 2.29819469 -10.17192359 1.61406042 -8.75 0.9375 C-7.96109375 0.55464844 -7.1721875 0.17179687 -6.359375 -0.22265625 C-3.74006478 -1.08564091 -2.55144824 -0.93045933 0 0 Z " fill="#A8D234" transform="translate(140,48)"/>
<path d="M0 0 C3.77545388 1.09068668 6.47043472 1.9083091 9 5 C9.33 4.34 9.66 3.68 10 3 C10 4.98 10 6.96 10 9 C7.27425729 8.62669176 6.19177915 8.20805399 4.296875 6.15234375 C3.53117187 5.05599609 3.53117187 5.05599609 2.75 3.9375 C2.22921875 3.20402344 1.7084375 2.47054687 1.171875 1.71484375 C0.78515625 1.14894531 0.3984375 0.58304687 0 0 Z " fill="#B5DE3F" transform="translate(73,85)"/>
<path d="M0 0 C1.32 0 2.64 0 4 0 C4 1.98 4 3.96 4 6 C3.34 6 2.68 6 2 6 C2 6.66 2 7.32 2 8 C1.01 8.33 0.02 8.66 -1 9 C-1.09765625 2.84765625 -1.09765625 2.84765625 -1 1 C-0.67 0.67 -0.34 0.34 0 0 Z " fill="#A7D524" transform="translate(454,119)"/>
<path d="M0 0 C1 3 1 3 0.00390625 5.04296875 C-0.47175781 5.75066406 -0.94742188 6.45835938 -1.4375 7.1875 C-1.91058594 7.90292969 -2.38367188 8.61835937 -2.87109375 9.35546875 C-3.42990234 10.16951172 -3.42990234 10.16951172 -4 11 C-5.32 10.01 -6.64 9.02 -8 8 C-7.04578192 6.85073734 -6.08647955 5.70569459 -5.125 4.5625 C-4.59132813 3.92441406 -4.05765625 3.28632812 -3.5078125 2.62890625 C-2 1 -2 1 0 0 Z " fill="#B5D13F" transform="translate(107,97)"/>
<path d="M0 0 C0.66 0 1.32 0 2 0 C1.4520917 4.2829452 -0.02432804 6.85135641 -2.5625 10.3125 C-3.20316406 11.19550781 -3.84382812 12.07851562 -4.50390625 12.98828125 C-4.99761719 13.65214844 -5.49132812 14.31601563 -6 15 C-7 12 -7 12 -5.5625 8.8125 C-5.046875 7.884375 -4.53125 6.95625 -4 6 C-3.34 6 -2.68 6 -2 6 C-2 5.34 -2 4.68 -2 4 C-1.34 4 -0.68 4 0 4 C0 2.68 0 1.36 0 0 Z " fill="#AAD038" transform="translate(151,77)"/>
<path d="M0 0 C1.32 0.66 2.64 1.32 4 2 C2.02 2.99 2.02 2.99 0 4 C0 10.27 0 16.54 0 23 C-0.33 23 -0.66 23 -1 23 C-1.02887512 19.35418313 -1.04675585 15.70839537 -1.0625 12.0625 C-1.07087891 11.02158203 -1.07925781 9.98066406 -1.08789062 8.90820312 C-1.09272461 7.42416992 -1.09272461 7.42416992 -1.09765625 5.91015625 C-1.10289307 4.99371338 -1.10812988 4.07727051 -1.11352539 3.13305664 C-1 1 -1 1 0 0 Z " fill="#ADD82F" transform="translate(406,29)"/>
<path d="M0 0 C2.64 0.33 5.28 0.66 8 1 C8 2.65 8 4.3 8 6 C6.68 6.33 5.36 6.66 4 7 C3.67 5.68 3.34 4.36 3 3 C2.01 3 1.02 3 0 3 C0 2.01 0 1.02 0 0 Z " fill="#A3DB1A" transform="translate(250,100)"/>
<path d="M0 0 C0.66 0 1.32 0 2 0 C0.43870938 4.21548466 -2.58691713 6.22687017 -6 9 C-6.99 10.485 -6.99 10.485 -8 12 C-8.99 11.67 -9.98 11.34 -11 11 C-10.34 10.67 -9.68 10.34 -9 10 C-9.33 9.34 -9.66 8.68 -10 8 C-8.9171875 7.4121875 -8.9171875 7.4121875 -7.8125 6.8125 C-4.8618632 5.05118216 -4.8618632 5.05118216 -2.3125 2.3125 C-1.549375 1.549375 -0.78625 0.78625 0 0 Z " fill="#AAD425" transform="translate(123,57)"/>
<path d="M0 0 C0.33 0.66 0.66 1.32 1 2 C1.66 2 2.32 2 3 2 C3 2.66 3 3.32 3 4 C3.66 4 4.32 4 5 4 C5.33 5.98 5.66 7.96 6 10 C4.9790625 8.7934375 4.9790625 8.7934375 3.9375 7.5625 C0.51522698 4.57711289 -1.5428126 4.26218749 -6 4 C-4 2.66666667 -2 1.33333333 0 0 Z " fill="#ABD335" transform="translate(385,46)"/>
<path d="M0 0 C0.33 0.66 0.66 1.32 1 2 C-0.32 2 -1.64 2 -3 2 C-3 2.99 -3 3.98 -3 5 C-6.26954202 4.43628586 -7.82575883 3.50037734 -10 1 C-6.44020218 -1.32756011 -4.04793886 -1.07945036 0 0 Z " fill="#A7D132" transform="translate(490,117)"/>
<path d="M0 0 C0.66 0.33 1.32 0.66 2 1 C2.4140625 3.06640625 2.4140625 3.06640625 2.625 5.5625 C2.69976562 6.38878906 2.77453125 7.21507813 2.8515625 8.06640625 C2.90054688 8.70449219 2.94953125 9.34257813 3 10 C1.02 10.66 -0.96 11.32 -3 12 C-2.690625 11.505 -2.38125 11.01 -2.0625 10.5 C-0.58355618 7.02013219 -0.37597149 3.75971491 0 0 Z " fill="#AAD438" transform="translate(249,109)"/>
<path d="M0 0 C0.99 0.33 1.98 0.66 3 1 C3 2.65 3 4.3 3 6 C2.01 6.33 1.02 6.66 0 7 C-0.99 6.01 -1.98 5.02 -3 4 C-2.67 3.01 -2.34 2.02 -2 1 C-1.34 0.67 -0.68 0.34 0 0 Z " fill="#ACD133" transform="translate(497,128)"/>
<path d="M0 0 C0.99 0.66 1.98 1.32 3 2 C2.625 3.9375 2.625 3.9375 2 6 C1.01 6.495 1.01 6.495 0 7 C-0.99 6.34 -1.98 5.68 -3 5 C-2.625 3.0625 -2.625 3.0625 -2 1 C-1.34 0.67 -0.68 0.34 0 0 Z " fill="#ACD23A" transform="translate(448,128)"/>
<path d="M0 0 C1.32 0.66 2.64 1.32 4 2 C3.6875 3.9375 3.6875 3.9375 3 6 C2.01 6.33 1.02 6.66 0 7 C-0.66 6.34 -1.32 5.68 -2 5 C-1.46428571 1.46428571 -1.46428571 1.46428571 0 0 Z " fill="#B0CE35" transform="translate(472,128)"/>
<path d="M0 0 C0.99 0.33 1.98 0.66 3 1 C3 1.66 3 2.32 3 3 C4.32 3.33 5.64 3.66 7 4 C6.67 4.99 6.34 5.98 6 7 C4.35 6.67 2.7 6.34 1 6 C0.67 4.02 0.34 2.04 0 0 Z " fill="#A5D920" transform="translate(429,125)"/>
<path d="M0 0 C5.44693314 -0.09688221 10.63904667 -0.12862175 16 1 C16 1.66 16 2.32 16 3 C11.545 3.495 11.545 3.495 7 4 C7 3.01 7 2.02 7 1 C4.69 1 2.38 1 0 1 C0 0.67 0 0.34 0 0 Z " fill="#ACD436" transform="translate(385,96)"/>
<path d="M0 0 C3.94949704 0.62816498 7.19892028 1.8645529 10.8125 3.5625 C12.27623047 4.24505859 12.27623047 4.24505859 13.76953125 4.94140625 C14.87361328 5.46541016 14.87361328 5.46541016 16 6 C13.04893565 7.25348607 12.02593537 7.01044806 8.984375 5.78515625 C7.91703125 5.21667969 6.8496875 4.64820312 5.75 4.0625 C4.67234375 3.49660156 3.5946875 2.93070312 2.484375 2.34765625 C1.66453125 1.90292969 0.8446875 1.45820312 0 1 C0 0.67 0 0.34 0 0 Z " fill="#ACD443" transform="translate(40,95)"/>
<path d="M0 0 C0.33 0 0.66 0 1 0 C0.67 4.62 0.34 9.24 0 14 C-0.66 13.67 -1.32 13.34 -2 13 C-2.05416188 11.39620659 -2.09286638 9.79188594 -2.125 8.1875 C-2.14820312 7.29417969 -2.17140625 6.40085937 -2.1953125 5.48046875 C-2 3 -2 3 0 0 Z " fill="#A9D139" transform="translate(97,118)"/>
<path d="M0 0 C1.60892302 4.02230755 0.26028279 7.00910451 -1 11 C-1.35371498 12.66246041 -1.69595322 14.32774271 -2 16 C-2.33 16 -2.66 16 -3 16 C-3.32712342 9.86946489 -3.39366878 5.37330889 0 0 Z " fill="#AACF40" transform="translate(338,104)"/>
<path d="M0 0 C1.98 0.66 3.96 1.32 6 2 C4.38405168 4.04119788 2.7143618 6.04072937 1 8 C0.34 8 -0.32 8 -1 8 C-0.67 5.36 -0.34 2.72 0 0 Z " fill="#B6D757" transform="translate(105,89)"/>
<path d="M0 0 C0.78375 0.33 1.5675 0.66 2.375 1 C4.84332497 2.11866511 4.84332497 2.11866511 7 2 C6.814375 2.61875 6.62875 3.2375 6.4375 3.875 C5.76313824 6.04160178 5.76313824 6.04160178 7 8 C3.64379729 6.61122646 1.92701272 5.08322035 0 2 C0 1.34 0 0.68 0 0 Z " fill="#A9D432" transform="translate(264,65)"/>
<path d="M0 0 C1 4 1 4 1 7 C3.97 7.33 6.94 7.66 10 8 C10 8.33 10 8.66 10 9 C6.04 9 2.08 9 -2 9 C-1.34 6.03 -0.68 3.06 0 0 Z " fill="#B4DB45" transform="translate(87,140)"/>
<path d="M0 0 C0.66 0.99 1.32 1.98 2 3 C3.65 2.34 5.3 1.68 7 1 C7.33 1.66 7.66 2.32 8 3 C3.545 4.485 3.545 4.485 -1 6 C-1.042721 4.33388095 -1.04063832 2.66617115 -1 1 C-0.67 0.67 -0.34 0.34 0 0 Z " fill="#B5DD28" transform="translate(126,51)"/>
<path d="M0 0 C3 5.625 3 5.625 3 9 C1.8274869 8.04882866 0.66212985 7.08882991 -0.5 6.125 C-1.1496875 5.59132813 -1.799375 5.05765625 -2.46875 4.5078125 C-2.9740625 4.01023437 -3.479375 3.51265625 -4 3 C-4 2.34 -4 1.68 -4 1 C-2 0 -2 0 0 0 Z " fill="#B5DA4B" transform="translate(69,76)"/>
<path d="M0 0 C2 2 2 2 2.4375 4.0625 C2.7159375 5.0215625 2.7159375 5.0215625 3 6 C3.99 6.33 4.98 6.66 6 7 C7.1875 9.5625 7.1875 9.5625 8 12 C5.11538849 10.70689829 2.87147927 9.58442376 1 7 C0.3125 3.3125 0.3125 3.3125 0 0 Z " fill="#ADD23A" transform="translate(405,63)"/>
<path d="M0 0 C2.875 0.3125 2.875 0.3125 6 1 C8 4 8 4 7.625 6.6875 C7.41875 7.450625 7.2125 8.21375 7 9 C6.67 9 6.34 9 6 9 C5.62875 7.6078125 5.62875 7.6078125 5.25 6.1875 C3.93545755 2.83541675 3.02036616 1.8122197 0 0 Z " fill="#ADCE3F" transform="translate(358,121)"/>
<path d="M0 0 C0 0.66 0 1.32 0 2 C-0.763125 2.4125 -1.52625 2.825 -2.3125 3.25 C-5.59301885 5.38615181 -6.49933644 7.44579683 -8 11 C-8.8125 9.375 -8.8125 9.375 -9 7 C-3.92156863 0 -3.92156863 0 0 0 Z " fill="#A7CF3F" transform="translate(385,97)"/>
<path d="M0 0 C0.99 0.99 1.98 1.98 3 3 C0.69 4.65 -1.62 6.3 -4 8 C-4.66 7.67 -5.32 7.34 -6 7 C-4.71034824 5.62437146 -3.37310707 4.29233607 -2 3 C-1.34 3 -0.68 3 0 3 C0 2.01 0 1.02 0 0 Z " fill="#A9D42F" transform="translate(141,90)"/>
<path d="M0 0 C3.94139078 1.66751148 6.7892812 4.22710649 10 7 C6.65580848 7 5.93159679 6.52480606 3.3125 4.625 C2.68988281 4.18414063 2.06726562 3.74328125 1.42578125 3.2890625 C0.95527344 2.86367188 0.48476563 2.43828125 0 2 C0 1.34 0 0.68 0 0 Z " fill="#ADCF37" transform="translate(59,22)"/>
<path d="M0 0 C2.97 0.99 5.94 1.98 9 3 C9 3.66 9 4.32 9 5 C5.65626525 4.44271087 2.96687001 3.64826111 0 2 C0 1.34 0 0.68 0 0 Z " fill="#A0CF13" transform="translate(50,19)"/>
<path d="M0 0 C-0.33 0.99 -0.66 1.98 -1 3 C-3.31 3 -5.62 3 -8 3 C-7.34 2.67 -6.68 2.34 -6 2 C-6 1.34 -6 0.68 -6 0 C-3 -1 -3 -1 0 0 Z " fill="#AED531" transform="translate(323,131)"/>
<path d="M0 0 C2.32590854 3.63423209 2.16265833 6.77088331 2 11 C1.01 10.34 0.02 9.68 -1 9 C-1.4375 2.875 -1.4375 2.875 0 0 Z " fill="#A9D345" transform="translate(428,120)"/>
<path d="M0 0 C0.66 0.33 1.32 0.66 2 1 C1.67 2.65 1.34 4.3 1 6 C-0.98 6.33 -2.96 6.66 -5 7 C-5.33 6.34 -5.66 5.68 -6 5 C-4.68 5.33 -3.36 5.66 -2 6 C-2 5.34 -2 4.68 -2 4 C-1.34 4 -0.68 4 0 4 C0 2.68 0 1.36 0 0 Z " fill="#AAD238" transform="translate(401,127)"/>
<path d="M0 0 C0.66 0 1.32 0 2 0 C2.33 0.99 2.66 1.98 3 3 C2.67 3.66 2.34 4.32 2 5 C1.77532169 6.53668865 1.59203195 8.07968054 1.4375 9.625 C1.35371094 10.44226562 1.26992188 11.25953125 1.18359375 12.1015625 C1.12300781 12.72804688 1.06242187 13.35453125 1 14 C0.67 14 0.34 14 0 14 C0 9.38 0 4.76 0 0 Z " fill="#ADD72E" transform="translate(299,41)"/>
<path d="M0 0 C3.82946843 1.45255699 5.12050295 3.42895561 7 7 C6.34 7.66 5.68 8.32 5 9 C2 4.25 2 4.25 2 2 C1.34 2 0.68 2 0 2 C0 1.34 0 0.68 0 0 Z " fill="#BCD05C" transform="translate(79,100)"/>
<path d="M0 0 C0.94875 0.04125 1.8975 0.0825 2.875 0.125 C2.875 0.455 2.875 0.785 2.875 1.125 C1.225 1.125 -0.425 1.125 -2.125 1.125 C-2.125 2.115 -2.125 3.105 -2.125 4.125 C-2.785 4.125 -3.445 4.125 -4.125 4.125 C-4.125 5.775 -4.125 7.425 -4.125 9.125 C-4.455 9.125 -4.785 9.125 -5.125 9.125 C-5.25 5.75 -5.25 5.75 -5.125 2.125 C-3.125 0.125 -3.125 0.125 0 0 Z " fill="#ACD13F" transform="translate(254.125,95.875)"/>
<path d="M0 0 C0 2.97 0 5.94 0 9 C-2 7 -2 7 -3 4 C-3.66 3.67 -4.32 3.34 -5 3 C-2.25 0 -2.25 0 0 0 Z " fill="#AEDC38" transform="translate(120,87)"/>
<path d="M0 0 C3.08089673 2.77280706 4.68775452 5.06326356 6 9 C4.68 8.67 3.36 8.34 2 8 C1.34 5.36 0.68 2.72 0 0 Z " fill="#B3DA44" transform="translate(64,80)"/>
<path d="M0 0 C0.33 0 0.66 0 1 0 C2.25 7.625 2.25 7.625 0 11 C-0.66 11 -1.32 11 -2 11 C-2 9.35 -2 7.7 -2 6 C-1.67 6 -1.34 6 -1 6 C-0.67 4.02 -0.34 2.04 0 0 Z " fill="#C0E544" transform="translate(83,57)"/>
<path d="M0 0 C2.475 0.99 2.475 0.99 5 2 C5 3.65 5 5.3 5 7 C4.34 6.34 3.68 5.68 3 5 C2.01 5.495 2.01 5.495 1 6 C0.67 4.02 0.34 2.04 0 0 Z " fill="#AFD92B" transform="translate(78,57)"/>
<path d="M0 0 C3.93673644 1.31224548 6.22719294 2.91910327 9 6 C6.03 5.01 3.06 4.02 0 3 C0 2.01 0 1.02 0 0 Z " fill="#ACD234" transform="translate(50,16)"/>
<path d="M0 0 C2 1 2 1 4 4 C1.36 4 -1.28 4 -4 4 C-4.33 3.34 -4.66 2.68 -5 2 C-3.35 2 -1.7 2 0 2 C0 1.34 0 0.68 0 0 Z " fill="#A7DA1E" transform="translate(462,129)"/>
<path d="M0 0 C0.99 0 1.98 0 3 0 C3.66 1.65 4.32 3.3 5 5 C3.68 5 2.36 5 1 5 C0.67 3.35 0.34 1.7 0 0 Z " fill="#A6DB1B" transform="translate(478,125)"/>
<path d="M0 0 C1.65 0.33 3.3 0.66 5 1 C4.01 1.680625 4.01 1.680625 3 2.375 C2.01 3.179375 2.01 3.179375 1 4 C1 4.66 1 5.32 1 6 C-0.32 5.67 -1.64 5.34 -3 5 C-2.01 3.35 -1.02 1.7 0 0 Z " fill="#ACDB19" transform="translate(433,116)"/>
<path d="M0 0 C0.66 0 1.32 0 2 0 C1.6875 2.375 1.6875 2.375 1 5 C0.01 5.66 -0.98 6.32 -2 7 C-2.66 5.68 -3.32 4.36 -4 3 C-3.01 3 -2.02 3 -1 3 C-0.67 2.01 -0.34 1.02 0 0 Z " fill="#7D6B52" transform="translate(217,88)"/>
<path d="M0 0 C0.66 0.99 1.32 1.98 2 3 C1.34 3.66 0.68 4.32 0 5 C-0.40047444 7.32275177 -0.7397104 9.65739357 -1 12 C-1.33 12 -1.66 12 -2 12 C-2.33 9.36 -2.66 6.72 -3 4 C-2.01 3.67 -1.02 3.34 0 3 C0 2.01 0 1.02 0 0 Z " fill="#A8CF3E" transform="translate(376,49)"/>
<path d="M0 0 C4.875 2.625 4.875 2.625 6 6 C4.35 5.67 2.7 5.34 1 5 C0.67 3.35 0.34 1.7 0 0 Z " fill="#AACE37" transform="translate(249,41)"/>
<path d="M0 0 C0.66 0 1.32 0 2 0 C2 1.32 2 2.64 2 4 C-0.64 4 -3.28 4 -6 4 C-5.38125 3.71125 -4.7625 3.4225 -4.125 3.125 C-1.86674235 2.06279958 -1.86674235 2.06279958 0 0 Z " fill="#AAD62B" transform="translate(291,101)"/>
<path d="M0 0 C0.66 0 1.32 0 2 0 C3.4783226 2.95664519 3.06032783 5.74229737 3 9 C0.87491756 5.81237635 0.4979837 3.73487777 0 0 Z " fill="#ACD533" transform="translate(257,97)"/>
<path d="M0 0 C0.33 0.99 0.66 1.98 1 3 C1.33 2.34 1.66 1.68 2 1 C3.65 1.33 5.3 1.66 7 2 C6.67 2.66 6.34 3.32 6 4 C4.02 4 2.04 4 0 4 C-0.33 3.34 -0.66 2.68 -1 2 C-0.67 1.34 -0.34 0.68 0 0 Z " fill="#ACD82F" transform="translate(124,97)"/>
<path d="M0 0 C2.97 0 5.94 0 9 0 C8.01 1.485 8.01 1.485 7 3 C4.5 3.375 4.5 3.375 2 3 C1.34 2.01 0.68 1.02 0 0 Z " fill="#ACCE48" transform="translate(341,74)"/>
<path d="M0 0 C-2.31 1.32 -4.62 2.64 -7 4 C-7 2.68 -7 1.36 -7 0 C-3.98968256 -0.93423645 -3.13349732 -1.04449911 0 0 Z " fill="#A4CC20" transform="translate(134,51)"/>
<path d="M0 0 C4.875 4.625 4.875 4.625 6 8 C2.83884224 6.63016497 2.0072908 6.0109362 0 3 C0 2.01 0 1.02 0 0 Z " fill="#B0D32B" transform="translate(68,31)"/>
</svg>
