<?xml version="1.0" standalone="no"?>
<!DOCTYPE svg PUBLIC "-//W3C//DTD SVG 20010904//EN"
 "http://www.w3.org/TR/2001/REC-SVG-20010904/DTD/svg10.dtd">
<svg version="1.0" xmlns="http://www.w3.org/2000/svg"
 width="438.000000pt" height="570.000000pt" viewBox="0 0 438.000000 570.000000"
 preserveAspectRatio="xMidYMid meet">

<g transform="translate(0.000000,570.000000) scale(0.100000,-0.100000)"
fill="#000000" stroke="none">
<path d="M2100 5481 c-85 -11 -175 -33 -301 -74 -395 -130 -791 -421 -1095
-803 -116 -147 -262 -400 -334 -579 -17 -44 -36 -89 -41 -100 -10 -23 -59
-191 -83 -285 -27 -107 -45 -247 -50 -390 l-6 -135 14 90 c76 503 364 1019
765 1368 152 133 282 226 416 297 44 23 89 48 100 55 29 17 136 62 235 96 223
79 493 119 666 99 103 -11 224 -43 385 -98 123 -43 167 -59 474 -175 329 -124
458 -157 609 -157 88 0 112 4 157 24 102 46 148 109 175 241 18 85 14 125 -5
52 -8 -34 -24 -61 -55 -92 -52 -52 -84 -60 -200 -52 -131 8 -269 68 -866 373
-235 121 -346 168 -515 221 -67 21 -104 26 -230 28 -82 2 -179 0 -215 -4z"/>
<path d="M1918 4968 c-12 -9 -31 -87 -69 -280 -28 -147 -49 -274 -46 -283 12
-28 37 -29 63 -1 13 14 19 21 12 16 -7 -6 -20 -10 -30 -10 -27 0 -23 42 17
215 84 354 86 368 53 343z"/>
<path d="M2253 4962 c-12 -11 -27 -62 -42 -142 -13 -69 -36 -189 -52 -268 -33
-161 -35 -182 -17 -164 18 18 38 82 43 137 2 28 22 125 43 215 60 249 61 259
25 222z"/>
<path d="M2687 4673 c-12 -11 -8 -44 10 -73 14 -25 19 -27 45 -18 16 6 31 8
33 6 3 -2 -11 -34 -31 -71 -43 -81 -44 -131 -4 -134 15 -2 37 7 55 24 l30 26
-28 -17 c-65 -39 -70 0 -16 128 16 39 27 71 25 73 -2 2 -14 -1 -28 -6 -27 -10
-54 1 -44 18 16 25 -27 65 -47 44z m33 -34 c0 -11 -4 -17 -10 -14 -5 3 -10 13
-10 21 0 8 5 14 10 14 6 0 10 -9 10 -21z"/>
<path d="M1438 4617 c-10 -7 -23 -47 -33 -102 -9 -49 -19 -101 -22 -114 -11
-46 18 -16 36 37 33 97 121 199 137 159 3 -8 -4 -55 -16 -105 -24 -110 -24
-113 -5 -106 8 4 15 12 15 19 0 26 81 173 103 188 42 27 48 10 30 -90 -14 -75
-14 -95 -3 -107 18 -23 33 -20 61 12 13 15 17 21 9 15 -8 -7 -22 -13 -32 -13
-23 0 -23 24 -1 118 16 68 16 73 0 90 -16 15 -20 15 -45 2 -15 -9 -42 -37 -60
-64 l-33 -49 7 55 c6 52 5 56 -16 63 -30 9 -65 -17 -108 -81 -19 -27 -31 -40
-28 -29 31 119 31 124 4 102z"/>
<path d="M1992 4607 c-62 -42 -93 -153 -56 -205 24 -35 85 -30 126 9 29 28 30
29 4 10 -38 -28 -80 -27 -100 1 -25 35 -20 46 34 73 29 15 59 39 70 58 24 39
24 41 4 61 -21 21 -42 19 -82 -7z m65 -7 c7 -34 -69 -118 -96 -108 -14 5 13
76 40 104 25 26 52 28 56 4z"/>
<path d="M2300 4622 c-59 -27 -118 -94 -100 -115 6 -6 25 -37 43 -67 38 -65
62 -73 97 -33 14 15 18 22 10 16 -33 -29 -58 -16 -90 47 -16 33 -30 66 -30 75
0 19 57 55 86 55 12 0 24 7 28 15 6 16 -16 19 -44 7z"/>
<path d="M2505 4623 c-30 -7 -85 -63 -106 -108 -34 -74 -18 -135 36 -135 26 0
80 41 96 74 6 13 2 11 -12 -7 -24 -32 -61 -49 -84 -41 -36 14 6 168 54 193 28
15 56 14 71 -4 11 -13 10 -24 0 -58 -34 -106 17 -211 61 -125 9 19 9 21 -2 11
-17 -17 -36 -16 -42 2 -4 8 5 56 18 107 13 51 22 94 20 96 -2 2 -13 -1 -24 -8
-15 -7 -27 -8 -40 0 -11 5 -21 9 -23 9 -2 -1 -12 -3 -23 -6z"/>
<path d="M2970 4619 c-61 -24 -110 -101 -110 -172 0 -50 13 -67 51 -67 20 0
40 14 74 53 47 51 47 51 41 20 -8 -35 7 -73 28 -73 7 0 23 12 37 28 13 15 17
21 9 15 -8 -7 -22 -13 -32 -13 -24 0 -24 40 2 132 24 88 24 92 3 83 -22 -9
-33 -10 -58 -2 -11 3 -31 1 -45 -4z m68 -22 c23 -27 -29 -143 -81 -181 -79
-59 -88 84 -9 167 28 29 72 36 90 14z"/>
<path d="M2680 4518 c-12 -22 -12 -22 6 -6 10 10 15 20 12 24 -4 3 -12 -5 -18
-18z"/>
<path d="M2521 4265 c-44 -40 -73 -102 -92 -194 -13 -59 -12 -64 6 -77 25 -18
29 -12 44 66 18 94 48 171 75 199 49 49 81 -2 71 -114 -9 -101 -106 -579 -141
-698 -5 -15 -1 -18 21 -15 24 3 30 13 79 163 83 249 198 495 268 571 41 45 74
56 84 29 4 -8 -7 -77 -24 -153 -76 -340 -122 -563 -122 -587 0 -21 4 -26 21
-23 19 3 27 20 54 118 79 285 248 610 317 610 28 0 31 -22 13 -107 -34 -160
-116 -559 -122 -590 -5 -31 -4 -33 24 -33 l29 0 27 128 c14 70 45 215 67 322
55 262 56 265 36 295 -28 42 -71 34 -125 -23 -46 -48 -138 -207 -181 -314 -13
-32 -25 -56 -27 -54 -3 2 12 82 31 177 51 246 48 289 -18 289 -24 0 -42 -12
-82 -54 -47 -51 -90 -128 -223 -406 -13 -29 -14 -37 19 158 32 182 25 279 -22
329 -30 32 -61 29 -107 -12z"/>
<path d="M1653 4270 c-12 -5 -25 -21 -28 -35 -3 -14 -7 -36 -10 -50 l-5 -25
-43 27 c-56 35 -153 70 -219 78 -72 9 -134 -9 -175 -50 -29 -29 -33 -40 -33
-85 0 -57 10 -81 49 -123 37 -41 57 -50 81 -37 28 15 25 23 -16 45 -135 73
-122 215 20 215 85 0 213 -46 293 -106 l31 -24 -12 -52 c-7 -29 -28 -104 -47
-165 l-34 -113 -67 0 c-54 0 -68 -3 -68 -15 0 -12 13 -15 60 -15 33 0 60 -3
60 -7 0 -19 -84 -173 -105 -193 l-24 -23 -83 17 c-46 9 -100 16 -120 16 -104
0 -158 -76 -86 -120 44 -27 104 -25 193 5 67 22 77 23 112 11 21 -7 75 -18
119 -25 168 -24 297 30 370 155 26 45 29 57 29 144 0 86 -3 101 -31 161 -38
79 -93 152 -152 199 -42 34 -42 36 -37 85 3 28 8 65 11 83 7 34 3 36 -33 22z
m72 -275 c53 -50 111 -137 129 -192 51 -153 -14 -297 -153 -340 -54 -17 -121
-12 -233 18 l-76 21 51 67 c29 37 63 90 76 119 l24 51 55 3 c74 4 85 28 13 28
-28 0 -51 2 -51 4 0 3 5 17 11 33 6 15 24 73 40 128 16 55 32 106 35 114 5 15
15 8 79 -54z m-478 -508 c24 -6 43 -14 43 -17 0 -4 -16 -14 -35 -23 -49 -23
-146 -23 -175 1 -24 19 -20 48 8 56 22 6 106 -2 159 -17z"/>
<path d="M2090 4045 c-26 -31 13 -82 44 -56 19 16 21 42 4 59 -16 16 -33 15
-48 -3z"/>
<path d="M3397 4053 c-13 -13 -7 -61 9 -67 22 -8 54 11 54 32 0 32 -43 56 -63
35z"/>
<path d="M2053 3790 c-16 -7 -23 -20 -28 -57 -4 -26 -13 -79 -21 -118 -17 -86
-18 -157 -2 -173 22 -22 55 -13 87 23 38 44 40 53 5 26 -34 -27 -61 -27 -69
-1 -8 25 -2 54 36 186 38 134 38 132 -8 114z"/>
<path d="M3363 3790 c-23 -10 -33 -46 -58 -211 -17 -111 -8 -149 35 -149 21 0
36 10 60 40 32 41 28 57 -5 20 -10 -11 -26 -20 -36 -20 -31 0 -34 44 -9 138
37 138 49 192 42 191 -4 0 -17 -4 -29 -9z"/>
<path d="M2210 3625 c0 -12 15 -15 75 -15 60 0 75 3 75 15 0 12 -15 15 -75 15
-60 0 -75 -3 -75 -15z"/>
<path d="M2032 3342 c-59 -23 -150 -92 -197 -149 -42 -51 -32 -46 56 28 62 52
159 100 213 106 69 8 161 -36 273 -130 53 -44 142 -101 149 -95 2 3 -8 13 -22
23 -15 10 -55 43 -88 74 -164 151 -266 190 -384 143z"/>
<path d="M2764 3159 l-42 -20 23 -23 c20 -20 45 -99 45 -141 0 -25 20 -27 41
-3 31 36 79 143 79 177 0 31 0 31 -52 31 -33 0 -69 -8 -94 -21z"/>
<path d="M2612 3118 c-20 -20 -13 -36 26 -55 l37 -18 -3 -65 c-1 -36 -3 -123
-4 -195 -2 -118 1 -138 26 -214 29 -88 68 -141 103 -141 15 0 25 16 43 75 21
68 22 81 12 139 -17 88 -15 116 8 154 25 41 20 62 -20 86 -42 24 -58 53 -71
122 -14 79 -18 91 -35 109 -19 18 -105 20 -122 3z m201 -360 c-2 -5 -13 -8
-24 -8 -14 0 -19 7 -19 25 0 26 0 26 24 8 13 -10 22 -21 19 -25z"/>
<path d="M962 3099 c-18 -5 -36 -17 -39 -25 -9 -25 14 -120 52 -207 80 -182
176 -306 255 -327 51 -14 209 -8 283 11 66 16 130 4 172 -33 76 -66 156 -287
176 -481 19 -195 47 -234 133 -189 54 29 91 28 128 -3 16 -14 40 -25 54 -25
24 0 58 -26 66 -50 6 -19 60 -15 75 6 8 12 13 49 13 109 0 67 5 106 21 150 61
169 74 287 40 360 -10 22 -41 71 -69 109 -28 38 -60 96 -72 130 -12 33 -30 84
-40 111 -11 28 -28 82 -39 121 -25 84 -64 162 -94 186 -31 25 -71 22 -123 -8
-55 -32 -89 -26 -133 23 -29 33 -33 34 -53 21 -12 -8 -41 -53 -64 -99 -31 -62
-49 -87 -70 -96 -63 -27 -131 -11 -209 47 -142 107 -373 186 -463 159z m136
-104 c52 -29 119 -102 174 -186 51 -80 130 -238 124 -248 -10 -15 -86 -22
-125 -11 -80 21 -170 132 -212 261 -22 69 -49 176 -49 197 0 20 42 14 88 -13z
m947 -205 c6 -10 -24 -70 -35 -70 -3 0 -5 18 -5 40 0 31 4 40 17 40 9 0 20 -4
23 -10z m-101 -68 c-1 -2 -12 1 -23 8 -20 10 -20 12 -3 38 l17 26 5 -34 c3
-19 5 -36 4 -38z"/>
<path d="M2936 2386 c17 -8 46 -27 65 -44 32 -28 47 -55 95 -172 11 -25 40
-68 66 -97 90 -100 99 -145 33 -178 -35 -18 -62 -20 -225 -21 -173 -2 -190 -3
-259 -28 -40 -15 -100 -40 -133 -57 -32 -16 -82 -36 -111 -44 l-52 -15 48 6
c26 3 100 26 165 51 l117 46 195 2 c203 2 258 10 304 46 41 32 37 93 -11 156
-20 26 -47 56 -60 66 -13 10 -39 53 -58 94 -19 42 -51 96 -71 120 -34 41 -98
83 -126 83 -7 -1 1 -7 18 -14z"/>
<path d="M1696 2345 c-8 -21 -8 -75 0 -75 3 0 14 5 24 10 33 18 43 -22 48
-190 l4 -155 -51 -82 c-27 -46 -79 -116 -115 -157 -75 -86 -92 -121 -102 -208
-8 -67 -4 -61 -108 -155 -57 -52 -60 -81 -12 -126 41 -38 45 -52 51 -152 6
-94 19 -116 88 -151 89 -44 127 -94 142 -182 8 -49 27 -72 59 -72 30 0 44 17
48 60 3 30 7 35 32 38 34 4 99 66 94 90 -2 9 -20 25 -41 35 -30 14 -38 23 -35
40 2 18 9 22 42 22 l40 0 48 -94 c30 -58 48 -106 48 -127 0 -57 25 -104 54
-104 40 0 57 45 55 138 -2 70 0 81 25 117 25 35 27 47 23 97 -3 36 -18 84 -40
131 -39 81 -57 138 -57 178 0 14 -15 55 -34 90 -18 35 -39 87 -45 116 -7 28
-35 87 -62 130 -27 43 -56 101 -64 128 -8 28 -19 134 -24 240 -9 194 -17 234
-67 340 -21 43 -57 59 -68 30z"/>
<path d="M1564 2188 c-148 -193 -223 -402 -229 -638 -4 -140 0 -132 25 50 23
168 124 435 225 598 15 23 25 42 23 42 -2 0 -21 -24 -44 -52z"/>
<path d="M2552 2233 c-19 -7 -42 -58 -42 -91 0 -61 42 -87 183 -117 l59 -12
-6 30 c-3 16 -22 47 -41 68 -19 22 -35 49 -35 62 0 41 -27 67 -68 66 -20 0
-43 -3 -50 -6z"/>
<path d="M2965 2220 c-29 -32 -24 -79 16 -134 l34 -48 6 48 c3 27 11 61 19 76
11 23 10 31 -4 53 -20 30 -46 32 -71 5z"/>
<path d="M1513 1894 c-7 -3 -22 -21 -33 -39 -24 -39 -80 -209 -80 -244 0 -13
-9 -64 -21 -113 -12 -49 -18 -92 -15 -95 21 -22 106 126 106 185 0 62 15 88
69 124 55 36 81 73 81 112 0 35 -12 33 -47 -8 -34 -41 -70 -55 -80 -30 -4 11
5 26 32 49 49 40 41 80 -12 59z"/>
<path d="M3000 1747 c-53 -61 -108 -97 -147 -97 -38 0 -40 6 -16 40 15 21 11
20 -22 -8 -133 -110 -232 -154 -350 -156 -38 0 -88 2 -110 6 l-40 7 40 -19
c37 -17 38 -19 13 -19 -45 -1 -121 -31 -151 -59 -60 -56 -90 -181 -69 -282 10
-44 10 -44 11 29 3 191 64 271 226 298 l40 6 -37 -34 c-44 -42 -56 -90 -38
-153 14 -52 7 -80 -30 -121 -15 -16 -37 -48 -50 -70 -13 -22 -36 -50 -51 -62
-40 -33 -44 -66 -17 -146 l22 -69 -22 -38 c-29 -50 -28 -88 3 -146 14 -27 25
-64 25 -86 0 -22 7 -46 15 -54 12 -13 16 -8 30 38 8 28 15 58 15 67 0 41 42
99 90 125 40 22 51 34 60 65 5 20 21 48 35 61 14 13 25 32 25 43 0 34 22 96
41 113 22 20 49 12 49 -14 0 -35 25 -55 66 -54 44 2 84 -20 84 -46 0 -25 19
-42 47 -42 12 0 66 23 118 50 52 28 97 50 100 50 16 0 0 -50 -29 -90 -29 -41
-33 -51 -22 -65 11 -16 15 -16 42 -2 17 9 35 22 41 29 13 15 39 178 49 303 9
113 -23 246 -77 318 -22 28 -39 56 -39 62 0 6 -15 37 -34 68 -32 52 -33 57
-15 62 29 10 75 52 100 91 29 48 21 48 -21 1z"/>
<path d="M468 1243 c7 -3 16 -2 19 1 4 3 -2 6 -13 5 -11 0 -14 -3 -6 -6z"/>
<path d="M1366 1065 c3 -27 19 -88 36 -135 17 -47 39 -116 49 -155 17 -63 38
-95 61 -95 23 0 -7 102 -62 214 -22 45 -51 113 -65 151 l-25 70 6 -50z"/>
<path d="M2830 835 c-15 -18 -6 -45 15 -45 16 0 36 39 28 53 -7 12 -30 8 -43
-8z"/>
<path d="M1803 653 c-19 -7 -17 -89 3 -97 16 -6 59 20 68 41 6 14 -31 63 -47
62 -7 0 -18 -3 -24 -6z"/>
</g>
</svg>
